<?xml version="1.0" standalone="no"?>
<!DOCTYPE svg PUBLIC "-//W3C//DTD SVG 1.1//EN" "http://www.w3.org/Graphics/SVG/1.1/DTD/svg11.dtd" >
<svg>
<metadata>
Created by FontForge 20110222 at Wed Aug 28 16:04:27 2013
 By Orthosie Webhosting
\251 Dutch Design: Albert-Jan Pool, 1995. Published by FontShop International FontFont release 15
</metadata>
<defs>
<font id="DINLightRegular" horiz-adv-x="514" >
  <font-face 
    font-family="DINLightRegular"
    font-weight="5"
    font-stretch="normal"
    units-per-em="1000"
    panose-1="0 0 0 0 0 0 0 0 0 0"
    ascent="800"
    descent="-200"
    x-height="482"
    cap-height="712"
    bbox="-100 -236 1099 975"
    underline-thickness="38"
    underline-position="-122"
    unicode-range="U+0020-F002"
  />
<missing-glyph horiz-adv-x="764" 
d="M47 0v764h670v-764h-670zM670 47v670h-576v-670h576z" />
    <glyph glyph-name=".notdef" horiz-adv-x="764" 
d="M47 0v764h670v-764h-670zM670 47v670h-576v-670h576z" />
    <glyph glyph-name=".null" horiz-adv-x="0" 
 />
    <glyph glyph-name="nonmarkingreturn" horiz-adv-x="255" 
 />
    <glyph glyph-name="space" unicode=" " horiz-adv-x="255" 
 />
    <glyph glyph-name="exclam" unicode="!" horiz-adv-x="304" 
d="M191 192h-49l-3 520h55zM133 0v67h67v-67h-67z" />
    <glyph glyph-name="quotedbl" unicode="&#x22;" horiz-adv-x="408" 
d="M250 556v156h63v-156h-63zM95 556v156h63v-156h-63z" />
    <glyph glyph-name="numbersign" unicode="#" horiz-adv-x="639" 
d="M488 437l-25 -153h96v-44h-103l-38 -240h-51l39 240h-176l-37 -240h-51l38 240h-96v44h103l25 153h-99v45h105l36 230h52l-37 -230h175l36 230h50l-36 -230h94v-45h-100zM262 437l-25 -153h175l25 153h-175z" />
    <glyph glyph-name="dollar" unicode="$" horiz-adv-x="587" 
d="M310 -5v-109h-45v108q-67 0 -116 22.5t-98 71.5l38 38q83 -83 176 -83v295l-16 2q-38 5 -71 19t-72.5 47.5t-39.5 116.5q0 86 54 140t145 54v89h45v-89q53 0 95.5 -19t86.5 -57l-35 -35q-37 33 -68 49t-79 16v-290l29 -5q53 -10 78.5 -18.5t68 -44t42.5 -122.5
t-58.5 -141.5t-159.5 -54.5zM265 671q-68 0 -107 -41t-39 -105q0 -62 29.5 -87t57.5 -35.5t59 -14.5v283zM435 289q-25 21 -47 27t-78 14v-287q76 0 120 40t44 106q0 65 -39 100z" />
    <glyph glyph-name="percent" unicode="%" horiz-adv-x="828" 
d="M628 -7q-59 0 -95.5 37.5t-36.5 96.5v107q0 60 36 97t96 37q58 0 94.5 -37.5t36.5 -96.5v-107q0 -60 -36 -97t-95 -37zM271 0h-45l332 712h45zM201 345q-58 0 -95 37t-37 96v107q0 60 36 97t96 37q58 0 94.5 -37.5t36.5 -96.5v-107q0 -59 -36 -96t-95 -37zM715 232
q0 46 -21 72t-66 26t-66.5 -25.5t-21.5 -72.5v-103q0 -47 21.5 -72.5t66.5 -25.5t66 26t21 72v103zM288 583q0 46 -21 72t-66 26t-66.5 -25.5t-21.5 -72.5v-103q0 -47 21 -72t67 -25q87 0 87 97v103z" />
    <glyph glyph-name="ampersand" unicode="&#x26;" horiz-adv-x="746" 
d="M593 0l-69 84q-36 -34 -89 -62t-130 -28q-99 0 -160 56t-61 147q0 75 39.5 120t123.5 101q-48 57 -63.5 91t-15.5 67q0 60 42 101t103 41t103 -41t42 -102q0 -40 -22 -71.5t-60 -56.5l-53 -36l204 -247q23 36 32.5 74t9.5 103h53q0 -69 -14.5 -123t-47.5 -94l102 -124
h-69zM313 670q-39 0 -65 -26t-26 -66q0 -28 13.5 -53.5t56.5 -77.5l41 28q36 24 54 45.5t18 54.5q0 41 -26 68t-66 27zM278 382q-74 -51 -107 -86t-33 -96q0 -70 46 -114t120 -44q49 0 94 17t96 62z" />
    <glyph glyph-name="quotesingle" unicode="'" horiz-adv-x="253" 
d="M95 556v156h63v-156h-63z" />
    <glyph glyph-name="parenleft" unicode="(" horiz-adv-x="284" 
d="M182 -94q-25 25 -40.5 43t-25.5 37.5t-14.5 43.5t-4.5 49v554q0 30 3.5 50t15 42t22.5 35t44 46l35 -35q-16 -16 -30.5 -31.5t-26.5 -40.5t-12 -72v-542q0 -47 11 -70.5t23 -37t35 -36.5z" />
    <glyph glyph-name="parenright" unicode=")" horiz-adv-x="284" 
d="M168 -14q-11 -21 -22 -34t-44 -46l-37 37q15 16 31 31q14 16 22.5 33t11.5 35t3 43v542q0 48 -10.5 70t-22.5 35.5t-35 36.5l37 37q25 -25 40.5 -43t26.5 -38t14.5 -41t3.5 -51v-554q0 -29 -3.5 -50t-15.5 -43z" />
    <glyph glyph-name="asterisk" unicode="*" horiz-adv-x="467" 
d="M373 438l-120 73l3 -141h-45l3 141l-120 -73l-22 38l123 68l-123 68l22 38l120 -73l-3 141h45l-3 -141l120 73l22 -38l-123 -68l123 -68z" />
    <glyph glyph-name="plus" unicode="+" 
d="M281 240v-181h-47v181h-181v47h181v180h47v-180h180v-47h-180z" />
    <glyph glyph-name="comma" unicode="," horiz-adv-x="258" 
d="M95 -136v204h68v-136z" />
    <glyph glyph-name="hyphen" unicode="-" horiz-adv-x="426" 
d="M82 240v47h262v-47h-262z" />
    <glyph glyph-name="period" unicode="." horiz-adv-x="264" 
d="M95 0v74h74v-74h-74z" />
    <glyph glyph-name="slash" unicode="/" horiz-adv-x="338" 
d="M53 -74h-53l285 860h53z" />
    <glyph glyph-name="zero" unicode="0" 
d="M257 -6q-83 0 -135 53t-52 137v344q0 84 52 137t135 53t135 -53t52 -137v-344q0 -84 -52 -137t-135 -53zM393 523q0 66 -35.5 108t-100.5 42q-64 0 -100 -42t-36 -108v-334q0 -66 35.5 -108t100.5 -42q64 0 100 42t36 108v334z" />
    <glyph glyph-name="one" unicode="1" 
d="M262 0v654l-129 -114v61l129 111h51v-712h-51z" />
    <glyph glyph-name="two" unicode="2" 
d="M72 0v45l286 375q40 51 40 111q0 65 -36.5 103.5t-100.5 38.5q-60 0 -98.5 -35.5t-38.5 -106.5h-51q0 82 50.5 134.5t137.5 52.5q86 0 137 -51t51 -136q0 -40 -11 -70.5t-38 -66.5l-267 -349h316v-45h-377z" />
    <glyph glyph-name="three" unicode="3" 
d="M245 -7q-89 0 -146 45.5t-57 134.5h51q0 -68 44.5 -101.5t107.5 -33.5q65 0 108 41t43 111q0 75 -37 113.5t-118 38.5h-12v45h12q141 0 141 143q0 68 -39 106t-99 38q-62 0 -98.5 -34.5t-43.5 -95.5h-51q7 82 60 128.5t133 46.5q84 0 136.5 -51.5t52.5 -137.5
q0 -59 -24 -99t-77 -63q115 -39 115 -178q0 -92 -56.5 -144.5t-145.5 -52.5z" />
    <glyph glyph-name="four" unicode="4" 
d="M376 117v-117h-51v117h-282v45l262 550h54l-262 -550h228v226h51v-226h95v-45h-95z" />
    <glyph glyph-name="five" unicode="5" 
d="M396 44q-51 -51 -137 -51q-90 0 -124.5 35t-47.5 64t-13 65h51q8 -59 40 -89t94 -30t94 32t39.5 70.5t7.5 92.5q0 109 -36 149.5t-97 40.5q-49 0 -83.5 -19.5t-45.5 -55.5h-45v364h342v-45h-297v-252q46 53 135 53q77 0 115.5 -38.5t50.5 -86t12 -110.5q0 -66 -10 -110
t-45 -79z" />
    <glyph glyph-name="six" unicode="6" 
d="M260 -6q-88 0 -138.5 55.5t-50.5 144.5q0 35 9.5 70.5t30.5 78.5l183 369h51l-164 -329q36 17 83 17q85 0 134.5 -56.5t49.5 -142.5q0 -89 -50.5 -148t-137.5 -59zM259 355q-63 0 -100 -43t-37 -115t37 -115t100 -43t100.5 43.5t37.5 114.5q0 67 -36.5 112.5t-101.5 45.5
z" />
    <glyph glyph-name="seven" unicode="7" 
d="M207 0h-52l252 667h-270v-112h-51v157h373v-45z" />
    <glyph glyph-name="eight" unicode="8" 
d="M257 -6q-87 0 -145 56t-58 142q0 59 30 104.5t83 73.5q-49 26 -73.5 66.5t-24.5 95.5q0 79 52.5 132.5t135.5 53.5t135.5 -52.5t52.5 -133.5q0 -110 -97 -162q53 -28 82.5 -73t29.5 -105q0 -86 -58 -142t-145 -56zM257 673q-61 0 -99 -39t-38 -102t38 -102t99 -39t99 39
t38 102q0 62 -38.5 101.5t-98.5 39.5zM257 346q-65 0 -108.5 -44.5t-43.5 -109.5t43 -109t109 -44q64 0 108 44t44 109q0 66 -43 110t-109 44z" />
    <glyph glyph-name="nine" unicode="9" 
d="M403 369l-183 -369h-51l164 329q-36 -17 -84 -17q-85 0 -134 56.5t-49 142.5q0 89 50.5 148t137.5 59q88 0 138.5 -55.5t50.5 -144.5q0 -35 -9.5 -70.5t-30.5 -78.5zM254 673q-63 0 -100 -43t-37 -115q0 -68 35.5 -113t101.5 -45q62 0 100 43.5t38 114.5q0 72 -37 115
t-101 43z" />
    <glyph glyph-name="colon" unicode=":" horiz-adv-x="292" 
d="M123 312v74h74v-74h-74zM123 0v74h74v-74h-74z" />
    <glyph glyph-name="semicolon" unicode=";" horiz-adv-x="292" 
d="M123 312v74h74v-74h-74zM125 -136v204h68v-136z" />
    <glyph glyph-name="less" unicode="&#x3c;" horiz-adv-x="1027" 
d="M151 238l379 -379h-69l-404 404l404 404h69l-379 -379h819v-50h-819z" />
    <glyph glyph-name="equal" unicode="=" 
d="M53 316v47h408v-47h-408zM53 163v47h408v-47h-408z" />
    <glyph glyph-name="greater" unicode="&#x3e;" horiz-adv-x="1027" 
d="M566 -141h-69l379 379h-819v50h819l-379 379h69l404 -404z" />
    <glyph glyph-name="question" unicode="?" horiz-adv-x="488" 
d="M394 423l-85 -125q-9 -14 -13.5 -30t-4.5 -30v-47h-51v45q0 27 6.5 47t22.5 43l84 124q16 25 25 46t9 46q0 56 -36.5 93.5t-91.5 37.5q-57 0 -92.5 -38.5t-35.5 -92.5h-51q0 74 50 125t129 51q77 0 128 -50t51 -126q0 -32 -11 -59t-33 -60zM232 0v67h67v-67h-67z" />
    <glyph glyph-name="at" unicode="@" horiz-adv-x="697" 
d="M569 0v59q-48 -66 -139 -66q-89 0 -125.5 48t-46.5 90t-10 110q0 125 30.5 168.5t68 61.5t82.5 18q88 0 140 -68v89q0 43 -9 69t-31.5 49t-49.5 33t-65 10h-132q-71 0 -103.5 -32.5t-41.5 -58.5t-9 -70v-353q0 -51 12 -76.5t50 -52.5l-35 -35q-46 32 -62 65t-16 99v350
q0 94 53.5 149.5t142.5 55.5h150q87 0 142 -55t55 -150v-507h-51zM434 444q-81 0 -108 -55.5t-27 -147.5q0 -119 35.5 -161t99.5 -42q81 0 108 55.5t27 147.5q0 119 -35.5 161t-99.5 42z" />
    <glyph glyph-name="A" unicode="A" horiz-adv-x="602" 
d="M529 0l-62 173h-332l-62 -173h-58l262 712h48l262 -712h-58zM301 640l-149 -419h298z" />
    <glyph glyph-name="B" unicode="B" horiz-adv-x="671" 
d="M380 0h-270v712h262q91 0 148.5 -49.5t57.5 -136.5q0 -57 -29.5 -100t-81.5 -60q58 -19 90 -64.5t32 -107.5q0 -94 -56 -144t-153 -50zM366 664h-202v-276h202q69 0 113.5 34t44.5 104t-43.5 104t-114.5 34zM374 340h-210v-292h210q73 0 117 39t44 107t-44 107t-117 39z
" />
    <glyph glyph-name="C" unicode="C" horiz-adv-x="644" 
d="M326 -6q-49 0 -96 19t-87 59t-50.5 95.5t-10.5 188.5q0 112 5.5 173t69.5 125t169 64q96 0 160.5 -55t81.5 -153h-55q-16 75 -65.5 117.5t-121.5 42.5q-80 0 -125.5 -45.5t-55 -97t-9.5 -171.5q0 -104 5.5 -159.5t40.5 -90.5t70 -49.5t74 -14.5q72 0 122.5 42.5
t66.5 117.5h53q-17 -96 -82 -152t-160 -56z" />
    <glyph glyph-name="D" unicode="D" horiz-adv-x="678" 
d="M527 65q-65 -65 -178 -65h-239v712h239q113 0 169 -56t67 -121.5t11 -168.5q0 -113 -10.5 -183t-58.5 -118zM489 609q-29 30 -68 42.5t-85 12.5h-172v-616h172q48 0 85.5 12t71 46.5t41.5 96.5t8 163v31q0 96 -12.5 140t-40.5 72z" />
    <glyph glyph-name="E" unicode="E" horiz-adv-x="598" 
d="M110 0v712h432v-48h-378v-281h322v-48h-322v-287h378v-48h-432z" />
    <glyph glyph-name="F" unicode="F" horiz-adv-x="576" 
d="M164 664v-293h322v-48h-322v-323h-54v712h432v-48h-378z" />
    <glyph glyph-name="G" unicode="G" horiz-adv-x="651" 
d="M513 76q-35 -38 -84.5 -60t-102.5 -22q-49 0 -96 19t-87 59t-50.5 95.5t-10.5 188.5q0 112 5.5 173t69.5 125t169 64q94 0 160 -56t83 -152h-54q-16 74 -66 117t-123 43q-80 0 -125.5 -45.5t-55 -97t-9.5 -171.5q0 -104 5.5 -159.5t40.5 -90.5t70 -49.5t74 -14.5
q91 0 141 61t50 149v64h-191v48h245v-116q0 -57 -13 -97.5t-45 -74.5z" />
    <glyph glyph-name="H" unicode="H" horiz-adv-x="699" 
d="M535 0v335h-371v-335h-54v712h54v-329h371v329h54v-712h-54z" />
    <glyph glyph-name="I" unicode="I" horiz-adv-x="274" 
d="M110 0v712h54v-712h-54z" />
    <glyph glyph-name="J" unicode="J" horiz-adv-x="498" 
d="M186 -6q-95 0 -156 61l37 37q24 -24 50 -37t69 -13q77 0 117.5 46.5t40.5 132.5v491h54v-502q0 -98 -57 -157t-155 -59z" />
    <glyph glyph-name="K" unicode="K" horiz-adv-x="645" 
d="M563 0l-229 399l-170 -206v-193h-54v712h54v-445l361 445h65l-220 -272l257 -440h-64z" />
    <glyph glyph-name="L" unicode="L" horiz-adv-x="572" 
d="M110 0v712h54v-664h378v-48h-432z" />
    <glyph glyph-name="M" unicode="M" horiz-adv-x="818" 
d="M654 0v587l-216 -487h-54l-220 487v-587h-54v712h54l248 -549l242 549h54v-712h-54z" />
    <glyph glyph-name="N" unicode="N" horiz-adv-x="739" 
d="M575 0l-411 619v-619h-54v712h54l411 -617v617h54v-712h-54z" />
    <glyph glyph-name="O" unicode="O" horiz-adv-x="652" 
d="M504 67q-73 -73 -178 -73q-49 0 -96 19t-87 59t-50.5 95.5t-10.5 188.5q0 112 5.5 173t69.5 125t169 64q49 0 96 -19t87 -59t50.5 -95.5t10.5 -188.5q0 -112 -5.5 -173t-60.5 -116zM461 615q-26 26 -61 40.5t-74 14.5q-80 0 -125.5 -45.5t-55 -97t-9.5 -171.5
q0 -104 5.5 -159.5t40.5 -90.5t70 -49.5t74 -14.5q80 0 125.5 45.5t55 97t9.5 171.5q0 104 -5.5 159.5t-49.5 99.5z" />
    <glyph glyph-name="P" unicode="P" horiz-adv-x="631" 
d="M371 302h-207v-302h-54v712h261q96 0 155.5 -54t59.5 -151q0 -95 -60 -150t-155 -55zM365 664h-201v-314h201q77 0 122 39.5t45 117.5t-45.5 117.5t-121.5 39.5z" />
    <glyph glyph-name="Q" unicode="Q" horiz-adv-x="651" 
d="M567 -36l-84 84q-68 -54 -157 -54q-49 0 -96 19t-87 59t-50.5 95.5t-10.5 188.5q0 112 5.5 173t69.5 125t169 64q49 0 96 -19t87 -59t50.5 -95.5t10.5 -188.5q0 -109 -4.5 -165.5t-46.5 -106.5l84 -84zM461 615q-26 26 -61 40.5t-74 14.5q-80 0 -125.5 -45.5t-55 -97
t-9.5 -171.5q0 -104 5.5 -159.5t40.5 -90.5t70 -49.5t74 -14.5q68 0 121 42l-100 100l36 36l99 -99q21 31 27.5 82t6.5 153q0 104 -5.5 159.5t-49.5 99.5z" />
    <glyph glyph-name="R" unicode="R" horiz-adv-x="657" 
d="M530 0l-170 328h-196v-328h-54v712h271q89 0 146.5 -50.5t57.5 -140.5q0 -79 -44 -129t-120 -63l172 -329h-63zM374 664h-210v-288h210q72 0 114.5 36t42.5 108q0 71 -42.5 107.5t-114.5 36.5z" />
    <glyph glyph-name="S" unicode="S" horiz-adv-x="587" 
d="M288 -6q-80 0 -133 21.5t-104 72.5l38 38q47 -47 92 -65.5t110 -18.5q85 0 134 39t49 108q0 65 -29.5 91t-48.5 33t-64 14l-83 13q-81 12 -132 55.5t-51 127.5q0 89 59 142t162 53q65 0 111 -17.5t94 -59.5l-35 -35q-38 34 -75.5 50t-97.5 16q-77 0 -121 -39t-44 -108
q0 -62 39 -94.5t104 -42.5l77 -12q52 -8 77 -17t68.5 -45t43.5 -123q0 -90 -64.5 -143.5t-175.5 -53.5z" />
    <glyph glyph-name="T" unicode="T" horiz-adv-x="539" 
d="M296 664v-664h-54v664h-212v48h479v-48h-213z" />
    <glyph glyph-name="U" unicode="U" horiz-adv-x="688" 
d="M344 -6q-108 0 -176 66t-68 171v481h54v-474q0 -88 52 -142t138 -54t138 53t52 143v474h54v-481q0 -105 -68 -171t-176 -66z" />
    <glyph glyph-name="V" unicode="V" horiz-adv-x="534" 
d="M290 0h-46l-234 712h57l200 -617l200 617h57z" />
    <glyph glyph-name="W" unicode="W" horiz-adv-x="842" 
d="M644 0h-55l-168 620l-168 -620h-55l-178 712h57l150 -619l166 619h56l166 -619l150 619h57z" />
    <glyph glyph-name="X" unicode="X" horiz-adv-x="532" 
d="M451 0l-186 317l-186 -317h-61l218 365l-204 347h63l170 -299l171 299h62l-204 -347l220 -365h-63z" />
    <glyph glyph-name="Y" unicode="Y" horiz-adv-x="494" 
d="M274 295v-295h-54v295l-210 417h58l181 -360l177 360h58z" />
    <glyph glyph-name="Z" unicode="Z" horiz-adv-x="559" 
d="M63 0v57l375 607h-360v48h418v-48l-378 -616h378v-48h-433z" />
    <glyph glyph-name="bracketleft" unicode="[" horiz-adv-x="290" 
d="M97 -74v860h148v-45h-97v-770h97v-45h-148z" />
    <glyph glyph-name="backslash" unicode="\" horiz-adv-x="338" 
d="M285 -74l-285 860h53l285 -860h-53z" />
    <glyph glyph-name="bracketright" unicode="]" horiz-adv-x="290" 
d="M45 -74v42h100v776h-100v42h148v-860h-148z" />
    <glyph glyph-name="asciicircum" unicode="^" 
d="M387 422l-130 242l-130 -242h-51l158 296h46l158 -296h-51z" />
    <glyph glyph-name="underscore" unicode="_" 
d="M0 -160v38h514v-38h-514z" />
    <glyph glyph-name="grave" unicode="`" horiz-adv-x="500" 
d="M239 590l-106 147h67l97 -147h-58z" />
    <glyph glyph-name="a" unicode="a" horiz-adv-x="524" 
d="M380 0v48q-30 -30 -63 -42t-84 -12q-53 0 -86 10t-62 40.5t-29 87.5q0 66 44.5 102.5t123.5 36.5h156v54q0 59 -32 88.5t-104 29.5q-51 0 -80.5 -13.5t-52.5 -47.5l-37 32q29 41 69.5 57.5t100.5 16.5q94 0 140.5 -40.5t46.5 -117.5v-330h-51zM380 230h-150
q-123 0 -123 -97q0 -94 126 -94q40 0 68 7t53.5 31.5t25.5 90.5v62z" />
    <glyph glyph-name="b" unicode="b" horiz-adv-x="540" 
d="M409 36q-19 -19 -50 -30.5t-68 -11.5q-45 0 -79.5 14.5t-63.5 53.5v-62h-51v712h51v-292q29 39 63.5 53.5t79.5 14.5q38 0 68 -11t57 -38t41 -81t14 -117q0 -67 -13.5 -118.5t-48.5 -86.5zM284 443q-80 0 -108 -55t-28 -147t27.5 -147t108.5 -55q80 0 108 55t28 147
t-27.5 147t-108.5 55z" />
    <glyph glyph-name="c" unicode="c" horiz-adv-x="493" 
d="M281 -6q-98 0 -155 66t-57 181t57 181t155 66q52 0 85.5 -15.5t73.5 -58.5l-35 -32q-31 35 -58 48t-66 13q-84 0 -122.5 -56t-38.5 -146q0 -50 7 -80.5t38.5 -76t115.5 -45.5q39 0 66 13t58 48l35 -32q-38 -42 -73.5 -58t-85.5 -16z" />
    <glyph glyph-name="d" unicode="d" horiz-adv-x="540" 
d="M392 0v62q-29 -39 -63.5 -53.5t-79.5 -14.5q-38 0 -68 11t-57 38t-41 81t-14 117q0 67 13.5 118.5t40.5 78.5t58 38.5t68 11.5q45 0 79.5 -14.5t63.5 -53.5v292h51v-712h-51zM256 443q-80 0 -108 -55t-28 -147t27.5 -147t108.5 -55q80 0 108 55t28 147t-27.5 147
t-108.5 55z" />
    <glyph glyph-name="e" unicode="e" horiz-adv-x="523" 
d="M120 230q0 -92 40 -141t117 -49q75 0 133 58l38 -30q-38 -38 -77.5 -56t-96.5 -18q-100 0 -152.5 63.5t-52.5 183.5q0 117 51 182t142 65q90 0 141.5 -62.5t51.5 -172.5v-23h-335zM387 362q-16 38 -49.5 59.5t-75.5 21.5t-75.5 -21.5t-46.5 -53t-16.5 -48t-3.5 -49.5h284
q0 31 -3.5 48.5t-13.5 42.5z" />
    <glyph glyph-name="f" unicode="f" horiz-adv-x="304" 
d="M163 444v-444h-51v444h-66v38h66v104q0 57 30 91.5t86 34.5h44v-45h-35q-74 0 -74 -80v-105h109v-38h-109z" />
    <glyph glyph-name="g" unicode="g" horiz-adv-x="540" 
d="M246 -236q-52 0 -85.5 14t-73.5 50l34 34q32 -28 57.5 -40.5t67.5 -12.5q73 0 109.5 46t36.5 121v86q-29 -39 -63.5 -53.5t-79.5 -14.5q-38 0 -68 11t-57 38t-41 81t-14 117q0 67 13.5 118.5t40.5 78.5t58 38.5t68 11.5q45 0 79.5 -14.5t63.5 -53.5v62h51v-509
q0 -94 -52 -151.5t-145 -57.5zM256 443q-80 0 -108 -55t-28 -147t27.5 -147t108.5 -55q80 0 108 55t28 147t-27.5 147t-108.5 55z" />
    <glyph glyph-name="h" unicode="h" horiz-adv-x="559" 
d="M417 0v299q0 144 -133 144q-64 0 -100 -38t-36 -106v-299h-51v712h51v-287q54 63 142 63q83 0 130.5 -48.5t47.5 -131.5v-308h-51z" />
    <glyph glyph-name="i" unicode="i" horiz-adv-x="245" 
d="M91 649v63h63v-63h-63zM97 0v482h51v-482h-51z" />
    <glyph glyph-name="j" unicode="j" horiz-adv-x="245" 
d="M91 649v63h63v-63h-63zM32 -230h-44v45h35q41 0 57.5 19.5t16.5 61.5v586h51v-587q0 -59 -29 -92t-87 -33z" />
    <glyph glyph-name="k" unicode="k" horiz-adv-x="527" 
d="M424 0l-166 265l-110 -127v-138h-51v712h51v-502l239 272h65l-159 -180l194 -302h-63z" />
    <glyph glyph-name="l" unicode="l" horiz-adv-x="287" 
d="M211 0q-57 0 -86.5 33.5t-29.5 91.5v587h51v-586q0 -43 16 -62t58 -19h35v-45h-44z" />
    <glyph glyph-name="m" unicode="m" horiz-adv-x="878" 
d="M737 0v299q0 144 -133 144q-63 0 -99.5 -36.5t-36.5 -98.5v-308h-51v299q0 144 -133 144q-64 0 -100 -38t-36 -106v-299h-51v482h51v-57q54 63 143 63q110 0 155 -88q56 88 164 88q39 0 71.5 -12t69 -47t36.5 -121v-308h-50z" />
    <glyph glyph-name="n" unicode="n" horiz-adv-x="559" 
d="M417 0v299q0 144 -133 144q-64 0 -100 -38t-36 -106v-299h-51v482h51v-57q54 63 142 63q80 0 129 -47t49 -133v-308h-51z" />
    <glyph glyph-name="o" unicode="o" horiz-adv-x="526" 
d="M397 47q-53 -53 -134 -53t-125 44t-56.5 93t-12.5 110q0 64 12 111t56.5 91.5t125.5 44.5t125 -44t56.5 -93t12.5 -110q0 -64 -12 -111t-48 -83zM363 402q-41 41 -100 41t-90 -31t-42 -66t-11 -105t10.5 -104.5t42 -66t90.5 -31.5t90 31t42 66t11 105t-10.5 104.5
t-32.5 56.5z" />
    <glyph glyph-name="p" unicode="p" horiz-adv-x="540" 
d="M409 36q-19 -19 -50 -30.5t-68 -11.5q-45 0 -79.5 14.5t-63.5 53.5v-292h-51v712h51v-62q29 39 63.5 53.5t79.5 14.5q38 0 68 -11t57 -38t41 -81t14 -117q0 -67 -13.5 -118.5t-48.5 -86.5zM284 443q-80 0 -108 -55t-28 -147t27.5 -147t108.5 -55q80 0 108 55t28 147
t-27.5 147t-108.5 55z" />
    <glyph glyph-name="q" unicode="q" horiz-adv-x="540" 
d="M392 -230v292q-29 -39 -63.5 -53.5t-79.5 -14.5q-38 0 -68 11t-57 38t-41 81t-14 117q0 67 13.5 118.5t40.5 78.5t58 38.5t68 11.5q45 0 79.5 -14.5t63.5 -53.5v62h51v-712h-51zM256 443q-80 0 -108 -55t-28 -147t27.5 -147t108.5 -55q80 0 108 55t28 147t-27.5 147
t-108.5 55z" />
    <glyph glyph-name="r" unicode="r" horiz-adv-x="409" 
d="M368 405q-22 22 -41 30t-50 8q-61 0 -95 -41.5t-34 -104.5v-297h-51v482h51v-64q21 33 58.5 51.5t82.5 18.5q35 0 63 -10.5t53 -35.5z" />
    <glyph glyph-name="s" unicode="s" horiz-adv-x="494" 
d="M245 -6q-123 0 -195 69l35 35q56 -59 158 -59q145 0 145 98q0 72 -92 81l-80 7q-71 0 -108 34t-37 92q0 63 47 100t126 37q50 0 93 -13t76 -38l-34 -34q-56 41 -135 41q-59 0 -91 -24t-32 -69q0 -72 98 -81l78 -7q68 -6 104.5 -33t36.5 -93q0 -65 -52.5 -104t-140.5 -39z
" />
    <glyph glyph-name="t" unicode="t" horiz-adv-x="325" 
d="M225 0q-55 0 -85.5 34.5t-30.5 91.5v318h-66v38h66v154h51v-154h109v-38h-109v-319q0 -80 74 -80h35v-45h-44z" />
    <glyph glyph-name="u" unicode="u" horiz-adv-x="559" 
d="M411 0v57q-54 -63 -142 -63q-80 0 -129 47t-49 133v308h51v-299q0 -144 133 -144q64 0 100 38t36 106v299h51v-482h-51z" />
    <glyph glyph-name="v" unicode="v" horiz-adv-x="430" 
d="M240 0h-50l-176 482h56l145 -422l145 422h56z" />
    <glyph glyph-name="w" unicode="w" horiz-adv-x="712" 
d="M544 0h-52l-136 402l-136 -402h-52l-154 482h56l123 -422l138 422h50l138 -422l123 422h56z" />
    <glyph glyph-name="x" unicode="x" horiz-adv-x="460" 
d="M358 0l-127 203l-129 -203h-62l163 246l-156 236h62l122 -194l120 194h62l-156 -236l163 -246h-62z" />
    <glyph glyph-name="y" unicode="y" horiz-adv-x="430" 
d="M192 -131q-14 -39 -32 -55.5t-42 -24t-50 -7.5h-24v45h19q40 0 57 14t31 52l39 107l-176 482h56l145 -422l145 422h56z" />
    <glyph glyph-name="z" unicode="z" horiz-adv-x="452" 
d="M54 0v48l290 389h-274v45h328v-48l-291 -389h291v-45h-344z" />
    <glyph glyph-name="braceleft" unicode="{" horiz-adv-x="316" 
d="M252 -74q-36 0 -59 6t-37.5 20.5t-20.5 35t-6 60.5v207q0 42 -13 55t-24 18.5t-24 5.5h-18v44h18q14 0 24 5t23.5 18.5t13.5 55.5v207q0 69 26.5 95.5t96.5 26.5h14v-45h-13q-46 0 -59.5 -14t-13.5 -64v-207q0 -39 -14 -61.5t-47 -38.5q32 -16 46.5 -39t14.5 -61v-207
q0 -50 13.5 -64t59.5 -14h13v-45h-14z" />
    <glyph glyph-name="bar" unicode="|" horiz-adv-x="317" 
d="M133 -74v860h51v-860h-51z" />
    <glyph glyph-name="braceright" unicode="}" horiz-adv-x="316" 
d="M248 334q-14 0 -24 -5t-23.5 -18.5t-13.5 -55.5v-207q0 -69 -26.5 -95.5t-96.5 -26.5h-14v45h13q46 0 59.5 14t13.5 64v207q0 39 14 61.5t47 38.5q-32 16 -46.5 39t-14.5 61v207q0 50 -13.5 64t-59.5 14h-13v45h14q36 0 59 -6t37.5 -20.5t20.5 -35t6 -60.5v-207
q0 -42 13 -55t24 -18.5t24 -5.5h18v-44h-18z" />
    <glyph glyph-name="asciitilde" unicode="~" 
d="M345 215q-25 0 -44.5 7.5t-53.5 22t-48.5 19.5t-31.5 5q-23 0 -38 -7.5t-45 -37.5l-31 31q39 39 62 50.5t54 11.5q25 0 44.5 -7.5t53.5 -22t48.5 -19.5t31.5 -5q23 0 38 7.5t45 37.5l31 -31q-39 -39 -62 -50.5t-54 -11.5z" />
    <glyph glyph-name="nonbreakingspace" unicode="&#xa0;" horiz-adv-x="255" 
 />
    <glyph glyph-name="exclamdown" unicode="&#xa1;" horiz-adv-x="304" 
d="M104 415v67h67v-67h-67zM110 -230l3 520h49l3 -520h-55z" />
    <glyph glyph-name="cent" unicode="&#xa2;" horiz-adv-x="498" 
d="M292 119v-119h-43v121q-84 11 -132 75.5t-48 169.5t48 169.5t132 75.5v101h43v-99q46 0 78 -16t70 -58l-35 -32q-28 32 -54.5 46.5t-58.5 14.5v-404q34 0 58.5 13.5t54.5 47.5l35 -32q-36 -40 -70 -57t-78 -17zM249 565q-61 -11 -95 -60t-34 -139q0 -50 7 -80.5t34 -69
t88 -49.5v398z" />
    <glyph glyph-name="sterling" unicode="&#xa3;" horiz-adv-x="537" 
d="M114 0v342h-64v38h64v122q0 98 57 157t155 59q95 0 156 -61l-37 -37q-24 24 -50 37t-69 13q-77 0 -117.5 -46.5t-40.5 -132.5v-111h158v-38h-158v-294h314v-48h-368z" />
    <glyph glyph-name="currency" unicode="&#xa4;" horiz-adv-x="657" 
d="M540 22l-75 74q-59 -48 -137 -48t-137 48l-74 -74l-32 32l74 74q-48 59 -48 137q0 79 48 138l-74 73l32 32l74 -73q58 47 137 47t137 -47l75 73l32 -32l-74 -73q47 -58 47 -138q0 -79 -47 -137l74 -74zM328 434q-71 0 -120 -49t-49 -120t49 -120t120 -49t120 49t49 120
t-49 120t-120 49z" />
    <glyph glyph-name="yen" unicode="&#xa5;" horiz-adv-x="493" 
d="M320 386h108v-38h-127l-27 -53v-53h154v-38h-154v-204h-54v204h-155v38h155v53l-27 53h-128v38h109l-164 326h57l181 -361l179 361h56z" />
    <glyph glyph-name="section" unicode="&#xa7;" horiz-adv-x="566" 
d="M359 77q48 -16 75.5 -54.5t27.5 -91.5q0 -73 -50 -120t-129 -47q-78 0 -131 41.5t-53 113.5h54q10 -107 130 -107q59 0 92 30.5t33 88.5q0 40 -25 70t-69 42l-83 23q-63 18 -98.5 66.5t-35.5 114.5q0 60 31 104t79 66q-49 22 -74 55t-25 86q0 73 50.5 116.5t124.5 43.5
t126 -40.5t52 -110.5h-53q-5 55 -36 79.5t-89 24.5q-57 0 -89.5 -28.5t-32.5 -84.5q0 -43 24.5 -69.5t66.5 -37.5l83 -23q62 -17 98 -67t36 -114q0 -60 -31 -104t-79 -66zM380 348q-41 41 -97 41q-59 0 -87.5 -30.5t-36.5 -55t-8 -56.5q0 -33 9 -57.5t36.5 -54.5t86.5 -30
t95.5 39.5t36.5 102.5q0 34 -7 57t-28 44z" />
    <glyph glyph-name="dieresis" unicode="&#xa8;" horiz-adv-x="500" 
d="M325 600v77h58v-77h-58zM117 600v77h58v-77h-58z" />
    <glyph glyph-name="copyright" unicode="&#xa9;" horiz-adv-x="894" 
d="M447 -6q-150 0 -256 106t-106 256t106 256t256 106t256 -106t106 -256t-106 -256t-256 -106zM447 674q-129 0 -221.5 -94.5t-92.5 -223.5t92.5 -223.5t221.5 -94.5t221.5 94.5t92.5 223.5t-92.5 223.5t-221.5 94.5zM451 150q-87 0 -132 58.5t-45 147.5q0 90 45 148.5
t132 58.5q42 0 69 -11.5t62 -41.5l-30 -30q-27 24 -49 33t-52 9q-71 0 -101.5 -46t-30.5 -120q0 -73 31 -119t101 -46q31 0 52 8t49 33l30 -30q-58 -52 -131 -52z" />
    <glyph glyph-name="ordfeminine" unicode="&#xaa;" horiz-adv-x="447" 
d="M313 327v36q-24 -23 -49.5 -32t-64.5 -9q-78 0 -102 24.5t-31 43.5t-7 42q0 53 35 82t98 29h121v42q0 91 -105 91q-41 0 -63.5 -10t-40.5 -38l-32 27q24 33 56 46.5t80 13.5q73 0 110.5 -32.5t37.5 -93.5v-262h-43zM313 508h-116q-48 0 -71.5 -19t-23.5 -56q0 -72 97 -72
q42 0 60 6.5t36 23.5t18 70v47z" />
    <glyph glyph-name="guillemotleft" unicode="&#xab;" horiz-adv-x="527" 
d="M249 265l196 196v-66l-130 -130l130 -130v-66zM42 265l196 196v-66l-130 -130l130 -130v-66z" />
    <glyph glyph-name="logicalnot" unicode="&#xac;" 
d="M414 107v133h-361v47h408v-180h-47z" />
    <glyph glyph-name="registered" unicode="&#xae;" horiz-adv-x="894" 
d="M447 -6q-150 0 -256 106t-106 256t106 256t256 106t256 -106t106 -256t-106 -256t-256 -106zM447 675q-130 0 -222.5 -94.5t-92.5 -224.5t92.5 -224.5t222.5 -94.5t222.5 94.5t92.5 224.5t-92.5 224.5t-222.5 94.5zM543 156l-99 167h-66v-167h-45v401h128
q51 0 87.5 -33.5t36.5 -84.5q0 -43 -24.5 -71.5t-66.5 -40.5l101 -171h-52zM456 516h-78v-153h78q37 0 60.5 21.5t23.5 54.5t-24 55t-60 22z" />
    <glyph glyph-name="degree" unicode="&#xb0;" horiz-adv-x="458" 
d="M229 405q-65 0 -111 46t-46 111t46 111t111 46t111 -46t46 -111t-46 -111t-111 -46zM228 677q-48 0 -79.5 -32.5t-31.5 -82.5q0 -49 32 -82t80 -33q49 0 80.5 32.5t31.5 82.5q0 49 -32 82t-81 33z" />
    <glyph glyph-name="plusminus" unicode="&#xb1;" 
d="M281 270v-182h-47v182h-181v47h181v181h47v-181h180v-47h-180zM53 0v47h408v-47h-408z" />
    <glyph glyph-name="acute" unicode="&#xb4;" horiz-adv-x="500" 
d="M261 590h-58l97 147h67z" />
    <glyph glyph-name="mu" unicode="&#xb5;" horiz-adv-x="556" 
d="M408 0v57q-54 -63 -142 -63q-79 0 -127 45v-269h-51v712h51v-299q0 -144 133 -144q64 0 100 38t36 106v299h51v-482h-51z" />
    <glyph glyph-name="paragraph" unicode="&#xb6;" horiz-adv-x="579" 
d="M418 -230v894h-123v-894h-51v562q-91 0 -145 57t-54 133q0 79 56.5 134.5t154.5 55.5h213v-942h-51z" />
    <glyph glyph-name="cedilla" unicode="&#xb8;" horiz-adv-x="500" 
d="M244 -220h-63l72 150h55z" />
    <glyph glyph-name="ordmasculine" unicode="&#xba;" horiz-adv-x="452" 
d="M332 365q-42 -42 -106 -42t-99 35t-45 74t-10 87q0 64 12.5 97.5t45 66t96.5 32.5t99 -35t45 -74t10 -87q0 -64 -12.5 -97.5t-35.5 -56.5zM304 644q-32 32 -78 32t-70 -24t-32.5 -51t-8.5 -82q0 -47 5.5 -75t32.5 -55t73 -27t70 24t32.5 51t8.5 82q0 47 -5.5 75t-27.5 50
z" />
    <glyph glyph-name="guillemotright" unicode="&#xbb;" horiz-adv-x="527" 
d="M289 69v66l130 130l-130 130v66l196 -196zM82 69v66l130 130l-130 130v66l196 -196z" />
    <glyph glyph-name="questiondown" unicode="&#xbf;" horiz-adv-x="488" 
d="M189 415v67h67v-67h-67zM229 -236q-77 0 -128 50t-51 126q0 32 11 59t33 60l85 125q9 14 13.5 30t4.5 30v47h51v-45q0 -27 -6.5 -47t-22.5 -43l-84 -124q-16 -25 -25 -46t-9 -46q0 -56 36.5 -93.5t91.5 -37.5q57 0 92.5 38.5t35.5 92.5h51q0 -74 -50 -125t-129 -51z" />
    <glyph glyph-name="Agrave" unicode="&#xc0;" horiz-adv-x="602" 
d="M529 0l-62 173h-332l-62 -173h-58l262 712h48l262 -712h-58zM301 640l-149 -419h298zM290 780l-106 147h67l97 -147h-58z" />
    <glyph glyph-name="Aacute" unicode="&#xc1;" horiz-adv-x="602" 
d="M529 0l-62 173h-332l-62 -173h-58l262 712h48l262 -712h-58zM301 640l-149 -419h298zM312 780h-58l97 147h67z" />
    <glyph glyph-name="Acircumflex" unicode="&#xc2;" horiz-adv-x="602" 
d="M529 0l-62 173h-332l-62 -173h-58l262 712h48l262 -712h-58zM301 640l-149 -419h298zM394 780l-93 109l-93 -109h-57l123 147h54l123 -147h-57z" />
    <glyph glyph-name="Atilde" unicode="&#xc3;" horiz-adv-x="602" 
d="M529 0l-62 173h-332l-62 -173h-58l262 712h48l262 -712h-58zM301 640l-149 -419h298zM361 795q-19 0 -33 5.5t-36.5 18.5t-31.5 17t-24 4q-16 0 -26 -5t-33 -28l-30 29q30 30 49.5 39t39.5 9q21 0 34 -5t32.5 -17t32 -17.5t26.5 -5.5q13 0 26 6.5t33 26.5l30 -29
q-30 -30 -50.5 -39t-38.5 -9z" />
    <glyph glyph-name="Adieresis" unicode="&#xc4;" horiz-adv-x="602" 
d="M529 0l-62 173h-332l-62 -173h-58l262 712h48l262 -712h-58zM301 640l-149 -419h298zM376 790v77h58v-77h-58zM168 790v77h58v-77h-58z" />
    <glyph glyph-name="Aring" unicode="&#xc5;" horiz-adv-x="602" 
d="M529 0l-62 173h-332l-62 -173h-58l262 712h48l262 -712h-58zM301 640l-149 -419h298zM301 746q-47 0 -80.5 33.5t-33.5 81.5t33 81t81 33t81 -33t33 -81q0 -47 -33 -81t-81 -34zM301 933q-29 0 -51 -21t-22 -51t21.5 -51.5t51.5 -21.5t51.5 21.5t21.5 51.5t-21 51t-52 21
z" />
    <glyph glyph-name="AE" unicode="&#xc6;" horiz-adv-x="901" 
d="M414 0v173h-255l-90 -173h-59l377 712h458v-48h-378v-284h322v-48h-322v-284h378v-48h-431zM414 664l-232 -443h232v443z" />
    <glyph glyph-name="Ccedilla" unicode="&#xc7;" horiz-adv-x="644" 
d="M326 -6q-49 0 -96 19t-87 59t-50.5 95.5t-10.5 188.5q0 112 5.5 173t69.5 125t169 64q96 0 160.5 -55t81.5 -153h-55q-16 75 -65.5 117.5t-121.5 42.5q-80 0 -125.5 -45.5t-55 -97t-9.5 -171.5q0 -104 5.5 -159.5t40.5 -90.5t70 -49.5t74 -14.5q72 0 122.5 42.5
t66.5 117.5h53q-17 -96 -82 -152t-160 -56zM302 -220h-63l72 150h55z" />
    <glyph glyph-name="Egrave" unicode="&#xc8;" horiz-adv-x="598" 
d="M110 0v712h432v-48h-378v-281h322v-48h-322v-287h378v-48h-432zM303 780l-106 147h67l97 -147h-58z" />
    <glyph glyph-name="Eacute" unicode="&#xc9;" horiz-adv-x="598" 
d="M110 0v712h432v-48h-378v-281h322v-48h-322v-287h378v-48h-432zM325 780h-58l97 147h67z" />
    <glyph glyph-name="Ecircumflex" unicode="&#xca;" horiz-adv-x="598" 
d="M110 0v712h432v-48h-378v-281h322v-48h-322v-287h378v-48h-432zM407 780l-93 109l-93 -109h-57l123 147h54l123 -147h-57z" />
    <glyph glyph-name="Edieresis" unicode="&#xcb;" horiz-adv-x="598" 
d="M110 0v712h432v-48h-378v-281h322v-48h-322v-287h378v-48h-432zM389 790v77h58v-77h-58zM181 790v77h58v-77h-58z" />
    <glyph glyph-name="Igrave" unicode="&#xcc;" horiz-adv-x="274" 
d="M110 0v712h54v-712h-54zM216 780l-106 147h67l97 -147h-58z" />
    <glyph glyph-name="Iacute" unicode="&#xcd;" horiz-adv-x="274" 
d="M110 0v712h54v-712h-54zM168 780h-58l97 147h67z" />
    <glyph glyph-name="Icircumflex" unicode="&#xce;" horiz-adv-x="274" 
d="M110 0v712h54v-712h-54zM353 780l-93 109l-93 -109h-57l123 147h54l123 -147h-57z" />
    <glyph glyph-name="Idieresis" unicode="&#xcf;" horiz-adv-x="274" 
d="M110 0v712h54v-712h-54zM318 790v77h58v-77h-58zM110 790v77h58v-77h-58z" />
    <glyph glyph-name="Ntilde" unicode="&#xd1;" horiz-adv-x="739" 
d="M575 0l-411 619v-619h-54v712h54l411 -617v617h54v-712h-54zM430 795q-19 0 -33 5.5t-36.5 18.5t-31.5 17t-24 4q-16 0 -26 -5t-33 -28l-30 29q30 30 49.5 39t39.5 9q21 0 34 -5t32.5 -17t32 -17.5t26.5 -5.5q13 0 26 6.5t33 26.5l30 -29q-30 -30 -50.5 -39t-38.5 -9z
" />
    <glyph glyph-name="Ograve" unicode="&#xd2;" horiz-adv-x="652" 
d="M504 67q-73 -73 -178 -73q-49 0 -96 19t-87 59t-50.5 95.5t-10.5 188.5q0 112 5.5 173t69.5 125t169 64q49 0 96 -19t87 -59t50.5 -95.5t10.5 -188.5q0 -112 -5.5 -173t-60.5 -116zM461 615q-26 26 -61 40.5t-74 14.5q-80 0 -125.5 -45.5t-55 -97t-9.5 -171.5
q0 -104 5.5 -159.5t40.5 -90.5t70 -49.5t74 -14.5q80 0 125.5 45.5t55 97t9.5 171.5q0 104 -5.5 159.5t-49.5 99.5zM315 780l-106 147h67l97 -147h-58z" />
    <glyph glyph-name="Oacute" unicode="&#xd3;" horiz-adv-x="652" 
d="M504 67q-73 -73 -178 -73q-49 0 -96 19t-87 59t-50.5 95.5t-10.5 188.5q0 112 5.5 173t69.5 125t169 64q49 0 96 -19t87 -59t50.5 -95.5t10.5 -188.5q0 -112 -5.5 -173t-60.5 -116zM461 615q-26 26 -61 40.5t-74 14.5q-80 0 -125.5 -45.5t-55 -97t-9.5 -171.5
q0 -104 5.5 -159.5t40.5 -90.5t70 -49.5t74 -14.5q80 0 125.5 45.5t55 97t9.5 171.5q0 104 -5.5 159.5t-49.5 99.5zM337 780h-58l97 147h67z" />
    <glyph glyph-name="Ocircumflex" unicode="&#xd4;" horiz-adv-x="652" 
d="M504 67q-73 -73 -178 -73q-49 0 -96 19t-87 59t-50.5 95.5t-10.5 188.5q0 112 5.5 173t69.5 125t169 64q49 0 96 -19t87 -59t50.5 -95.5t10.5 -188.5q0 -112 -5.5 -173t-60.5 -116zM461 615q-26 26 -61 40.5t-74 14.5q-80 0 -125.5 -45.5t-55 -97t-9.5 -171.5
q0 -104 5.5 -159.5t40.5 -90.5t70 -49.5t74 -14.5q80 0 125.5 45.5t55 97t9.5 171.5q0 104 -5.5 159.5t-49.5 99.5zM419 780l-93 109l-93 -109h-57l123 147h54l123 -147h-57z" />
    <glyph glyph-name="Otilde" unicode="&#xd5;" horiz-adv-x="652" 
d="M504 67q-73 -73 -178 -73q-49 0 -96 19t-87 59t-50.5 95.5t-10.5 188.5q0 112 5.5 173t69.5 125t169 64q49 0 96 -19t87 -59t50.5 -95.5t10.5 -188.5q0 -112 -5.5 -173t-60.5 -116zM461 615q-26 26 -61 40.5t-74 14.5q-80 0 -125.5 -45.5t-55 -97t-9.5 -171.5
q0 -104 5.5 -159.5t40.5 -90.5t70 -49.5t74 -14.5q80 0 125.5 45.5t55 97t9.5 171.5q0 104 -5.5 159.5t-49.5 99.5zM386 795q-19 0 -33 5.5t-36.5 18.5t-31.5 17t-24 4q-16 0 -26 -5t-33 -28l-30 29q30 30 49.5 39t39.5 9q21 0 34 -5t32.5 -17t32 -17.5t26.5 -5.5
q13 0 26 6.5t33 26.5l30 -29q-30 -30 -50.5 -39t-38.5 -9z" />
    <glyph glyph-name="Odieresis" unicode="&#xd6;" horiz-adv-x="652" 
d="M504 67q-73 -73 -178 -73q-49 0 -96 19t-87 59t-50.5 95.5t-10.5 188.5q0 112 5.5 173t69.5 125t169 64q49 0 96 -19t87 -59t50.5 -95.5t10.5 -188.5q0 -112 -5.5 -173t-60.5 -116zM461 615q-26 26 -61 40.5t-74 14.5q-80 0 -125.5 -45.5t-55 -97t-9.5 -171.5
q0 -104 5.5 -159.5t40.5 -90.5t70 -49.5t74 -14.5q80 0 125.5 45.5t55 97t9.5 171.5q0 104 -5.5 159.5t-49.5 99.5zM401 790v77h58v-77h-58zM193 790v77h58v-77h-58z" />
    <glyph glyph-name="Oslash" unicode="&#xd8;" horiz-adv-x="652" 
d="M504 67q-73 -73 -178 -73q-71 0 -130 35l-35 -73h-53l49 102l-9 9q-45 45 -55.5 100.5t-10.5 188.5q0 112 5.5 173t69.5 125t169 64q71 0 130 -35l35 73h53l-49 -102l9 -9q45 -45 55.5 -100.5t10.5 -188.5q0 -112 -5.5 -173t-60.5 -116zM471 604l-253 -529
q47 -33 108 -33q80 0 125.5 45.5t55 97t9.5 171.5q0 89 -4.5 147.5t-40.5 100.5zM326 670q-80 0 -125.5 -45.5t-55 -97t-9.5 -171.5q0 -89 4.5 -147.5t40.5 -100.5l253 529q-47 33 -108 33z" />
    <glyph glyph-name="Ugrave" unicode="&#xd9;" horiz-adv-x="687" 
d="M344 -6q-108 0 -176 66t-68 171v481h54v-474q0 -88 52 -142t138 -54t138 53t52 143v474h54v-481q0 -105 -68 -171t-176 -66zM333 780l-106 147h67l97 -147h-58z" />
    <glyph glyph-name="Uacute" unicode="&#xda;" horiz-adv-x="687" 
d="M344 -6q-108 0 -176 66t-68 171v481h54v-474q0 -88 52 -142t138 -54t138 53t52 143v474h54v-481q0 -105 -68 -171t-176 -66zM355 780h-58l97 147h67z" />
    <glyph glyph-name="Ucircumflex" unicode="&#xdb;" horiz-adv-x="687" 
d="M344 -6q-108 0 -176 66t-68 171v481h54v-474q0 -88 52 -142t138 -54t138 53t52 143v474h54v-481q0 -105 -68 -171t-176 -66zM437 780l-93 109l-93 -109h-57l123 147h54l123 -147h-57z" />
    <glyph glyph-name="Udieresis" unicode="&#xdc;" horiz-adv-x="687" 
d="M344 -6q-108 0 -176 66t-68 171v481h54v-474q0 -88 52 -142t138 -54t138 53t52 143v474h54v-481q0 -105 -68 -171t-176 -66zM419 790v77h58v-77h-58zM211 790v77h58v-77h-58z" />
    <glyph glyph-name="germandbls" unicode="&#xdf;" horiz-adv-x="550" 
d="M434 34q-21 -19 -42 -26.5t-53 -7.5h-54v45h44q23 0 36 4.5t35 22t22 68.5v179q0 46 -23 68.5t-65 22.5h-49v45h39q44 0 71 28t27 74q0 53 -34 85t-105 32q-69 0 -102 -39.5t-33 -109.5v-525h-51v525q0 91 50.5 142.5t141.5 51.5q80 0 131.5 -41t51.5 -121t-63 -122
q37 -20 50.5 -47t13.5 -77v-177q0 -64 -39 -100z" />
    <glyph glyph-name="agrave" unicode="&#xe0;" horiz-adv-x="524" 
d="M380 0v48q-30 -30 -63 -42t-84 -12q-53 0 -86 10t-62 40.5t-29 87.5q0 66 44.5 102.5t123.5 36.5h156v54q0 59 -32 88.5t-104 29.5q-51 0 -80.5 -13.5t-52.5 -47.5l-37 32q29 41 69.5 57.5t100.5 16.5q94 0 140.5 -40.5t46.5 -117.5v-330h-51zM380 230h-150
q-123 0 -123 -97q0 -94 126 -94q40 0 68 7t53.5 31.5t25.5 90.5v62zM238 590l-106 147h67l97 -147h-58z" />
    <glyph glyph-name="aacute" unicode="&#xe1;" horiz-adv-x="524" 
d="M380 0v48q-30 -30 -63 -42t-84 -12q-53 0 -86 10t-62 40.5t-29 87.5q0 66 44.5 102.5t123.5 36.5h156v54q0 59 -32 88.5t-104 29.5q-51 0 -80.5 -13.5t-52.5 -47.5l-37 32q29 41 69.5 57.5t100.5 16.5q94 0 140.5 -40.5t46.5 -117.5v-330h-51zM380 230h-150
q-123 0 -123 -97q0 -94 126 -94q40 0 68 7t53.5 31.5t25.5 90.5v62zM260 590h-58l97 147h67z" />
    <glyph glyph-name="acircumflex" unicode="&#xe2;" horiz-adv-x="524" 
d="M380 0v48q-30 -30 -63 -42t-84 -12q-53 0 -86 10t-62 40.5t-29 87.5q0 66 44.5 102.5t123.5 36.5h156v54q0 59 -32 88.5t-104 29.5q-51 0 -80.5 -13.5t-52.5 -47.5l-37 32q29 41 69.5 57.5t100.5 16.5q94 0 140.5 -40.5t46.5 -117.5v-330h-51zM380 230h-150
q-123 0 -123 -97q0 -94 126 -94q40 0 68 7t53.5 31.5t25.5 90.5v62zM342 590l-93 109l-93 -109h-57l123 147h54l123 -147h-57z" />
    <glyph glyph-name="atilde" unicode="&#xe3;" horiz-adv-x="524" 
d="M380 0v48q-30 -30 -63 -42t-84 -12q-53 0 -86 10t-62 40.5t-29 87.5q0 66 44.5 102.5t123.5 36.5h156v54q0 59 -32 88.5t-104 29.5q-51 0 -80.5 -13.5t-52.5 -47.5l-37 32q29 41 69.5 57.5t100.5 16.5q94 0 140.5 -40.5t46.5 -117.5v-330h-51zM380 230h-150
q-123 0 -123 -97q0 -94 126 -94q40 0 68 7t53.5 31.5t25.5 90.5v62zM309 605q-19 0 -33 5.5t-36.5 18.5t-31.5 17t-24 4q-16 0 -26 -5t-33 -28l-30 29q30 30 49.5 39t39.5 9q21 0 34 -5t32.5 -17t32 -17.5t26.5 -5.5q13 0 26 6.5t33 26.5l30 -29q-30 -30 -50.5 -39t-38.5 -9
z" />
    <glyph glyph-name="adieresis" unicode="&#xe4;" horiz-adv-x="524" 
d="M380 0v48q-30 -30 -63 -42t-84 -12q-53 0 -86 10t-62 40.5t-29 87.5q0 66 44.5 102.5t123.5 36.5h156v54q0 59 -32 88.5t-104 29.5q-51 0 -80.5 -13.5t-52.5 -47.5l-37 32q29 41 69.5 57.5t100.5 16.5q94 0 140.5 -40.5t46.5 -117.5v-330h-51zM380 230h-150
q-123 0 -123 -97q0 -94 126 -94q40 0 68 7t53.5 31.5t25.5 90.5v62zM324 600v77h58v-77h-58zM116 600v77h58v-77h-58z" />
    <glyph glyph-name="aring" unicode="&#xe5;" horiz-adv-x="524" 
d="M380 0v48q-30 -30 -63 -42t-84 -12q-53 0 -86 10t-62 40.5t-29 87.5q0 66 44.5 102.5t123.5 36.5h156v54q0 59 -32 88.5t-104 29.5q-51 0 -80.5 -13.5t-52.5 -47.5l-37 32q29 41 69.5 57.5t100.5 16.5q94 0 140.5 -40.5t46.5 -117.5v-330h-51zM380 230h-150
q-123 0 -123 -97q0 -94 126 -94q40 0 68 7t53.5 31.5t25.5 90.5v62zM249 562q-47 0 -80.5 33.5t-33.5 81.5t33 81t81 33t81 -33t33 -81q0 -47 -33 -81t-81 -34zM249 749q-29 0 -51 -21t-22 -51t21.5 -51.5t51.5 -21.5t51.5 21.5t21.5 51.5t-21 51t-52 21z" />
    <glyph glyph-name="ae" unicode="&#xe6;" horiz-adv-x="834" 
d="M431 230q0 -92 40 -141t117 -49q75 0 133 58l38 -30q-38 -38 -77.5 -56t-97.5 -18q-122 0 -172 90q-30 -48 -71.5 -69t-107.5 -21q-53 0 -86 10t-62 40.5t-29 87.5q0 66 44.5 102.5t123.5 36.5h156v54q0 59 -32 88.5t-104 29.5q-51 0 -80.5 -13.5t-52.5 -47.5l-37 32
q29 41 69.5 57.5t100.5 16.5q136 0 173 -85q51 85 156 85q90 0 141.5 -62.5t51.5 -172.5v-23h-335zM698 362q-16 38 -49.5 59.5t-75.5 21.5t-75.5 -21.5t-46.5 -53t-16.5 -48t-3.5 -49.5h284q0 31 -3.5 48.5t-13.5 42.5zM380 230h-150q-123 0 -123 -97q0 -94 126 -94
q40 0 68 7t53.5 31.5t25.5 90.5v62z" />
    <glyph glyph-name="ccedilla" unicode="&#xe7;" horiz-adv-x="498" 
d="M281 -6q-98 0 -155 66t-57 181t57 181t155 66q52 0 85.5 -15.5t73.5 -58.5l-35 -32q-31 35 -58 48t-66 13q-84 0 -122.5 -56t-38.5 -146q0 -50 7 -80.5t38.5 -76t115.5 -45.5q39 0 66 13t58 48l35 -32q-38 -42 -73.5 -58t-85.5 -16zM244 -220h-63l72 150h55z" />
    <glyph glyph-name="egrave" unicode="&#xe8;" horiz-adv-x="523" 
d="M120 230q0 -92 40 -141t117 -49q75 0 133 58l38 -30q-38 -38 -77.5 -56t-96.5 -18q-100 0 -152.5 63.5t-52.5 183.5q0 117 51 182t142 65q90 0 141.5 -62.5t51.5 -172.5v-23h-335zM387 362q-16 38 -49.5 59.5t-75.5 21.5t-75.5 -21.5t-46.5 -53t-16.5 -48t-3.5 -49.5h284
q0 31 -3.5 48.5t-13.5 42.5zM253 590l-106 147h67l97 -147h-58z" />
    <glyph glyph-name="eacute" unicode="&#xe9;" horiz-adv-x="523" 
d="M120 230q0 -92 40 -141t117 -49q75 0 133 58l38 -30q-38 -38 -77.5 -56t-96.5 -18q-100 0 -152.5 63.5t-52.5 183.5q0 117 51 182t142 65q90 0 141.5 -62.5t51.5 -172.5v-23h-335zM387 362q-16 38 -49.5 59.5t-75.5 21.5t-75.5 -21.5t-46.5 -53t-16.5 -48t-3.5 -49.5h284
q0 31 -3.5 48.5t-13.5 42.5zM275 590h-58l97 147h67z" />
    <glyph glyph-name="ecircumflex" unicode="&#xea;" horiz-adv-x="523" 
d="M120 230q0 -92 40 -141t117 -49q75 0 133 58l38 -30q-38 -38 -77.5 -56t-96.5 -18q-100 0 -152.5 63.5t-52.5 183.5q0 117 51 182t142 65q90 0 141.5 -62.5t51.5 -172.5v-23h-335zM387 362q-16 38 -49.5 59.5t-75.5 21.5t-75.5 -21.5t-46.5 -53t-16.5 -48t-3.5 -49.5h284
q0 31 -3.5 48.5t-13.5 42.5zM357 590l-93 109l-93 -109h-57l123 147h54l123 -147h-57z" />
    <glyph glyph-name="edieresis" unicode="&#xeb;" horiz-adv-x="523" 
d="M120 230q0 -92 40 -141t117 -49q75 0 133 58l38 -30q-38 -38 -77.5 -56t-96.5 -18q-100 0 -152.5 63.5t-52.5 183.5q0 117 51 182t142 65q90 0 141.5 -62.5t51.5 -172.5v-23h-335zM387 362q-16 38 -49.5 59.5t-75.5 21.5t-75.5 -21.5t-46.5 -53t-16.5 -48t-3.5 -49.5h284
q0 31 -3.5 48.5t-13.5 42.5zM339 600v77h58v-77h-58zM131 600v77h58v-77h-58z" />
    <glyph glyph-name="igrave" unicode="&#xec;" horiz-adv-x="245" 
d="M97 0v482h51v-482h-51zM203 590l-106 147h67l97 -147h-58z" />
    <glyph glyph-name="iacute" unicode="&#xed;" horiz-adv-x="245" 
d="M97 0v482h51v-482h-51zM155 590h-58l97 147h67z" />
    <glyph glyph-name="icircumflex" unicode="&#xee;" horiz-adv-x="245" 
d="M97 0v482h51v-482h-51zM340 590l-93 109l-93 -109h-57l123 147h54l123 -147h-57z" />
    <glyph glyph-name="idieresis" unicode="&#xef;" horiz-adv-x="245" 
d="M97 0v482h51v-482h-51zM305 600v77h58v-77h-58zM97 600v77h58v-77h-58z" />
    <glyph glyph-name="ntilde" unicode="&#xf1;" horiz-adv-x="559" 
d="M417 0v299q0 144 -133 144q-64 0 -100 -38t-36 -106v-299h-51v482h51v-57q54 63 142 63q80 0 129 -47t49 -133v-308h-51zM344 605q-19 0 -33 5.5t-36.5 18.5t-31.5 17t-24 4q-16 0 -26 -5t-33 -28l-30 29q30 30 49.5 39t39.5 9q21 0 34 -5t32.5 -17t32 -17.5t26.5 -5.5
q13 0 26 6.5t33 26.5l30 -29q-30 -30 -50.5 -39t-38.5 -9z" />
    <glyph glyph-name="ograve" unicode="&#xf2;" horiz-adv-x="526" 
d="M239 590l-106 147h67l97 -147h-58zM461 47q-53 -53 -134 -53t-125 44t-56.5 93t-12.5 110q0 64 12 111t56.5 91.5t125.5 44.5t125 -44t56.5 -93t12.5 -110q0 -64 -12 -111t-48 -83zM427 402q-41 41 -100 41t-90 -31t-42 -66t-11 -105t10.5 -104.5t42 -66t90.5 -31.5
t90 31t42 66t11 105t-10.5 104.5t-32.5 56.5z" />
    <glyph glyph-name="oacute" unicode="&#xf3;" horiz-adv-x="526" 
d="M397 47q-53 -53 -134 -53t-125 44t-56.5 93t-12.5 110q0 64 12 111t56.5 91.5t125.5 44.5t125 -44t56.5 -93t12.5 -110q0 -64 -12 -111t-48 -83zM363 402q-41 41 -100 41t-90 -31t-42 -66t-11 -105t10.5 -104.5t42 -66t90.5 -31.5t90 31t42 66t11 105t-10.5 104.5
t-32.5 56.5zM274 590h-58l97 147h67z" />
    <glyph glyph-name="ocircumflex" unicode="&#xf4;" horiz-adv-x="526" 
d="M397 47q-53 -53 -134 -53t-125 44t-56.5 93t-12.5 110q0 64 12 111t56.5 91.5t125.5 44.5t125 -44t56.5 -93t12.5 -110q0 -64 -12 -111t-48 -83zM363 402q-41 41 -100 41t-90 -31t-42 -66t-11 -105t10.5 -104.5t42 -66t90.5 -31.5t90 31t42 66t11 105t-10.5 104.5
t-32.5 56.5zM356 590l-93 109l-93 -109h-57l123 147h54l123 -147h-57z" />
    <glyph glyph-name="otilde" unicode="&#xf5;" horiz-adv-x="526" 
d="M397 47q-53 -53 -134 -53t-125 44t-56.5 93t-12.5 110q0 64 12 111t56.5 91.5t125.5 44.5t125 -44t56.5 -93t12.5 -110q0 -64 -12 -111t-48 -83zM363 402q-41 41 -100 41t-90 -31t-42 -66t-11 -105t10.5 -104.5t42 -66t90.5 -31.5t90 31t42 66t11 105t-10.5 104.5
t-32.5 56.5zM323 605q-19 0 -33 5.5t-36.5 18.5t-31.5 17t-24 4q-16 0 -26 -5t-33 -28l-30 29q30 30 49.5 39t39.5 9q21 0 34 -5t32.5 -17t32 -17.5t26.5 -5.5q13 0 26 6.5t33 26.5l30 -29q-30 -30 -50.5 -39t-38.5 -9z" />
    <glyph glyph-name="odieresis" unicode="&#xf6;" horiz-adv-x="526" 
d="M397 47q-53 -53 -134 -53t-125 44t-56.5 93t-12.5 110q0 64 12 111t56.5 91.5t125.5 44.5t125 -44t56.5 -93t12.5 -110q0 -64 -12 -111t-48 -83zM363 402q-41 41 -100 41t-90 -31t-42 -66t-11 -105t10.5 -104.5t42 -66t90.5 -31.5t90 31t42 66t11 105t-10.5 104.5
t-32.5 56.5zM338 600v77h58v-77h-58zM130 600v77h58v-77h-58z" />
    <glyph glyph-name="divide" unicode="&#xf7;" 
d="M222 397v70h70v-70h-70zM53 240v47h408v-47h-408zM222 60v70h70v-70h-70z" />
    <glyph glyph-name="oslash" unicode="&#xf8;" horiz-adv-x="526" 
d="M397 47q-53 -53 -134 -53q-59 0 -105 29l-40 -67h-48l56 94q-32 34 -44.5 83t-12.5 108q0 64 12 111t56.5 91.5t125.5 44.5q60 0 105 -30l40 68h48l-56 -94q32 -34 44.5 -83t12.5 -108q0 -64 -12 -111t-48 -83zM374 389l-192 -325q36 -25 81 -25q59 0 90 31t42 66t11 105
q0 52 -5.5 85.5t-26.5 62.5zM263 443q-59 0 -90 -31t-42 -66t-11 -105q0 -52 5.5 -85.5t26.5 -62.5l192 325q-36 25 -81 25z" />
    <glyph glyph-name="ugrave" unicode="&#xf9;" horiz-adv-x="559" 
d="M411 0v57q-54 -63 -142 -63q-80 0 -129 47t-49 133v308h51v-299q0 -144 133 -144q64 0 100 38t36 106v299h51v-482h-51zM265 590l-106 147h67l97 -147h-58z" />
    <glyph glyph-name="uacute" unicode="&#xfa;" horiz-adv-x="559" 
d="M411 0v57q-54 -63 -142 -63q-80 0 -129 47t-49 133v308h51v-299q0 -144 133 -144q64 0 100 38t36 106v299h51v-482h-51zM287 590h-58l97 147h67z" />
    <glyph glyph-name="ucircumflex" unicode="&#xfb;" horiz-adv-x="559" 
d="M411 0v57q-54 -63 -142 -63q-80 0 -129 47t-49 133v308h51v-299q0 -144 133 -144q64 0 100 38t36 106v299h51v-482h-51zM369 590l-93 109l-93 -109h-57l123 147h54l123 -147h-57z" />
    <glyph glyph-name="udieresis" unicode="&#xfc;" horiz-adv-x="559" 
d="M411 0v57q-54 -63 -142 -63q-80 0 -129 47t-49 133v308h51v-299q0 -144 133 -144q64 0 100 38t36 106v299h51v-482h-51zM351 600v77h58v-77h-58zM143 600v77h58v-77h-58z" />
    <glyph glyph-name="ydieresis" unicode="&#xff;" horiz-adv-x="430" 
d="M192 -131q-14 -39 -32 -55.5t-42 -24t-50 -7.5h-24v45h19q40 0 57 14t31 52l39 107l-176 482h56l145 -422l145 422h56zM290 600v77h58v-77h-58zM82 600v77h58v-77h-58z" />
    <glyph glyph-name="dotlessi" unicode="&#x131;" horiz-adv-x="245" 
d="M97 0v482h51v-482h-51z" />
    <glyph glyph-name="OE" unicode="&#x152;" horiz-adv-x="997" 
d="M516 0v85q-73 -91 -190 -91q-49 0 -96 19t-87 59t-50.5 95.5t-10.5 188.5q0 112 5.5 173t69.5 125t169 64q117 0 190 -91v85h422v-47h-369l1 -285h313v-42h-313l-1 -291h372v-47h-425zM461 615q-26 26 -61 40.5t-74 14.5q-80 0 -125.5 -45.5t-55 -97t-9.5 -171.5
q0 -104 5.5 -159.5t40.5 -90.5t70 -49.5t74 -14.5q80 0 125.5 45.5t55 97t9.5 171.5q0 104 -5.5 159.5t-49.5 99.5z" />
    <glyph glyph-name="oe" unicode="&#x153;" horiz-adv-x="860" 
d="M457 230q0 -92 40 -141t117 -49q75 0 133 58l38 -30q-38 -38 -77.5 -56t-96.5 -18q-129 0 -178 105q-23 -50 -68 -77.5t-102 -27.5q-81 0 -125 44t-56.5 93t-12.5 110q0 64 12 111t56.5 91.5t125.5 44.5q57 0 102 -27.5t68 -77.5q49 105 166 105q90 0 141.5 -62.5
t51.5 -172.5v-23h-335zM724 362q-16 38 -49.5 59.5t-75.5 21.5t-75.5 -21.5t-46.5 -53t-16.5 -48t-3.5 -49.5h284q0 31 -3.5 48.5t-13.5 42.5zM363 402q-41 41 -100 41t-90 -31t-42 -66t-11 -105t10.5 -104.5t42 -66t90.5 -31.5t90 31t42 66t11 105t-10.5 104.5t-32.5 56.5z
" />
    <glyph glyph-name="Ydieresis" unicode="&#x178;" horiz-adv-x="494" 
d="M274 295v-295h-54v295l-210 417h58l181 -360l177 360h58zM322 790v77h58v-77h-58zM114 790v77h58v-77h-58z" />
    <glyph glyph-name="florin" unicode="&#x192;" horiz-adv-x="394" 
d="M321 667q-74 0 -88 -80l-36 -207h109v-38h-116l-101 -572h-51l101 572h-109v38h116l36 206q10 56 46 91t92 35h44v-45h-43z" />
    <glyph glyph-name="hungarumlaut" unicode="&#x2ba;" horiz-adv-x="500" 
d="M334 590h-57l97 147h67zM188 590h-58l97 147h67z" />
    <glyph glyph-name="caron" unicode="&#x2c7;" horiz-adv-x="500" 
d="M277 590h-54l-123 147h57l93 -109l93 109h57z" />
    <glyph glyph-name="macron" unicode="&#x2c9;" horiz-adv-x="500" 
d="M102 608v46h296v-46h-296z" />
    <glyph glyph-name="breve" unicode="&#x2d8;" horiz-adv-x="500" 
d="M252 587q-79 0 -119.5 34.5t-47.5 100.5h47q6 -42 37 -66t83 -24q51 0 82.5 23.5t37.5 66.5h43q-7 -66 -45.5 -100.5t-117.5 -34.5z" />
    <glyph glyph-name="dotaccent" unicode="&#x2d9;" horiz-adv-x="500" 
d="M219 643v63h62v-63h-62z" />
    <glyph glyph-name="ring" unicode="&#x2da;" horiz-adv-x="500" 
d="M250 562q-47 0 -80.5 33.5t-33.5 81.5t33 81t81 33t81 -33t33 -81q0 -47 -33 -81t-81 -34zM250 749q-29 0 -51 -21t-22 -51t21.5 -51.5t51.5 -21.5t51.5 21.5t21.5 51.5t-21 51t-52 21z" />
    <glyph glyph-name="ogonek" unicode="&#x2db;" horiz-adv-x="500" 
d="M256 -220l-64 150h55l72 -150h-63z" />
    <glyph glyph-name="circumflex" unicode="&#x302;" horiz-adv-x="500" 
d="M343 590l-93 109l-93 -109h-57l123 147h54l123 -147h-57z" />
    <glyph glyph-name="tilde" unicode="&#x303;" horiz-adv-x="500" 
d="M310 605q-19 0 -33 5.5t-36.5 18.5t-31.5 17t-24 4q-16 0 -26 -5t-33 -28l-30 29q30 30 49.5 39t39.5 9q21 0 34 -5t32.5 -17t32 -17.5t26.5 -5.5q13 0 26 6.5t33 26.5l30 -29q-30 -30 -50.5 -39t-38.5 -9z" />
    <glyph glyph-name="summation" unicode="&#x3a3;" horiz-adv-x="551" 
d="M63 -230v48l207 461l-207 433v48h432v-48h-371l195 -409v-48l-195 -437h371v-48h-432z" />
    <glyph glyph-name="Omega" unicode="&#x3a9;" horiz-adv-x="652" 
d="M384 0v47q37 18 61.5 37.5t42.5 49t23 78t5 144.5q0 104 -5.5 159.5t-40.5 90.5t-70 49.5t-74 14.5q-80 0 -125.5 -45.5t-55 -97t-9.5 -171.5q0 -93 4.5 -142.5t23 -79.5t42.5 -49.5t62 -37.5v-47h-186v47h91q-42 33 -61 68.5t-24.5 85.5t-5.5 113v42q0 112 5.5 173
t69.5 125t169 64q49 0 96 -19t87 -59t50.5 -95.5t10.5 -188.5v-33q0 -74 -5 -122t-24.5 -84.5t-61.5 -69.5h91v-47h-186z" />
    <glyph glyph-name="pi" unicode="&#x3c0;" horiz-adv-x="591" 
d="M433 0v437h-275v-437h-48v482h371v-482h-48z" />
    <glyph glyph-name="endash" unicode="&#x2013;" 
d="M53 240v47h408v-47h-408z" />
    <glyph glyph-name="emdash" unicode="&#x2014;" horiz-adv-x="873" 
d="M82 240v47h709v-47h-709z" />
    <glyph glyph-name="quoteleft" unicode="&#x2018;" horiz-adv-x="260" 
d="M95 642v70l70 70v-140h-70z" />
    <glyph glyph-name="quoteright" unicode="&#x2019;" horiz-adv-x="260" 
d="M95 572v140h70v-70z" />
    <glyph glyph-name="quotesinglbase" unicode="&#x201a;" horiz-adv-x="260" 
d="M95 -70v140h70v-70z" />
    <glyph glyph-name="quotedblleft" unicode="&#x201c;" horiz-adv-x="416" 
d="M251 642v70l70 70v-140h-70zM95 642v70l70 70v-140h-70z" />
    <glyph glyph-name="quotedblright" unicode="&#x201d;" horiz-adv-x="416" 
d="M251 572v140h70v-70zM95 572v140h70v-70z" />
    <glyph glyph-name="quotedblbase" unicode="&#x201e;" horiz-adv-x="416" 
d="M251 -70v140h70v-70zM95 -70v140h70v-70z" />
    <glyph glyph-name="dagger" unicode="&#x2020;" horiz-adv-x="614" 
d="M331 457v-457h-51v457h-200v45h200v210h51v-210h203v-45h-203z" />
    <glyph glyph-name="daggerdbl" unicode="&#x2021;" horiz-adv-x="614" 
d="M331 -20v-210h-51v210h-200v45h200v432h-200v45h200v210h51v-210h203v-45h-203v-432h203v-45h-203z" />
    <glyph glyph-name="bullet" unicode="&#x2022;" horiz-adv-x="546" 
d="M273 171q-68 0 -115.5 47.5t-47.5 115.5t47.5 115.5t115.5 47.5t115.5 -47.5t47.5 -115.5t-47.5 -115.5t-115.5 -47.5z" />
    <glyph glyph-name="ellipsis" unicode="&#x2026;" horiz-adv-x="724" 
d="M555 0v74h74v-74h-74zM325 0v74h74v-74h-74zM95 0v74h74v-74h-74z" />
    <glyph glyph-name="perthousand" unicode="&#x2030;" horiz-adv-x="1168" 
d="M968 -7q-59 0 -95.5 37.5t-36.5 96.5v107q0 60 36 97t96 37q58 0 94.5 -37.5t36.5 -96.5v-107q0 -60 -36 -97t-95 -37zM628 -7q-59 0 -95.5 37.5t-36.5 96.5v107q0 60 36 97t96 37q58 0 94.5 -37.5t36.5 -96.5v-107q0 -60 -36 -97t-95 -37zM271 0h-45l332 712h45z
M201 345q-58 0 -95 37t-37 96v107q0 60 36 97t96 37q58 0 94.5 -37.5t36.5 -96.5v-107q0 -59 -36 -96t-95 -37zM1055 232q0 46 -21 72t-66 26t-66.5 -25.5t-21.5 -72.5v-103q0 -47 21 -72.5t67 -25.5q45 0 66 25t21 72v104zM715 232q0 46 -21 72t-66 26t-66.5 -25.5
t-21.5 -72.5v-103q0 -47 21.5 -72.5t66.5 -25.5t66 26t21 72v103zM288 583q0 46 -21 72t-66 26t-66.5 -25.5t-21.5 -72.5v-103q0 -47 21 -72t67 -25q87 0 87 97v103z" />
    <glyph glyph-name="guilsinglleft" unicode="&#x2039;" horiz-adv-x="320" 
d="M42 265l196 196v-66l-130 -130l130 -130v-66z" />
    <glyph glyph-name="guilsinglright" unicode="&#x203a;" horiz-adv-x="320" 
d="M82 69v66l130 130l-130 130v66l196 -196z" />
    <glyph glyph-name="trademark" unicode="&#x2122;" horiz-adv-x="809" 
d="M709 285v328l-110 -218h-46l-110 218v-328h-44v427h44l133 -270l133 270h44v-427h-44zM198 671v-386h-44v386h-122v41h288v-41h-122z" />
    <glyph glyph-name="partialdiff" unicode="&#x2202;" horiz-adv-x="540" 
d="M385 47q-51 -53 -129 -53t-120 44t-54.5 93.5t-12.5 109.5q0 69 11.5 115.5t40 75t60 42.5t68.5 14q45 0 79.5 -14.5t63.5 -53.5v86q0 75 -36.5 121t-109.5 46q-35 0 -59.5 -8t-65.5 -45l-33 33q40 35 73.5 50t84.5 15q93 0 145 -57t52 -152v-268q0 -63 -12 -110.5
t-46 -83.5zM351 402q-39 41 -95 41t-88.5 -34t-40 -73t-7.5 -95q0 -69 10.5 -104.5t40 -66.5t85.5 -31t88.5 34t40 73t7.5 95q0 69 -10.5 104.5t-30.5 56.5z" />
    <glyph glyph-name="Delta" unicode="&#x2206;" horiz-adv-x="591" 
d="M10 0l262 712h47l262 -712h-571zM295 640l-215 -592h431z" />
    <glyph glyph-name="product" unicode="&#x220f;" horiz-adv-x="699" 
d="M535 -230v942h-371v-942h-54v990h479v-990h-54z" />
    <glyph glyph-name="fraction" unicode="&#x2215;" horiz-adv-x="177" 
d="M-55 0h-45l332 712h45z" />
    <glyph glyph-name="periodcentered" unicode="&#x2219;" horiz-adv-x="264" 
d="M95 227v74h74v-74h-74z" />
    <glyph glyph-name="radical" unicode="&#x221a;" horiz-adv-x="550" 
d="M432 664l-217 -664h-46l-159 482h56l126 -387l199 617h129v-48h-88z" />
    <glyph glyph-name="infinity" unicode="&#x221e;" horiz-adv-x="792" 
d="M573 112q-51 0 -90 24.5t-87 83.5q-47 -58 -87 -83.5t-89 -25.5q-65 0 -106.5 42.5t-41.5 106.5q0 65 41.5 107.5t106.5 42.5q48 0 88.5 -25.5t87.5 -84.5q49 61 87.5 85.5t89.5 24.5q64 0 105.5 -42.5t41.5 -107.5q0 -64 -41 -106t-106 -42zM569 363q-37 0 -67.5 -24.5
t-75.5 -78.5q45 -55 75 -78.5t68 -23.5q45 0 74 28t29 74t-28.5 74.5t-74.5 28.5zM223 365q-46 0 -74.5 -29.5t-28.5 -75.5t28 -74t75 -28q38 0 68 23.5t75 78.5q-45 55 -75.5 80t-67.5 25z" />
    <glyph glyph-name="integral" unicode="&#x222b;" horiz-adv-x="329" 
d="M264 667q-74 0 -74 -80v-691q0 -57 -30 -91.5t-86 -34.5h-44v45h35q74 0 74 80v691q0 57 30 91.5t86 34.5h44v-45h-35z" />
    <glyph glyph-name="approxequal" unicode="&#x2248;" 
d="M345 295q-25 0 -44.5 7.5t-53.5 22t-48.5 19.5t-31.5 5q-23 0 -38 -7.5t-45 -37.5l-31 31q39 39 62 50.5t54 11.5q25 0 44.5 -7.5t53.5 -22t48.5 -19.5t31.5 -5q23 0 38 7.5t45 37.5l31 -31q-39 -39 -62 -50.5t-54 -11.5zM345 135q-25 0 -44.5 7.5t-53.5 22t-48.5 19.5
t-31.5 5q-23 0 -38 -7.5t-45 -37.5l-31 31q39 39 62 50.5t54 11.5q25 0 44.5 -7.5t53.5 -22t48.5 -19.5t31.5 -5q23 0 38 7.5t45 37.5l31 -31q-39 -39 -62 -50.5t-54 -11.5z" />
    <glyph glyph-name="notequal" unicode="&#x2260;" 
d="M190 163l-104 -104l-33 33l71 71h-71v47h118l106 106h-224v47h271l104 104l33 -33l-71 -71h71v-47h-118l-106 -106h224v-47h-271z" />
    <glyph glyph-name="lessequal" unicode="&#x2264;" horiz-adv-x="1027" 
d="M819 -77l-580 579v-536l-48 48v572h571l49 -49h-536l579 -579z" />
    <glyph glyph-name="greaterequal" unicode="&#x2265;" horiz-adv-x="1027" 
d="M788 -34v536l-580 -579l-35 35l579 579h-536l49 49h571v-572z" />
    <glyph glyph-name="lozenge" unicode="&#x25ca;" horiz-adv-x="654" 
d="M327 -7l-255 363l255 363l255 -363zM327 641l-198 -285l198 -287l198 287z" />
    <glyph glyph-name="fi" unicode="&#xf001;" horiz-adv-x="547" 
d="M393 649v63h63v-63h-63zM399 0v482h51v-482h-51zM163 444v-444h-51v444h-66v38h66v104q0 57 30 91.5t86 34.5h44v-45h-35q-74 0 -74 -80v-105h109v-38h-109z" />
    <glyph glyph-name="fl" unicode="&#xf002;" horiz-adv-x="586" 
d="M510 0q-57 0 -86.5 33.5t-29.5 91.5v587h51v-586q0 -43 16 -62t58 -19h35v-45h-44zM163 444v-444h-51v444h-66v38h66v104q0 57 30 91.5t86 34.5h44v-45h-35q-74 0 -74 -80v-105h109v-38h-109z" />
    <glyph glyph-name="Lslash" horiz-adv-x="578" 
d="M116 0v306l-76 -48v48l76 48v358h54v-324l164 104v-48l-164 -104v-292h378v-48h-432z" />
    <glyph glyph-name="lslash" horiz-adv-x="308" 
d="M222 0q-57 0 -86.5 33.5t-29.5 91.5v231l-66 -41v45l66 41v311h51v-279l88 55v-45l-88 -55v-262q0 -43 16 -62t58 -19h35v-45h-44z" />
    <glyph glyph-name="Scaron" horiz-adv-x="587" 
d="M288 -6q-80 0 -133 21.5t-104 72.5l38 38q47 -47 92 -65.5t110 -18.5q85 0 134 39t49 108q0 65 -29.5 91t-48.5 33t-64 14l-83 13q-81 12 -132 55.5t-51 127.5q0 89 59 142t162 53q65 0 111 -17.5t94 -59.5l-35 -35q-38 34 -75.5 50t-97.5 16q-77 0 -121 -39t-44 -108
q0 -62 39 -94.5t104 -42.5l77 -12q52 -8 77 -17t68.5 -45t43.5 -123q0 -90 -64.5 -143.5t-175.5 -53.5zM314 780h-54l-123 147h57l93 -109l93 109h57z" />
    <glyph glyph-name="scaron" horiz-adv-x="494" 
d="M245 -6q-123 0 -195 69l35 35q56 -59 158 -59q145 0 145 98q0 72 -92 81l-80 7q-71 0 -108 34t-37 92q0 63 47 100t126 37q50 0 93 -13t76 -38l-34 -34q-56 41 -135 41q-59 0 -91 -24t-32 -69q0 -72 98 -81l78 -7q68 -6 104.5 -33t36.5 -93q0 -65 -52.5 -104t-140.5 -39z
M271 590h-54l-123 147h57l93 -109l93 109h57z" />
    <glyph glyph-name="Zcaron" horiz-adv-x="559" 
d="M63 0v57l375 607h-360v48h418v-48l-378 -616h378v-48h-433zM314 780h-54l-123 147h57l93 -109l93 109h57z" />
    <glyph glyph-name="zcaron" horiz-adv-x="452" 
d="M54 0v48l290 389h-274v45h328v-48l-291 -389h291v-45h-344zM261 590h-54l-123 147h57l93 -109l93 109h57z" />
    <glyph glyph-name="brokenbar" horiz-adv-x="328" 
d="M133 436v350h51v-350h-51zM133 -74v350h51v-350h-51z" />
    <glyph glyph-name="Eth" horiz-adv-x="689" 
d="M569 113q-32 -51 -86 -82t-129 -31h-233v338h-81v42h81v332h240q141 0 187 -79t52.5 -119.5t6.5 -157.5q0 -123 -7 -164.5t-31 -78.5zM513 586q-31 42 -71 60.5t-95 18.5h-172v-285h178v-42h-178v-291h172q59 0 101.5 19.5t68 58t31 77.5t5.5 149q0 91 -3.5 140.5
t-36.5 94.5z" />
    <glyph glyph-name="glyph233" horiz-adv-x="526" 
d="M397 47q-53 -53 -134 -53t-125 44t-56.5 93t-12.5 110q0 64 12 111t56.5 91.5t125.5 44.5q19 0 40 -4t35 -13l-67 113h-117v38h95l-53 90h53l52 -90h79v-38h-57l72 -123q38 -66 50 -110t12 -110q0 -64 -12 -111t-48 -83zM363 402q-41 41 -100 41t-90 -31t-42 -66
t-11 -105t10.5 -104.5t42 -66t90.5 -31.5t90 31t42 66t11 105t-10.5 104.5t-32.5 56.5z" />
    <glyph glyph-name="Yacute" horiz-adv-x="494" 
d="M274 295v-295h-54v295l-210 417h58l181 -360l177 360h58zM258 780h-58l97 147h67z" />
    <glyph glyph-name="yacute" horiz-adv-x="430" 
d="M192 -131q-14 -39 -32 -55.5t-42 -24t-50 -7.5h-24v45h19q40 0 57 14t31 52l39 107l-176 482h56l145 -422l145 422h56zM226 590h-58l97 147h67z" />
    <glyph glyph-name="Thorn" horiz-adv-x="646" 
d="M371 154h-207v-154h-54v712h54v-148h207q96 0 155.5 -54t59.5 -151q0 -95 -60 -150t-155 -55zM365 516h-201v-314h201q77 0 122 39.5t45 117.5t-45.5 117.5t-121.5 39.5z" />
    <glyph glyph-name="thorn" horiz-adv-x="540" 
d="M409 36q-19 -19 -50 -30.5t-68 -11.5q-45 0 -79.5 14.5t-63.5 53.5v-292h-51v942h51v-292q29 39 63.5 53.5t79.5 14.5q38 0 68 -11t57 -38t41 -81t14 -117q0 -67 -13.5 -118.5t-48.5 -86.5zM284 443q-80 0 -108 -55t-28 -147t27.5 -147t108.5 -55q80 0 108 55t28 147
t-27.5 147t-108.5 55z" />
    <glyph glyph-name="minus" 
d="M53 240v47h408v-47h-408z" />
    <glyph glyph-name="multiply" 
d="M412 78l-155 155l-155 -155l-31 31l155 155l-155 155l31 31l155 -155l155 155l31 -31l-155 -155l155 -155z" />
    <glyph glyph-name="onesuperior" horiz-adv-x="249" 
d="M125 285v378l-80 -71v51l80 69h44v-427h-44z" />
    <glyph glyph-name="twosuperior" horiz-adv-x="336" 
d="M50 285v40l168 213q23 30 23 62q0 35 -19.5 55.5t-53.5 20.5q-33 0 -53.5 -18t-20.5 -58h-44q0 51 32.5 83.5t85.5 32.5t85.5 -31.5t32.5 -84.5q0 -25 -8 -44.5t-26 -42.5l-149 -188h183v-40h-236z" />
    <glyph glyph-name="threesuperior" horiz-adv-x="352" 
d="M177 280q-55 0 -91 28.5t-36 85.5h45q0 -38 23.5 -56t58.5 -18q36 0 58.5 21.5t22.5 60.5q0 81 -84 81h-8v39h8q38 0 57 20t19 57q0 38 -20 57.5t-54 19.5q-33 0 -53 -19t-23 -51h-44q0 51 34 80.5t86 29.5q53 0 85.5 -31.5t32.5 -84.5q0 -69 -57 -95q65 -24 65 -103
q0 -58 -35 -90t-90 -32z" />
    <glyph glyph-name="onehalf" horiz-adv-x="764" 
d="M478 0v40l168 213q23 30 23 62q0 35 -19.5 55.5t-53.5 20.5q-33 0 -53.5 -18t-20.5 -58h-44q0 51 32.5 83.5t85.5 32.5t85.5 -31.5t32.5 -84.5q0 -25 -7.5 -43.5t-26.5 -43.5l-149 -188h183v-40h-236zM198 0h-45l332 712h45zM125 285v378l-80 -71v51l80 69h44v-427h-44z
" />
    <glyph glyph-name="onequarter" horiz-adv-x="756" 
d="M664 67v-67h-44v67h-170v40l154 320h47l-153 -320h122v120h44v-120h52v-40h-52zM213 0h-45l332 712h45zM125 285v378l-80 -71v51l80 69h44v-427h-44z" />
    <glyph glyph-name="threequarters" horiz-adv-x="806" 
d="M714 67v-67h-44v67h-170v40l154 320h47l-153 -320h122v120h44v-120h52v-40h-52zM273 0h-45l332 712h45zM177 280q-55 0 -91 28.5t-36 85.5h45q0 -38 23.5 -56t58.5 -18q36 0 58.5 21.5t22.5 60.5q0 81 -84 81h-8v39h8q38 0 57 20t19 57q0 38 -20 57.5t-54 19.5
q-33 0 -53 -19t-23 -51h-44q0 51 34 80.5t86 29.5q53 0 85.5 -31.5t32.5 -84.5q0 -69 -57 -95q65 -24 65 -103q0 -58 -35 -90t-90 -32z" />
  </font>
</defs>
</svg>
