<?xml version="1.0" standalone="no"?>
<!DOCTYPE svg PUBLIC "-//W3C//DTD SVG 1.1//EN" "http://www.w3.org/Graphics/SVG/1.1/DTD/svg11.dtd" >
<svg xmlns="http://www.w3.org/2000/svg">
<metadata></metadata>
<defs>
<font id="urwclarendontextwidbold" horiz-adv-x="1421" >
<font-face units-per-em="2048" ascent="1610" descent="-438" />
<missing-glyph horiz-adv-x="512" />
<glyph horiz-adv-x="2048" />
<glyph horiz-adv-x="2048" />
<glyph unicode="&#xd;" horiz-adv-x="2048" />
<glyph unicode=" "  horiz-adv-x="512" />
<glyph unicode="&#x09;" horiz-adv-x="512" />
<glyph unicode="&#xa0;" horiz-adv-x="512" />
<glyph unicode="!" horiz-adv-x="727" d="M209 1173q0 112 71 184q50 49 146 49q90 0 149 -61q54 -56 54 -150q0 -139 -39 -332q-40 -196 -51 -293q-5 -52 -13 -143h-208q-10 72 -12 95q-16 129 -23 171q-4 24 -36 184q-38 195 -38 296zM232 130q0 75 55 124q57 50 138 50q75 0 130 -50q55 -52 55 -123 q0 -72 -55 -121q-57 -50 -134 -50t-134 50q-55 48 -55 120z" />
<glyph unicode="&#x22;" horiz-adv-x="974" d="M63 1365h373l-64 -547h-246zM539 1365h372l-64 -547h-246z" />
<glyph unicode="#" d="M44 379l38 227h231l31 181h-228l38 227h228l60 351h282l-65 -351h208l63 351h284l-62 -351h227l-38 -227h-227l-32 -181h231l-38 -227h-230l-67 -379h-292l71 379h-204l-68 -379h-278l67 379h-230zM593 606h204l32 181h-205z" />
<glyph unicode="$" d="M100 275q0 92 75 141q54 36 130 36q89 0 143 -53q41 -39 41 -92q0 -56 -46 -87q-26 -17 -88 -27q91 -46 155 -54q43 -4 144 -8v341q-222 42 -331 90q-94 42 -143 113q-56 80 -56 178q0 189 195 301q73 42 164 61q57 12 171 23v137h148v-139q150 -11 226 -32 q151 -43 215 -119q48 -57 48 -121q0 -61 -43 -104q-48 -48 -138 -48q-92 0 -138 50q-35 38 -35 86q0 65 73 99q-64 29 -104 36q-30 7 -104 9v-327q168 -32 243 -57q289 -95 289 -322q0 -211 -221 -320q-113 -56 -311 -68v-222h-148v222q-44 -1 -65 -1q-171 0 -295 49 q-87 34 -136 88q-58 64 -58 141zM419 952q0 -81 89 -116q43 -17 146 -35v294q-107 -11 -158 -35q-77 -35 -77 -108zM802 132q130 17 177 45q70 41 70 109q0 70 -78 105q-47 20 -169 43v-302z" />
<glyph unicode="%" horiz-adv-x="2148" d="M67 880q0 175 109 278q123 116 319 116q187 0 308 -116q108 -105 108 -275t-109 -276q-120 -116 -313 -116q-194 0 -314 116q-108 105 -108 273zM312 884q0 -140 49 -205q37 -50 128 -50q89 0 128 50q49 64 49 202q0 141 -49 204q-39 51 -131 51q-86 0 -125 -51 q-49 -64 -49 -201zM550 -36l842 1312h197l-840 -1312h-199zM1227 355q0 174 109 276q123 117 319 117q186 0 308 -117q108 -104 108 -273q0 -171 -109 -276q-120 -117 -313 -117q-194 0 -314 117q-108 105 -108 273zM1472 357q0 -138 49 -204q37 -50 128 -50q89 0 128 50 q49 64 49 200q0 143 -49 206q-39 50 -131 50q-86 0 -125 -50q-49 -64 -49 -202z" />
<glyph unicode="&#x26;" horiz-adv-x="1991" d="M87 387q0 164 103 278q59 64 134 107q44 25 135 61q-29 55 -47 98q-26 65 -26 136q0 144 108 236q117 99 285 99t278 -93q95 -80 95 -211q0 -109 -76 -200q-45 -54 -166 -130q173 -228 279 -335q128 127 128 191q0 53 -119 53q-17 0 -51 -3v175h641v-175h-23 q-116 0 -166 -40q-31 -25 -63 -77l-60 -96q-50 -80 -137 -186q72 -65 114 -83q33 -14 61 -14q52 0 90.5 29t52.5 79q16 56 17 191h208q1 -57 1 -85q0 -214 -101 -315q-71 -72 -204 -101q-79 -17 -152 -17q-79 0 -160 26q-72 22 -190 88q-143 -74 -243 -94q-95 -20 -197 -20 q-244 0 -383 102q-166 121 -166 326zM424 435q0 -120 102 -201q85 -67 199 -67q77 0 191 52q-87 80 -128 132q-137 175 -213 286q-74 -47 -104 -82q-47 -54 -47 -120zM674 1127q0 -43 40 -103q12 -17 37 -46.5t28 -28.5q90 31 124 65q47 47 47 105q0 51 -46 80 q-34 21 -87 21q-43 0 -76 -12q-67 -25 -67 -81z" />
<glyph unicode="'" horiz-adv-x="509" d="M63 1365h384l-64 -547h-257z" />
<glyph unicode="(" horiz-adv-x="906" d="M67 513q0 269 81 439q110 233 329 352q80 43 179 64q75 16 187 29v-175q-181 -47 -255 -120q-151 -149 -151 -579q0 -363 87 -541q50 -102 152 -152q65 -31 167 -56v-174q-198 14 -310 64q-223 100 -356 327q-58 99 -84 222t-26 300z" />
<glyph unicode=")" horiz-adv-x="906" d="M67 -226q167 41 240 105q166 145 166 644q0 300 -75 468q-49 111 -149 165q-67 36 -182 66v175q137 -15 217.5 -35.5t148.5 -57.5q219 -119 329 -352q81 -170 81 -439q0 -260 -58 -414q-59 -159 -191 -287q-140 -136 -314 -182q-73 -20 -213 -30v174z" />
<glyph unicode="*" horiz-adv-x="1119" d="M111 1114q0 60 49 102q32 27 83 27q53 0 89 -35q19 -20 57 -73q43 -60 71 -85q22 -20 76 -55q-10 102 -60 188q-23 40 -33 59q-14 27 -14 58q0 51 42 81q32 24 85 24q61 0 95 -32q36 -34 36 -76q0 -29 -17 -59q-3 -6 -33 -58q-42 -75 -58 -185q59 34 90 66q36 37 63 75 q48 68 67 82q37 27 78 27q55 0 94 -43q33 -37 33 -82q0 -67 -60 -94q-29 -14 -62 -16l-73 -4q-65 -4 -109.5 -14t-96.5 -32q93 -41 213 -48q80 -4 97 -8q92 -21 92 -103q0 -59 -43 -97q-37 -33 -87 -33q-53 0 -90 39q-8 9 -56 74q-40 54 -71 83.5t-76 55.5q8 -71 19 -104 q12 -33 42 -84q46 -77 46 -116q0 -52 -47 -84q-33 -22 -83 -22q-62 0 -96 31q-32 28 -32 70q0 36 16 65l33 60q51 102 59 181q-59 -32 -90 -64q-32 -32 -61 -75q-45 -65 -65 -80q-36 -28 -81 -28q-60 0 -97 44q-33 38 -33 85q0 30 18 55t46 36q32 12 135 19q77 6 114 15 q34 8 88 30q-94 43 -210 49q-84 3 -100 7q-49 12 -74 47q-18 25 -18 54z" />
<glyph unicode="+" d="M185 528v242h401v336h248v-336h402v-242h-402v-335h-248v335h-401z" />
<glyph unicode="," horiz-adv-x="638" d="M132 122q0 62 42 110q57 65 153 65q81 0 144 -46q77 -57 77 -171q0 -162 -143 -271q-62 -48 -130 -72q-44 -16 -132 -33v116q109 21 149 56q32 27 60 96q-34 -4 -61 -4q-82 0 -128 61q-31 41 -31 93z" />
<glyph unicode="-" horiz-adv-x="631" d="M0 327v306h631v-306h-631z" />
<glyph unicode="." horiz-adv-x="716" d="M168 130q0 74 55 123q58 50 139 50q75 0 129 -50q55 -51 55 -122q0 -73 -55 -122q-56 -50 -133 -50q-78 0 -135 50q-55 49 -55 121z" />
<glyph unicode="/" horiz-adv-x="874" d="M22 -189l575 1594h187l-579 -1594h-183z" />
<glyph unicode="0" d="M67 616q0 292 167 463q190 195 491 195q286 0 473 -195q86 -90 126 -200.5t40 -257.5q0 -148 -40 -259t-127 -202q-185 -195 -482 -195q-296 0 -482 195q-86 90 -126 200t-40 256zM444 620q0 -258 74 -381q58 -95 198 -95q137 0 196 95q75 120 75 375q0 269 -74 386 q-61 95 -202 95q-134 0 -192 -95q-75 -122 -75 -380z" />
<glyph unicode="1" d="M246 0v169h107q55 0 102 10t60 23q14 21 14 124v573h-283v166q145 7 199 25q68 21 108.5 53.5t72.5 94.5h261v-924q0 -98 27 -123q24 -21 148 -22h96v-169h-912z" />
<glyph unicode="2" d="M89 71q0 190 167 340q78 71 192 132q17 10 237 118q86 43 137 94q55 55 55 141q0 85 -76 137q-79 54 -210 54q-118 0 -196 -43q-43 -24 -86 -97q49 11 78 11q59 0 105 -42q42 -38 42 -95q0 -80 -68 -131q-55 -41 -143 -41q-102 0 -165 60q-66 61 -66 166q0 156 147 269 q170 131 436 131q250 0 418 -102q80 -49 129 -135q46 -81 46 -174q0 -187 -169 -294q-94 -59 -201 -90q-66 -19 -185 -50q-168 -45 -238 -86q-53 -32 -120 -102q79 36 120 48q72 20 158 20q81 0 152 -14l154 -30q19 -4 44 -4q69 0 98 49q22 38 23 126h197q1 -49 1 -74 q0 -157 -46 -240q-42 -74 -131 -116q-96 -44 -216 -44q-89 0 -163 22q-40 12 -127 44q-135 50 -205 50q-59 0 -96 -34q-14 -13 -33 -45h-191q-5 47 -5 71z" />
<glyph unicode="3" d="M99 301q0 143 122 198q53 24 109 24q81 0 139 -46q61 -49 61 -123q0 -79 -65 -122q-36 -23 -118 -29q57 -32 89.5 -44t80.5 -17q46 -6 95 -6q150 0 231 57q48 33 72 97q15 38 15 78q0 114 -109 162q-57 25 -236 33v171q140 10 203 35q107 43 107 148q0 118 -128 163 q-73 26 -162 26q-81 0 -145 -21q-38 -12 -93 -48h20q73 0 109 -31q46 -39 46 -104q0 -80 -69 -124q-52 -33 -123 -33q-90 0 -145 44q-60 49 -60 143q0 78 42.5 146t119.5 113q140 83 378 83q243 0 378 -62q199 -91 199 -267q0 -123 -96 -201q-60 -47 -189 -74 q154 -41 226 -94q116 -83 116 -221q0 -145 -109 -249q-103 -98 -307 -127q-112 -17 -251 -17q-255 0 -391 85q-162 101 -162 254z" />
<glyph unicode="4" d="M90 377v196l709 665h307v-682h233v-179h-233v-124q1 -54 27 -65q44 -19 143 -19h63v-169h-830v169h64q157 2 175 35q10 15 10 90v83h-668zM314 556h444l3 397z" />
<glyph unicode="5" d="M118 311q0 106 78 166q60 46 151 46t148 -48q56 -46 56 -122q0 -58 -40 -99q-40 -42 -140 -55q85 -45 142 -57q45 -9 89 -9q147 0 233 83q85 82 85 222q0 157 -103 225q-70 46 -174 46q-67 0 -127 -20q-41 -14 -93 -61h-214l39 639q292 -35 511 -35q144 0 203 8l208 28 q6 1 16 1q45 0 45 -37q0 -34 -34 -75t-87 -71q-172 -97 -450 -97q-82 0 -224 20l-8 -179q87 36 133 48q70 18 167 18q230 0 398 -109q182 -117 182 -347q0 -268 -265 -399q-159 -78 -376 -78q-156 0 -281 42q-171 57 -235 177q-33 62 -33 129z" />
<glyph unicode="6" d="M101 584q0 187 74 343q102 213 299 293q134 54 316 54q226 0 357 -83q54 -34 85 -84.5t31 -102.5q0 -97 -90 -146q-53 -29 -123 -29q-76 0 -128 33q-66 41 -66 121q0 34 16 62q17 27 70 53q-74 21 -112 21q-96 0 -180 -54q-92 -60 -118 -179q-14 -65 -20 -211 q103 57 177 75q66 15 138 15q157 0 287 -62q200 -94 200 -327q0 -186 -157 -296q-167 -116 -418 -116q-316 0 -488 188q-150 166 -150 432zM491 361q0 -50 18 -99.5t47 -77.5q58 -57 165 -57t168 63q55 58 55 157q0 117 -56 180q-58 66 -169 66q-91 0 -152 -53 q-76 -65 -76 -179z" />
<glyph unicode="7" d="M112 664v574h184v-150q82 91 140 122q80 42 186 42q114 0 247 -51q121 -45 163 -45q30 0 57.5 11.5t36.5 28.5q5 12 5 42h177q0 -79 -5 -107q-10 -57 -62 -140q-37 -60 -92 -139q-145 -210 -186 -280q-128 -215 -130 -572h-421q-1 35 -1 53q0 145 51 298q40 122 111 210 q49 59 162 158q193 168 267 251q-75 -30 -127 -36q-40 -5 -84 -5q-64 0 -178 18q-78 13 -131 13q-94 0 -145 -63q-44 -54 -44 -152q0 -31 3 -81h-184z" />
<glyph unicode="8" d="M88 325q0 106 82 187q46 45 98 69q33 15 87 32q-78 42 -117 79q-93 87 -93 209q0 85 47.5 162t131.5 128q139 85 386 85q201 0 353 -57q90 -34 150 -105q53 -62 53 -145q0 -94 -79 -161q-43 -36 -152 -81q121 -44 184 -93q124 -96 124 -259q0 -182 -164 -292 q-93 -62 -209 -90t-278 -28q-342 0 -491 125q-113 95 -113 235zM340 332q0 -123 148 -175q91 -32 204 -32q146 0 232 35q52 22 80 74q12 23 12 49q0 39 -30.5 67.5t-100.5 55.5q-107 41 -228 80.5t-129 36.5q-113 -48 -150 -92q-38 -45 -38 -99zM463 986q0 -71 109 -110 q21 -8 153 -43l134 -35q99 43 131 87q25 36 25 74q0 37 -25.5 69.5t-67.5 49.5q-80 33 -197 33q-113 0 -177 -26q-85 -35 -85 -99z" />
<glyph unicode="9" d="M99 862q0 186 157 296q167 116 417 116q317 0 489 -189q150 -164 150 -431q0 -187 -75 -343q-101 -213 -298 -293q-133 -54 -315 -54q-227 0 -359 82q-53 34 -84 84.5t-31 104.5q0 96 90 144q52 29 123 29q76 0 127 -32q66 -41 66 -122q0 -34 -16 -61t-70 -54 q75 -21 113 -21q95 0 180 55q92 59 118 179q14 66 20 212q-102 -58 -178 -76q-67 -15 -138 -15q-155 0 -286 62q-200 95 -200 327zM469 891q0 -117 56 -179q58 -66 168 -66q92 0 153 53q76 66 76 178q0 51 -18 99.5t-47 76.5q-58 57 -169 57q-102 0 -164 -63 q-55 -55 -55 -156z" />
<glyph unicode=":" horiz-adv-x="716" d="M246 131q0 74 55 123q58 50 139 50q75 0 129 -50q55 -52 55 -122q0 -73 -55 -122q-56 -50 -133 -50q-78 0 -135 50q-55 49 -55 121zM246 744q0 74 55 123q58 50 139 50q75 0 129 -50q55 -52 55 -122q0 -73 -55 -122q-56 -50 -133 -50q-78 0 -135 50q-55 49 -55 121z" />
<glyph unicode=";" horiz-adv-x="727" d="M211 122q0 63 42 110q57 65 153 65q81 0 143 -46q77 -57 77 -171q0 -162 -143 -271q-62 -48 -130 -72q-44 -16 -132 -33v116q109 21 149 56q32 27 60 96q-34 -4 -60 -4q-82 0 -128 61q-31 41 -31 93zM222 744q0 74 55 123q57 50 139 50q75 0 129 -50q55 -52 55 -122 q0 -73 -55 -122q-56 -50 -133 -50q-78 0 -135 50q-55 49 -55 121z" />
<glyph unicode="&#x3c;" horiz-adv-x="1126" d="M75 541v286l976 477v-341l-577 -280l577 -281v-341z" />
<glyph unicode="=" d="M185 358v228h1051v-228h-1051zM185 711v228h1051v-228h-1051z" />
<glyph unicode="&#x3e;" horiz-adv-x="1126" d="M75 61v341l577 281l-577 280v341l976 -477v-286z" />
<glyph unicode="?" horiz-adv-x="1287" d="M165 994q0 145 106 254q151 157 421 157q240 0 402 -117q134 -98 134 -259q0 -142 -106 -246q-58 -56 -183 -131q-113 -70 -140 -112q-24 -34 -39 -108h-221q-1 25 -1 38q0 60 28 116q28 57 61 91l109 111q120 123 120 234q0 96 -101 150q-71 38 -158 38q-129 0 -210 -78 q-35 -33 -44 -87q63 19 99 19q62 0 102 -30q57 -42 57 -119q0 -78 -49 -122q-58 -53 -163 -53q-108 0 -171 85q-53 73 -53 169zM460 131q0 74 55 123q58 50 139 50q75 0 129 -50q55 -52 55 -122q0 -73 -55 -122q-56 -50 -133 -50q-78 0 -135 50q-55 49 -55 121z" />
<glyph unicode="@" horiz-adv-x="1665" d="M75 670q0 207 122 387q115 172 311 261q167 77 366 77q293 0 491 -155q115 -90 174 -218q51 -111 51 -234q0 -186 -108 -327q-69 -91 -163 -129q-53 -21 -101 -21q-80 0 -138 51q-27 24 -39 62q-35 -46 -84 -75q-94 -55 -197 -55q-136 0 -227 91q-94 94 -94 234 q0 170 131 299q114 113 266 113q92 0 165 -48q36 -23 57 -54l17 80h198l-85 -394q-14 -68 -14 -91q0 -66 55 -66q57 0 113 68q90 110 90 262q0 96 -42 183t-117 144q-156 119 -389 119q-269 0 -448 -161q-89 -80 -137.5 -186t-48.5 -220q0 -110 45.5 -213t126.5 -177 q161 -146 450 -146q220 0 426 63l45 -161q-203 -64 -464 -64q-350 0 -565 185q-115 100 -179 240q-60 134 -60 276zM644 624q0 -59 35 -98q45 -50 123 -50q97 0 159 82q48 63 48 134q0 61 -36 100q-44 47 -120 47q-96 0 -160 -81q-49 -62 -49 -134z" />
<glyph unicode="A" horiz-adv-x="1600" d="M-33 0v179h53q76 0 111 24q29 19 63 109l386 1053h446l369 -1061q26 -74 54 -97q29 -27 102 -28h75v-179h-828v179h64q74 0 109 11q26 9 26 33q0 19 -10 47l-58 168h-432l-55 -155q-13 -35 -13 -57q0 -30 30 -39q26 -8 91 -8h75v-179h-658zM563 617h304l-150 431z" />
<glyph unicode="B" horiz-adv-x="1655" d="M45 0v179h92q103 1 129 20q17 13 21 38q4 19 4 60v772q0 60 -9 76q-13 28 -57 36q-32 5 -88 5h-92v179h868q239 0 350 -37q113 -37 172 -119q54 -75 54 -166q0 -129 -106 -218q-67 -57 -209 -103q130 -30 186 -56q206 -93 206 -293q0 -138 -86 -232q-80 -87 -239 -117 q-125 -24 -352 -24h-844zM672 179h120q146 0 216 21q155 47 155 205q0 107 -79 160q-91 60 -294 60h-118v-446zM672 797h103q177 0 260 51q74 47 74 150q0 98 -70 141q-78 47 -255 47h-112v-389z" />
<glyph unicode="C" horiz-adv-x="1644" d="M78 684q0 324 227 527q217 194 547 194q158 0 272 -43q60 -23 171 -88l44 108h206v-555h-219q-18 135 -54 196q-108 182 -347 182q-177 0 -280 -115q-125 -140 -125 -404q0 -246 110 -390q101 -133 299 -133q176 0 281 112q57 61 77 132q13 47 22 121h236 q-7 -116 -27 -188t-64 -140q-156 -240 -570 -240q-263 0 -426 84q-194 100 -295 282q-85 153 -85 358z" />
<glyph unicode="D" horiz-adv-x="1790" d="M45 0v179h92q103 1 129 20q17 13 21 38q4 19 4 60v772q0 60 -9 76q-13 28 -56 36q-32 5 -89 5h-92v179h783q322 0 489 -64q407 -156 407 -618q0 -360 -249 -535q-128 -89 -274 -117q-165 -31 -373 -31h-783zM672 179h156q257 0 359 128q94 117 94 376q0 318 -145 427 q-58 43 -135 60q-71 16 -184 16h-145v-1007z" />
<glyph unicode="E" horiz-adv-x="1678" d="M45 0v179h90q100 1 125 20q18 13 22 38q3 19 3 60v772q0 60 -8 76q-13 28 -56 36q-31 5 -86 5h-90v179h1485v-521h-197q-25 133 -45 184q-34 79 -95 115q-62 34 -154 39q-67 4 -169 4h-204v-389h41q134 1 176 44q36 36 41 172h197v-622h-197q-5 86 -13.5 124.5 t-27.5 60.5q-25 31 -78 38q-31 4 -98 4h-41v-439h211q175 1 251 25q115 36 165 171q20 53 40 189h197v-564h-1485z" />
<glyph unicode="F" horiz-adv-x="1544" d="M45 0v179h90q100 1 125 20q18 13 22 38q3 19 3 60v772q0 60 -8 76q-13 28 -56 36q-31 5 -86 5h-90v179h1408v-558h-197q-20 164 -45 221q-26 60 -65 93.5t-103 48.5q-58 15 -249 16h-128v-390q76 2 115 11.5t62 32.5q38 38 43 173h191v-622h-191q-9 148 -43 185 q-38 42 -146 42q-8 0 -31 -1v-320q0 -62 8 -77q13 -28 55 -36q31 -5 86 -5h102v-179h-872z" />
<glyph unicode="G" horiz-adv-x="1745" d="M78 664q0 366 261 575q207 166 506 166q148 0 261 -39q62 -22 180 -87l38 99h194v-549h-203q-26 144 -63 206q-100 167 -344 167q-195 0 -285 -119q-102 -134 -102 -396q0 -271 89 -398q48 -67 138 -101q73 -27 155 -27q69 0 131 15.5t88 39.5q35 31 35 128v95 q0 68 -15 84q-18 20 -102 21h-119v179h819v-179h-89q-70 -1 -91 -19q-22 -19 -22 -71v-468h-173l-53 105q-125 -66 -192 -88q-126 -43 -286 -43q-322 0 -528 170q-228 189 -228 534z" />
<glyph unicode="H" horiz-adv-x="1846" d="M39 0v179h90q100 1 125 20q18 13 22 38q3 19 3 60v772q0 60 -8 76q-13 28 -56 36q-31 5 -86 5h-90v179h821v-179h-47q-102 -1 -128 -20q-18 -13 -22 -38q-3 -17 -3 -59v-268h524v268q0 61 -8 76q-13 28 -57 36q-31 5 -88 5h-47v179h822v-179h-91q-100 -1 -125 -20 q-17 -13 -22 -38q-3 -18 -3 -59v-772q0 -61 9 -77q12 -28 55 -36q31 -5 86 -5h91v-179h-822v179h47q102 1 128 20q18 13 22 38q3 17 3 60v320h-524v-320q0 -62 8 -77q13 -28 57 -36q31 -5 88 -5h47v-179h-821z" />
<glyph unicode="I" horiz-adv-x="985" d="M49 0v179h99q100 1 125 20q18 13 22 38q3 19 3 60v772q0 60 -8 76q-13 28 -56 36q-31 5 -86 5h-99v179h886v-179h-99q-100 -1 -125 -20q-17 -13 -22 -38q-3 -18 -3 -59v-772q0 -61 9 -77q12 -28 55 -36q31 -5 86 -5h99v-179h-886z" />
<glyph unicode="J" horiz-adv-x="1365" d="M33 349q0 117 72 187q68 67 174 67q103 0 166 -59q55 -51 55 -128q0 -73 -51 -119q-47 -44 -112 -44q-44 0 -107 13q45 -50 76 -69q70 -42 163 -42q130 0 197 81q35 43 42 97q6 49 6 125v611q0 60 -8 76q-13 28 -56 36q-31 5 -86 5h-101v179h877v-179h-87 q-101 -1 -126 -20q-17 -13 -22 -38q-3 -18 -3 -59v-611q0 -163 -40 -253q-58 -133 -216 -196q-122 -49 -282 -49q-263 0 -404 123q-127 110 -127 266z" />
<glyph unicode="K" horiz-adv-x="1801" d="M45 0v179h90q100 1 125 20q18 13 22 38q3 19 3 60v772q0 60 -8 76q-13 28 -56 36q-31 5 -86 5h-90v179h822v-179h-56q-101 -1 -127 -20q-18 -13 -22 -38q-3 -18 -3 -59v-361l519 394q34 25 34 53q0 31 -84 31h-105v179h751v-179h-72q-59 0 -114 -32q-40 -23 -116 -83 l-260 -204l406 -601q39 -57 72 -72q29 -15 65 -15h65v-179h-809v179h65q102 0 102 40q0 14 -18 42l-245 370l-256 -185v-149q0 -61 9 -77q12 -28 56 -36q31 -5 87 -5h56v-179h-822z" />
<glyph unicode="L" horiz-adv-x="1544" d="M45 0v179h90q100 1 125 20q18 13 22 38q3 19 3 60v772q0 60 -8 76q-13 28 -56 36q-31 5 -86 5h-90v179h872v-179h-102q-99 -1 -124 -20q-18 -13 -22 -38q-3 -18 -3 -59v-890h128q191 1 248 16q65 16 104 49t65 93q25 57 45 221h197v-558h-1408z" />
<glyph unicode="M" horiz-adv-x="2192" d="M45 0v179h79q96 1 121 20q17 13 21 38q3 18 3 60v772q0 61 -8 76q-12 28 -54 36q-29 5 -83 5h-79v179h787l263 -840l275 840h781v-179h-82q-100 -1 -125 -20q-17 -13 -22 -38q-3 -18 -3 -59v-772q0 -61 9 -77q12 -28 55 -36q30 -5 86 -5h82v-179h-787v179h47 q101 1 127 20q17 13 22 38q3 18 3 60v852l-391 -1149h-303l-374 1150v-853q0 -61 8 -77q13 -28 55 -36q30 -5 84 -5h46v-179h-643z" />
<glyph unicode="N" horiz-adv-x="1835" d="M45 0v179h85q96 1 121 20q17 13 21 38q3 18 3 60v772q0 61 -8 76q-12 28 -54 36q-30 5 -83 5h-85v179h719l586 -953v657q0 61 -8 76q-12 28 -54 36q-30 5 -83 5h-90v179h684v-179h-73q-97 -1 -122 -20q-17 -13 -21 -38q-3 -18 -3 -59v-1069h-447l-628 1015v-718 q0 -61 8 -77q12 -28 54 -36q30 -5 83 -5h90v-179h-695z" />
<glyph unicode="O" horiz-adv-x="1834" d="M75 680q0 344 230 535q118 99 268 144.5t357 45.5q378 0 600 -190q229 -196 229 -533t-229 -533q-221 -190 -613 -190q-391 0 -612 190q-230 197 -230 531zM518 681q0 -205 40 -309q87 -225 359 -225q209 0 308 133q48 65 69.5 158.5t21.5 238.5q0 211 -40 315 q-86 225 -366 225q-201 0 -301 -133q-48 -65 -69.5 -159.5t-21.5 -243.5z" />
<glyph unicode="P" horiz-adv-x="1633" d="M45 0v179h90q100 1 125 20q18 13 22 38q3 19 3 60v772q0 60 -8 76q-13 28 -56 36q-31 5 -86 5h-90v179h926q245 0 358 -44q129 -50 190 -158q45 -81 45 -183q0 -189 -143 -289q-80 -57 -171 -73q-118 -21 -279 -21h-305v-300q0 -61 8 -77q13 -28 55 -36q31 -5 86 -5h117 v-179h-887zM666 776h149q146 0 212 21q137 43 137 184q0 108 -74 155q-51 31 -110 40q-74 10 -165 10h-149v-410z" />
<glyph unicode="Q" horiz-adv-x="1946" d="M78 681q0 337 230 534q220 190 612 190t613 -190q229 -197 229 -515q0 -146 -47 -254q-33 -78 -111 -197q54 -59 103 -59q62 0 82 61q10 30 15 109h148q-9 -163 -30 -233q-33 -107 -103 -162q-73 -59 -173 -59q-84 0 -161 48q-43 26 -126 99q-121 -43 -183 -59 q-136 -35 -286 -35q-351 0 -571 181q-241 198 -241 541zM520 738q0 -165 58 -333q27 90 57 129q87 112 257 112q122 0 239 -56q52 -25 148 -85q39 109 39 208q0 231 -94 372q-89 132 -302 132t-309 -133q-93 -128 -93 -346zM689 284q0 -67 56 -106q64 -43 163 -43 q54 0 106 13q32 8 88 39l65 35q-86 88 -148 127q-96 62 -185 62q-84 0 -123 -56q-22 -33 -22 -71z" />
<glyph unicode="R" horiz-adv-x="1801" d="M45 0v179h90q100 1 125 20q18 13 22 38q3 19 3 60v772q0 60 -8 76q-13 28 -56 36q-31 5 -86 5h-90v179h987q202 0 307 -35q127 -42 188 -136q48 -75 48 -163q0 -149 -122 -232q-70 -48 -223 -82q89 -17 134 -36t73 -50q59 -62 59 -187v-132q0 -81 14 -115q13 -32 48 -32 q60 0 71 76q5 36 8 138h150v-38q0 -103 -15 -164.5t-53 -110.5q-81 -106 -279 -106q-178 0 -274 83q-53 45 -70 103q-20 63 -20 163v130q-1 119 -41 151q-34 31 -168 32h-201v-325q0 -61 8 -77q13 -28 56 -36q31 -5 86 -5h89v-179h-860zM666 801h173q189 0 262 37 q77 39 77 153q0 105 -74 152q-47 29 -100 36q-61 7 -146 7h-192v-385z" />
<glyph unicode="S" horiz-adv-x="1499" d="M71 962q0 188 128 296q168 141 484 141q156 0 273 -33q71 -19 177 -82l45 96h187v-499h-207q-28 119 -72 172q-68 82 -188 119q-104 32 -210 32q-120 0 -190 -47q-62 -41 -62 -110q0 -67 67 -103q40 -21 149 -41q314 -58 418 -90q223 -70 309 -193q65 -95 65 -214 q0 -198 -161 -321q-88 -67 -234 -98q-126 -27 -232 -27q-132 0 -300 43q-92 24 -181 79l-58 -101h-183v537h202q33 -136 85 -193q153 -167 403 -167q143 0 220 51q66 43 66 113q0 75 -76 121q-48 28 -201 55q-202 35 -377 87q-118 34 -188 81.5t-112 121.5q-46 80 -46 174z " />
<glyph unicode="T" horiz-adv-x="1555" d="M47 838v527h1461v-527h-203q-6 118 -23 167q-31 94 -104.5 135t-211.5 42v-840q0 -88 6 -114q5 -20 19.5 -28.5t50.5 -14.5q70 -9 181 -10v-175h-891v175q158 1 212 16q34 6 39 37q6 26 6 112v842q-132 -2 -186 -29q-97 -47 -130 -148q-17 -50 -24 -167h-202z" />
<glyph unicode="U" horiz-adv-x="1723" d="M45 1191v174h853v-174q-59 2 -86 2q-95 0 -128 -28q-26 -22 -30 -66q-3 -32 -3 -106v-548q0 -105 18 -154q50 -131 254 -131q180 0 255 69q46 41 59 95q8 32 8 105v552q0 109 -14 146q-19 51 -88 61q-26 3 -85 3h-42v174h671v-174q-103 -2 -144.5 -8.5t-56.5 -23.5 q-16 -8 -18 -71q-2 -43 -2 -107v-578q0 -88 -30.5 -167.5t-84.5 -131.5q-151 -146 -497 -146q-299 0 -456 136q-67 58 -96 128q-28 68 -28 164v600q0 128 -31 167q-31 41 -133 41q-16 0 -65 -3z" />
<glyph unicode="V" horiz-adv-x="1611" d="M-11 1191v174h839v-174q-45 3 -68 3q-68 0 -108 -11q-36 -10 -36 -51q0 -27 33 -120l236 -664l256 697q26 71 26 92q0 25 -28.5 40.5t-75.5 15.5q-38 0 -95 -2v174h652v-174q-129 -11 -168 -50q-26 -27 -75 -151l-362 -990h-417l-381 1028q-21 59 -38 86.5t-40 42.5 q-37 24 -150 34z" />
<glyph unicode="W" horiz-adv-x="2181" d="M11 1190v175h686v-175h-5q-127 0 -127 -53q0 -24 23 -101l210 -691l208 602q-45 176 -86 208q-32 27 -122 35v175h712v-175q-43 1 -71 1q-85 0 -85 -59q0 -25 11 -62l215 -725l211 718q11 38 11 65q0 48 -80 60q-20 2 -61 2v175h499v-175q-72 -6 -108 -40 q-26 -25 -37 -53q-7 -17 -20 -64l-271 -1033h-428l-180 579l-188 -579h-420l-297 964q-38 124 -67 163q-34 46 -133 63z" />
<glyph unicode="X" horiz-adv-x="1712" d="M22 0v175q110 2 150 16q52 19 119 95l328 372l-350 427q-50 59 -92 81q-39 19 -119 25v174h793v-174q-28 1 -46 1q-95 0 -95 -46q0 -19 32 -60l151 -194l176 192q34 36 34 58q0 49 -137 49v174h656v-174q-73 -1 -122 -17q-63 -21 -123 -86l-315 -351l359 -441 q50 -62 93 -93q41 -31 103 -31q23 0 57 3v-175h-839v175q87 0 112 6q44 11 44 46q0 11 -5 18q-3 6 -42 55l-160 198l-171 -193q-46 -53 -46 -83q0 -49 96 -49q17 0 53 2v-175h-694z" />
<glyph unicode="Y" horiz-adv-x="1745" d="M56 1191v174h860v-174h-68q-85 0 -85 -45q0 -28 47 -99l165 -246l190 279q30 43 30 67q0 26 -34 36q-30 8 -111 8v174h637v-174q-64 -3 -98.5 -11t-64.5 -28q-37 -26 -60 -57l-47 -65l-347 -467v-250q1 -89 26 -115q18 -19 54 -22q18 -2 71 -2h113v-174h-907v174h113 q77 0 95 7q40 12 50 55q6 24 6 77v250l-347 468q-47 64 -67.5 85.5t-48.5 36.5q-50 27 -172 38z" />
<glyph unicode="Z" horiz-adv-x="1454" d="M56 0v187l849 994h-245q-224 -1 -295 -93q-60 -86 -69 -241h-198v518h1310v-198l-861 -993h269q222 0 298 100q35 46 52 133q10 49 20 149h222v-556h-1352z" />
<glyph unicode="[" horiz-adv-x="906" d="M179 -372v1737h632v-179h-293v-1374h293v-184h-632z" />
<glyph unicode="\" horiz-adv-x="874" d="M90 1405h187l575 -1594h-184z" />
<glyph unicode="]" horiz-adv-x="906" d="M90 -188h293v1374h-293v179h632v-1737h-632v184z" />
<glyph unicode="^" horiz-adv-x="1127" d="M25 706l329 668h418l329 -668h-331l-207 437l-206 -437h-332z" />
<glyph unicode="_" horiz-adv-x="1024" d="M0 -108h1024v-202h-1024v202z" />
<glyph unicode="`" horiz-adv-x="1070" d="M105 1391q0 46 30 78q34 37 86 37q41 0 83 -28q30 -19 81 -73l293 -311h-119l-345 171q-109 55 -109 126z" />
<glyph unicode="a" horiz-adv-x="1376" d="M67 238q0 131 103 200q60 40 130 56q53 13 157 32q170 31 229 59q78 36 78 122q0 83 -80 125q-62 33 -148 33q-44 0 -88 -7q-36 -5 -89 -34q67 -7 101.5 -37t34.5 -81q0 -52 -52 -89q-54 -39 -130 -39q-69 0 -125 32q-71 41 -71 124q0 49 28 97t73 77q137 88 389 88 q233 0 365 -73q77 -43 97 -107q15 -47 15 -175v-370q0 -92 70 -92q46 0 62 25q13 20 13 67v84h122v-94q0 -113 -25 -162q-69 -134 -278 -134q-116 0 -186 44q-41 26 -80 103q-61 -56 -99.5 -80t-92.5 -41q-88 -27 -182 -27q-126 0 -216 52q-58 32 -91.5 92t-33.5 130z M414 277q0 -39 35 -70q42 -38 120 -38q95 0 149 52q38 38 38 111v143q-95 -41 -246 -95q-96 -34 -96 -103z" />
<glyph unicode="b" horiz-adv-x="1376" d="M0 1200v165h528v-516q73 72 129 99q92 44 199 44q202 0 323 -142q116 -137 116 -380q0 -235 -106 -368q-112 -138 -337 -138q-117 0 -207 43q-57 26 -142 106l-88 -117h-220v1108q0 58 -20 76q-21 20 -98 20h-77zM528 486q0 -143 25 -209q52 -135 177 -135q100 0 149 82 t49 251q0 154 -43 241q-43 89 -158 89q-91 0 -144 -72q-35 -48 -44 -102q-11 -64 -11 -145z" />
<glyph unicode="c" horiz-adv-x="1119" d="M56 483q0 234 147 373q148 140 407 140q202 0 334 -87q135 -89 135 -244q0 -116 -85 -169q-61 -38 -142 -38q-77 0 -128 38q-57 43 -57 123q0 82 61 124q34 24 110 26q-32 24 -50 33q-47 24 -114 24q-261 0 -261 -330q0 -148 42 -238q49 -106 183 -106q110 0 159 65 q28 37 38 121h235q-6 -87 -30 -141q-106 -232 -436 -232q-282 0 -419 152q-129 142 -129 366z" />
<glyph unicode="d" horiz-adv-x="1387" d="M67 469q0 244 115 381q120 142 321 142q120 0 218 -55q43 -25 107 -88v255q0 47 -4 57q-17 39 -94 39h-66v165h503v-1108q0 -58 21 -75q22 -20 104 -21h61v-161h-532v131q-84 -103 -152 -134q-73 -33 -171 -33q-221 0 -328 138q-103 132 -103 367zM434 487 q0 -144 25 -210q51 -135 174 -135q99 0 147 82t48 251q0 154 -42 241q-44 89 -156 89q-90 0 -142 -72q-35 -48 -43 -102q-11 -64 -11 -144z" />
<glyph unicode="e" horiz-adv-x="1242" d="M67 479q0 225 141 364q150 148 422 148q338 0 480 -226q75 -117 75 -279v-48h-728q3 -108 21 -155q47 -126 196 -126q119 0 181 62q30 31 46 106h266q-105 -360 -534 -360q-234 0 -381 114q-185 145 -185 400zM463 603h343q-2 105 -35 151q-45 63 -133 63 q-42 0 -81 -18.5t-59 -47.5q-26 -39 -35 -148z" />
<glyph unicode="f" horiz-adv-x="850" d="M56 0v174q35 -1 50 -1q81 0 102 26q14 18 14 117v475h-166v170h166v55q0 130 23 186q36 92 146 145q113 54 259 54q186 0 293 -81q74 -55 74 -145q0 -52 -31 -93q-44 -58 -130 -58q-70 0 -116 43q-36 34 -36 81q0 44 26 71q18 18 56 37q-43 7 -76 7q-34 0 -63 -17 t-40 -43q-12 -28 -12 -113v-129h191v-170h-191v-473q0 -105 20 -126q18 -19 112 -19q15 0 60 1v-174h-731z" />
<glyph unicode="g" horiz-adv-x="1443" d="M66 -243q0 77 73 123q30 18 104 39q-95 52 -125 99q-33 51 -33 107q0 78 59 130q32 28 115 65q-70 75 -96 124q-37 73 -37 162q0 100 42.5 180.5t120.5 128.5q132 81 338 81q117 0 206 -30q50 -17 128 -63q70 50 118 70q51 22 122 22q122 0 193 -68q56 -54 56 -129 q0 -93 -71 -130q-37 -20 -80 -20q-52 0 -92 27q-51 34 -51 91q0 50 57 105q-30 24 -53 24q-45 0 -127 -66q46 -63 59 -114q15 -53 15 -104q0 -117 -66 -209q-76 -104 -245 -148q-102 -27 -204 -27q-91 0 -224 36q-68 -21 -68 -56q0 -65 122 -70q111 -5 198 -5q38 0 95 1 q104 1 139 1q222 0 320 -65q103 -69 103 -200q0 -81 -46 -150q-51 -76 -145 -111q-61 -22 -196 -36.5t-284 -14.5q-227 0 -387 45q-153 44 -153 155zM371 -216q0 -85 301 -85q141 0 217 17q51 11 71 26t20 43q0 41 -45 56q-65 22 -257 22q-133 0 -211 -11q-96 -14 -96 -68z M453 606q0 -104 30 -169q35 -77 132 -77t129 74q28 63 28 172q0 125 -27 190q-29 71 -131 71q-92 0 -126 -65q-35 -66 -35 -196z" />
<glyph unicode="h" horiz-adv-x="1476" d="M45 0v165h60q76 0 97 21q19 17 19 75v843q0 58 -19 76q-21 20 -97 20h-60v165h500v-542q97 91 167 122q96 43 213 43q175 0 268 -83q53 -48 65 -119q11 -62 11 -154v-371q0 -58 20 -75q20 -21 97 -21h57v-165h-659v165h27q78 0 99 21q20 17 20 75v371q0 172 -171 172 q-125 0 -173 -93q-26 -51 -26 -158v-292q0 -58 20 -75q21 -21 99 -21h28v-165h-662z" />
<glyph unicode="i" horiz-adv-x="805" d="M56 0v165h67q68 0 87 21q17 16 17 75v411q0 82 -13 100q-16 20 -88 20h-70v169h532v-700q0 -60 17 -75q17 -21 94 -21h64v-165h-707zM226 1207q0 72 49 120q52 50 122 50q68 0 118 -50q50 -49 50 -119t-50 -120q-49 -50 -120 -50q-70 0 -120 50q-49 49 -49 119z" />
<glyph unicode="j" horiz-adv-x="760" d="M-146 -227q0 91 84 133q48 24 102 24q65 0 110 -40q42 -38 42 -90q0 -48 -62 -98q45 -16 75 -16q47 0 62 44q10 30 10 116v826q0 73 -15 95q-18 25 -80 25h-60v165h492v-987q0 -128 -3 -150q-17 -132 -124 -198.5t-301 -66.5q-144 0 -233 58q-99 63 -99 160zM256 1207 q0 72 49 120q52 50 122 50q68 0 118 -50q50 -49 50 -119t-50 -120q-49 -50 -120 -50q-70 0 -120 50q-49 49 -49 119z" />
<glyph unicode="k" horiz-adv-x="1488" d="M45 0v169h51q69 0 87 17q18 16 18 75v819q0 84 -14 100q-16 20 -88 20h-54v165h512v-840l318 220q19 13 19 28q0 22 -67 22q-31 0 -98 -4v170h647v-170q-26 1 -39 1q-56 0 -90 -10q-36 -11 -86 -49l-137 -104l252 -384q39 -55 74 -67q25 -9 68 -9q10 0 36 1v-170h-656 v170q41 1 59 1q44 0 44 26q0 16 -22 50l-122 193l-200 -134v-45q0 -62 19 -77t86 -15h21v-169h-638z" />
<glyph unicode="l" horiz-adv-x="783" d="M33 0v165h61q68 0 87 21q17 16 17 75v819q-1 79 -16 99q-17 21 -85 21h-64v165h526v-1104q0 -61 14 -75q18 -21 97 -21h68v-165h-705z" />
<glyph unicode="m" horiz-adv-x="2114" d="M45 0v165h64q76 0 97 21q19 17 19 75v439q0 59 -19 76q-21 20 -97 20h-64v165h520v-134q62 73 127 111q84 50 222 50q145 0 230 -65q37 -29 70 -92q67 69 129 104q96 54 224 54q165 0 253 -85q51 -49 65 -118q14 -67 14 -154v-371q0 -46 4 -57q10 -26 46 -34q25 -5 78 -5 h54v-165h-644v165q76 2 99 21q26 20 26 75v371q0 92 -34 128q-42 44 -117 44q-95 0 -145 -75q-32 -49 -32 -141v-315q0 -71 14 -87q18 -19 78 -21v-165h-529v165q57 2 78 21q19 18 20 75v371q0 92 -34 128q-42 44 -118 44q-177 0 -177 -223v-320q0 -46 5 -57q9 -26 47 -34 q20 -4 69 -5v-165h-642z" />
<glyph unicode="n" horiz-adv-x="1488" d="M45 0v165h67q76 0 97 21q19 17 19 75v439q0 59 -19 76q-21 20 -97 20h-67v165h523v-149q87 100 162 133q96 43 209 43q171 0 262 -83q51 -48 63 -119q11 -63 11 -154v-371q0 -58 20 -75q20 -21 97 -21h56v-165h-658v165h27q78 0 99 21q20 17 20 75v371q0 172 -170 172 q-111 0 -163 -77q-36 -54 -36 -141v-325q0 -58 20 -75q21 -21 99 -21h27v-165h-668z" />
<glyph unicode="o" horiz-adv-x="1331" d="M53 479q0 247 165 380q170 137 456 137q270 0 438 -137q165 -135 165 -379q0 -242 -165 -377q-167 -138 -447 -138t-447 138q-165 135 -165 376zM420 480q0 -193 54 -268q52 -73 191 -73t191 73q54 75 54 265q0 198 -54 271q-53 74 -196 74q-133 0 -186 -74 q-54 -73 -54 -268z" />
<glyph unicode="p" horiz-adv-x="1387" d="M33 -273h56q77 1 97 21q20 17 20 75v877q0 59 -20 76q-20 20 -97 20h-56v165h513v-131q77 87 140 121q84 45 197 45q223 0 330 -139q105 -136 105 -369q0 -244 -117 -381q-121 -142 -326 -142q-122 0 -221 56q-44 24 -109 87v-285q0 -58 19 -75q20 -20 96 -21h82v-165 h-709v165zM545 469q0 -128 23 -186q52 -131 182 -131q102 0 151.5 80.5t49.5 246.5q0 159 -43 246q-45 91 -161 91q-93 0 -146 -78q-31 -45 -43.5 -105.5t-12.5 -163.5z" />
<glyph unicode="q" horiz-adv-x="1387" d="M67 487q0 234 105 370q107 139 330 139q114 0 197 -45q62 -34 140 -121v131h513v-165h-56q-77 0 -97 -20q-20 -17 -20 -76v-877q0 -58 20 -75q20 -20 97 -21h56v-165h-709v165h82q76 1 96 21q19 17 19 75v285q-74 -72 -130 -99q-93 -44 -200 -44q-205 0 -326 142 q-117 137 -117 380zM434 481q0 -151 43 -240q44 -89 158 -89q96 0 149 72q35 48 45 103q11 63 11 139q0 148 -25 215q-52 135 -183 135q-100 0 -149 -83t-49 -252z" />
<glyph unicode="r" horiz-adv-x="1130" d="M45 0v165h72q77 0 97 21q19 16 19 75v439q0 59 -19 76q-20 20 -97 20h-72v165h528v-97q68 65 119 89q72 35 155 35q96 0 161 -44q48 -32 74 -93q17 -42 17 -86q0 -83 -51 -136q-56 -58 -151 -58q-81 0 -129 51q-38 42 -38 94q0 88 115 123q-49 16 -78 16q-45 0 -96 -38 q-58 -44 -80 -121q-19 -69 -19 -131v-304q0 -59 19 -75q20 -21 95 -21h99v-165h-740z" />
<glyph unicode="s" horiz-adv-x="1242" d="M78 672q0 98 72 182q121 142 419 142q110 0 200 -25q50 -14 147 -55l24 54h161v-306h-161q-62 71 -104 98q-106 67 -255 67q-65 0 -102 -22q-42 -24 -42 -63q0 -55 83 -83q18 -5 172 -41q178 -41 215 -54q249 -90 249 -272q0 -93 -67 -176q-69 -85 -212 -125 q-101 -28 -218 -28q-122 0 -234 38q-46 16 -142 58l-33 -71h-159v358h177q51 -94 95 -126q111 -81 254 -81q178 0 178 89q0 49 -77 71q-53 15 -236 56q-204 46 -285 102q-119 83 -119 213z" />
<glyph unicode="t" horiz-adv-x="1051" d="M56 796v152q86 14 131 43q83 53 124 143q26 54 46 200h202v-373h292v-165h-292v-505q-1 -22 -1 -35q0 -107 96 -107q83 0 100 66q13 53 13 149v90h164v-143q0 -127 -26 -181q-81 -170 -335 -170q-207 0 -292 119q-41 57 -48 120q-6 49 -6 143v454h-168z" />
<glyph unicode="u" horiz-adv-x="1488" d="M33 795v165l481 1v-632q0 -172 181 -172q210 0 210 233v309q0 59 -16 76q-17 20 -80 20h-21v165l456 1v-701q0 -58 21 -75q21 -20 101 -21h71v-165l-538 1v149q-90 -100 -166 -133q-98 -43 -215 -43q-174 0 -267 83q-53 48 -65 119q-11 61 -11 154v370q0 59 -16 76 q-17 20 -80 20h-46z" />
<glyph unicode="v" horiz-adv-x="1309" d="M22 791v170h668v-170h-40q-64 0 -81 -5q-27 -8 -27 -29q0 -20 18 -70l164 -460l170 446q21 54 21 74q0 44 -86 44h-46v170h508v-169h-42q-62 0 -88 -24q-25 -23 -60 -111l-256 -657h-407l-232 647q-34 93 -68 119q-35 26 -92 26q-7 0 -24 -1z" />
<glyph unicode="w" horiz-adv-x="1946" d="M22 800v161h628v-159h-45q-69 0 -69 -44q0 -33 20 -96l135 -430l145 421q30 87 30 108q0 23 -19 33q-14 8 -59 8h-42v159h621v-161h-41q-85 0 -85 -45q0 -28 18 -81l155 -444l160 460q16 46 16 75q0 37 -61 37q-15 0 -40 -2v161h434v-161q-83 -4 -117 -28 q-23 -17 -34 -43q-9 -21 -21 -59l-200 -670h-406l-166 489l-167 -489h-402l-196 634q-25 81 -37 99q-24 39 -66 53q-30 10 -89 14z" />
<glyph unicode="x" horiz-adv-x="1465" d="M33 0v170h14q68 1 100 18q28 18 101 87l227 197l-224 230q-53 52 -100 73q-38 15 -102 26v160h714v-156q-21 1 -31 1q-61 0 -61 -26q0 -18 32 -49l107 -106l140 112q30 24 30 49q0 21 -39 21q-9 0 -27 -2v156h467v-160q-80 -4 -123 -30q-39 -23 -108 -85l-199 -178 q246 -276 339 -320q40 -19 108 -19q10 0 35 1v-170h-779v163q18 -1 27 -1q30 0 51 11.5t21 28.5q0 15 -21 34l-119 110l-126 -86q-21 -14 -38 -34.5t-17 -30.5q0 -20 33 -30q12 -4 25 -4q14 0 35 2v-163h-492z" />
<glyph unicode="y" horiz-adv-x="1331" d="M33 -179q0 99 72 150q58 41 132 41q58 0 105 -24q70 -37 70 -119q0 -77 -66 -117q-31 -19 -79 -19q-17 0 -49 2q58 -50 102 -50q83 0 153 71q53 55 101 176l-347 746q-30 63 -47 81q-33 32 -77 32h-62v170h678v-170h-52q-90 0 -90 -32q0 -20 26 -75l163 -343l144 331 q30 67 30 88q0 18 -23 27q-13 4 -57 4h-50v170h497v-170q-88 -6 -119 -25q-26 -17 -63 -96l-340 -752q-77 -171 -159 -254q-106 -107 -269 -107q-133 0 -226 66q-98 69 -98 198z" />
<glyph unicode="z" horiz-adv-x="1107" d="M56 0v185l582 609h-129q-120 0 -147 -9q-61 -17 -79 -85q-13 -49 -13 -144h-183v405h969v-185l-569 -612h151q147 0 195 50q39 42 39 168v43h184v-425h-1000z" />
<glyph unicode="{" horiz-adv-x="906" d="M104 400v166q73 11 108 48q33 36 34 131v330q0 167 87 234q61 46 168 55q59 5 146 5q44 0 185 -5v-170h-40q-123 0 -161 -19q-40 -21 -44 -70q-1 -16 -2 -93v-274q0 -125 -41 -183q-23 -33 -82 -72q74 -48 102 -114q21 -52 21 -142v-272q1 -113 12 -132q20 -38 80 -46 q39 -6 111 -6q14 0 44 1v-171q-132 -4 -196 -4q-157 0 -221 20q-115 36 -150 139q-19 56 -19 138v322q-1 101 -35 135q-43 41 -107 49z" />
<glyph unicode="|" horiz-adv-x="1092" d="M374 -341v1706h345v-1706h-345z" />
<glyph unicode="}" horiz-adv-x="906" d="M74 -228q27 -1 40 -1q123 0 161 20q40 20 44 69q1 16 2 94v273q0 125 41 184q23 33 82 72q-74 47 -102 114q-21 52 -21 142v271q-1 113 -12 133q-20 37 -80 46q-39 5 -111 5h-44v170q134 5 196 5q157 0 221 -20q115 -36 150 -139q19 -57 19 -138v-323q1 -100 35 -134 q43 -41 107 -50v-165q-73 -11 -108 -49q-33 -35 -34 -131v-330q0 -167 -88 -233q-60 -46 -167 -55q-59 -5 -147 -5q-44 0 -184 4v171z" />
<glyph unicode="~" horiz-adv-x="1403" d="M208 1255q41 104 89 168q90 123 221 123q58 0 153 -37q45 -17 131 -53q59 -24 98 -24q70 0 135 120l165 -138q-50 -120 -96 -178q-90 -116 -216 -116q-44 0 -122 29q-50 20 -146 58q-74 29 -113 29q-50 0 -86 -46q-22 -26 -48 -74z" />
<glyph unicode="&#xa1;" horiz-adv-x="705" d="M144 -241q0 139 39 332q39 195 50 293q6 52 14 143h208q18 -145 25 -197q8 -64 45 -254q38 -195 38 -295q0 -112 -71 -184q-49 -49 -145 -49q-91 0 -149 61q-54 56 -54 150zM163 822q0 75 55 123q57 50 139 50q75 0 129 -50q55 -51 55 -122q0 -72 -55 -122 q-56 -50 -133 -50q-78 0 -135 50q-55 50 -55 121z" />
<glyph unicode="&#xa2;" d="M190 475q0 179 88 310q139 208 485 208q104 0 218 -37l95 164h153l-130 -227q124 -86 124 -232q0 -116 -86 -169q-62 -39 -148 -39q-53 0 -120 34l-175 -314q49 -33 92 -33q74 0 127 45q36 30 49 72q9 31 15 76h237q-5 -90 -30 -142q-55 -119 -189 -181 q-108 -50 -261 -50q-77 0 -154 16l-125 -225h-153l148 266q-84 44 -138 108q-122 145 -122 350zM551 504q0 -85 23 -141q10 -23 35 -66l190 334q33 86 67 112q27 21 93 34q-35 25 -55 34q-37 16 -86 16q-67 0 -125 -29.5t-90 -78.5q-52 -81 -52 -215z" />
<glyph unicode="&#xa3;" d="M56 190q123 79 168 139q44 59 44 123q0 35 -7 91h-205v160h154q-52 118 -52 185q0 133 99 234q147 150 461 150q294 0 435 -114q111 -90 111 -201q0 -62 -37 -112q-52 -69 -162 -69q-88 0 -139 53q-42 43 -42 98q0 58 36 92q21 21 63 42q-45 25 -68 34q-55 21 -136 21 q-134 0 -209 -64q-54 -47 -54 -121q0 -45 31 -114q3 -6 32 -66l24 -48h271v-160h-258q-18 -79 -38 -115q-43 -74 -156 -161q57 17 75 22q119 38 172 38q78 0 203 -47q81 -30 139 -30q66 0 88 69q11 32 14 107h176q2 -53 2 -79q0 -133 -42 -212q-41 -80 -126 -125 q-79 -41 -162 -41q-99 0 -230 41q-132 41 -163 50q-69 20 -138 20q-83 0 -160 -35q-63 -29 -142 -76z" />
<glyph unicode="&#xa4;" horiz-adv-x="1622" d="M85 221l230 209q-80 128 -80 264q0 126 87 271l-237 213l195 176l239 -217q68 31 111 45q87 28 181 28q106 0 205 -37q31 -11 82 -35l238 214l192 -175l-231 -209q90 -138 90 -275q0 -122 -80 -262l230 -209l-192 -176l-228 208q-147 -82 -295 -82q-152 0 -316 81 l-229 -206zM534 696q0 -95 81 -160q83 -67 197 -67q113 0 196 66q82 66 82 161q0 96 -82 161q-83 66 -199 66q-110 0 -193 -66q-82 -64 -82 -161z" />
<glyph unicode="&#xa5;" horiz-adv-x="1487" d="M3 1080v158h797v-158h-61q-78 0 -78 -40q0 -30 43 -90l161 -224l170 253q27 40 27 61q0 32 -48 38q-10 2 -57 2v158h525v-158q-88 -5 -131 -36q-29 -21 -48 -51l-38 -58l-107 -147h196v-160h-317l-82 -108h376v-160h-391v-77q1 -80 25 -103q18 -18 52 -20q18 -2 69 -2 h102v-158h-840v158h106q72 0 89 6q38 11 47 50q6 22 6 69v77h-393v160h386l-85 108h-324v160h199l-109 147q-64 87 -108 110q-46 25 -159 35z" />
<glyph unicode="&#xa6;" horiz-adv-x="1092" d="M374 314h345v-655h-345v655zM374 636v729h345v-729h-345z" />
<glyph unicode="&#xa7;" horiz-adv-x="1398" d="M145 504q0 104 58 172q72 85 176 127q-156 104 -156 260q0 77 42.5 147.5t119.5 119.5q125 80 329 80q216 0 348 -89q102 -69 102 -163q0 -75 -58 -122q-45 -36 -106 -36q-51 0 -93 22q-65 36 -65 104q0 49 60 93q-50 25 -76 33q-52 18 -123 18q-116 0 -186 -44 q-64 -41 -64 -108q0 -81 96 -123q21 -9 184 -60q333 -105 430 -193q89 -80 89 -204q0 -112 -72 -190q-60 -64 -165 -114q103 -66 140 -118q51 -73 51 -168q0 -77 -34 -149.5t-92 -118.5q-140 -111 -392 -111q-236 0 -359 91q-115 84 -115 198q0 66 42 114q46 51 130 51 q86 0 138 -50q31 -31 31 -80q0 -53 -36 -90q-15 -17 -55 -39q108 -51 204 -51q97 0 184 31q121 43 121 145q0 83 -89 137q-49 29 -238 87q-236 72 -351 140q-150 89 -150 251zM357 559q0 -78 150 -140q105 -43 208 -72t151 -29q74 0 122 50q43 47 43 99q0 68 -92 117 q-69 38 -218 84q-143 45 -193 45q-65 0 -106 -30q-27 -20 -46 -56t-19 -68z" />
<glyph unicode="&#xa8;" horiz-adv-x="1094" d="M149 1301q0 68 48 116q49 48 117 48q64 0 110 -48q45 -48 45 -114q0 -67 -45 -112q-46 -46 -113 -46q-65 0 -114 46q-48 46 -48 110zM626 1301q0 68 49 116q48 48 117 48q63 0 109 -48q45 -48 45 -114q0 -67 -45 -112q-46 -46 -113 -46q-65 0 -113 46q-49 46 -49 110z " />
<glyph unicode="&#xa9;" horiz-adv-x="1870" d="M75 682q0 217 129 400q125 179 346 276q182 81 399 81q229 0 435 -111q206 -112 315 -300q95 -164 95 -346q0 -214 -127 -395q-126 -181 -340 -277q-184 -83 -390 -83q-170 0 -327.5 57t-278.5 162q-123 107 -190 246q-66 140 -66 290zM238 684q0 -123 54 -236.5 t154 -200.5q97 -85 225 -131.5t265 -46.5q138 0 266 47t225 133q98 86 151 198.5t53 233.5q0 124 -54 238.5t-151 198.5q-207 179 -496 179q-133 0 -260.5 -47t-224.5 -131q-99 -85 -153 -199t-54 -236zM487 684q0 184 132 300q125 110 317 110q92 0 158 -24q31 -12 90 -46 l24 57h130v-325h-139q-10 79 -31 114q-60 99 -192 99q-97 0 -153 -62q-70 -77 -70 -222q0 -136 61 -215q56 -71 165 -71q97 0 154 60q32 33 43 71q8 28 13 73h149q-6 -124 -53 -194q-92 -138 -332 -138q-209 0 -331 105q-135 117 -135 308z" />
<glyph unicode="&#xaa;" horiz-adv-x="896" d="M42 820q0 81 69 124q40 24 86 34q35 8 101 19q108 18 146 34q45 20 45 66q0 45 -47 68q-37 18 -94 18q-55 0 -87 -13q71 -14 71 -74q0 -34 -37 -58q-36 -24 -88 -24q-47 0 -84 20q-49 26 -49 79q0 30 19 60t49 48q90 53 252 53q151 0 239 -44q51 -26 65 -67 q10 -29 10 -105v-218q0 -49 38 -49q25 0 34 11q8 11 8 38v56h92v-62q0 -69 -17 -99q-47 -83 -185 -83q-77 0 -123 27q-25 15 -49 56q-63 -51 -119 -67q-58 -16 -118 -16q-82 0 -143 31q-39 20 -61.5 57t-22.5 80zM278 843q0 -20 21 -36q25 -20 71 -20q114 0 114 89v73 q-55 -21 -149 -51q-57 -19 -57 -55z" />
<glyph unicode="&#xab;" horiz-adv-x="1096" d="M101 480q0 70 233 351h190q-117 -219 -136.5 -262.5t-19.5 -84.5q0 -59 68 -172q46 -77 105 -175h-207q-136 172 -163 209q-70 95 -70 134zM548 480q0 70 233 351h190q-49 -92 -98 -185q-58 -108 -58 -162q0 -59 68 -172l106 -175h-208q-136 172 -163 209q-70 95 -70 134 z" />
<glyph unicode="&#xac;" horiz-adv-x="1126" d="M75 301v300h976v-601h-334v301h-642z" />
<glyph unicode="&#xad;" horiz-adv-x="631" d="M0 327v306h631v-306h-631z" />
<glyph unicode="&#xae;" horiz-adv-x="1870" d="M75 682q0 217 129 400q125 179 346 276q182 81 399 81q229 0 435 -111q206 -112 315 -300q95 -164 95 -346q0 -214 -127 -395q-126 -181 -340 -277q-184 -83 -390 -83q-170 0 -327.5 57t-278.5 162q-123 107 -190 246q-66 140 -66 290zM238 684q0 -123 54 -236.5 t154 -200.5q97 -85 225 -131.5t265 -46.5q138 0 266 47t225 133q98 86 151 198.5t53 233.5q0 124 -54 238.5t-151 198.5q-207 179 -496 179q-133 0 -260.5 -47t-224.5 -131q-99 -85 -153 -199t-54 -236zM461 294v114h60q55 1 67 10q11 8 11 49v432q0 41 -11 49 q-12 10 -67 10h-60v114h571q161 0 236 -48q80 -51 80 -146q0 -133 -172 -176q65 -15 92 -43q35 -38 35 -110v-74q0 -75 28 -75q27 0 33 36q3 20 4 83h101v-29q0 -104 -40 -156q-49 -62 -165 -62q-105 0 -161 48q-54 46 -54 153v73q0 64 -21 80q-16 15 -91 16h-107v-175 q0 -41 11 -49q12 -9 67 -10h59v-114h-506zM830 756h91q107 0 147 20q41 19 41 80q0 55 -40 79q-38 23 -137 23h-102v-202z" />
<glyph unicode="&#xb0;" horiz-adv-x="819" d="M102 1093q0 143 104 232q92 80 210 80q132 0 220 -97q80 -87 80 -216q0 -131 -86 -220q-90 -93 -222 -93q-142 0 -233 108q-73 87 -73 206zM217 1091q0 -72 49 -129q57 -66 143 -66q79 0 132 53q58 59 58 143q0 78 -51 135q-56 61 -140 61q-75 0 -131 -54 q-60 -59 -60 -143z" />
<glyph unicode="&#xb1;" horiz-adv-x="1124" d="M20 753v113h485v490h113v-490h485v-113h-485v-489h-113v489h-485zM22 0v113h1073v-113h-1073z" />
<glyph unicode="&#xb2;" horiz-adv-x="850" d="M56 585q0 107 100 191q48 41 115 75q10 5 142 66q115 53 115 131q0 48 -46 77q-47 30 -125 30q-71 0 -118 -24q-25 -14 -52 -55q29 6 47 6q36 0 64 -23q25 -22 25 -53q0 -45 -41 -73q-33 -23 -86 -23q-62 0 -99 33q-40 35 -40 93q0 88 88 151q103 73 261 73 q150 0 252 -57q48 -28 76.5 -74.5t28.5 -99.5q0 -104 -101 -163q-57 -34 -121 -51q-34 -9 -111 -28q-100 -25 -143 -48q-32 -17 -72 -57q90 38 167 38q49 0 183 -24q13 -2 27 -2q72 0 72 97h118q1 -28 1 -42q0 -86 -28 -134q-25 -41 -80.5 -65t-127.5 -24q-67 0 -174 37 q-81 28 -122 28q-49 0 -78 -45h-115q-2 25 -2 39z" />
<glyph unicode="&#xb3;" horiz-adv-x="850" d="M54 715q0 80 73 111q31 13 65 13q49 0 84 -25q37 -28 37 -69q0 -78 -110 -84q56 -30 103 -35q27 -3 57 -3q89 0 139 32q52 34 52 97q0 64 -66 92q-35 14 -142 18v96q84 5 123 20q64 23 64 82q0 66 -77 91q-45 15 -98 15q-80 0 -143 -39h9q96 -3 96 -75q0 -45 -42 -70 q-30 -18 -74 -18q-53 0 -86 25q-36 27 -36 80q0 91 98 145q84 46 225 46q147 0 228 -35q120 -51 120 -149q0 -121 -172 -154q93 -23 136 -53q70 -46 70 -122q0 -83 -66 -141q-91 -81 -334 -81q-154 0 -236 47q-97 57 -97 143z" />
<glyph unicode="&#xb4;" horiz-adv-x="1070" d="M355 1094l293 311q58 62 93 81q36 20 71 20q52 0 85 -37q30 -32 30 -77q0 -73 -109 -127l-344 -171h-119z" />
<glyph unicode="&#xb5;" horiz-adv-x="1180" d="M68 -302q0 52 35 187q24 90 24 157v982h180v-678q0 -101 39 -156q23 -31 64.5 -51t84.5 -20q72 0 142 50q37 26 87 98v757h181v-756q0 -116 46 -159q28 -26 54 -26q54 0 85 74q13 29 17 67l54 -2q-19 -104 -68 -165q-68 -84 -175 -84q-96 0 -145 70q-28 39 -47 122 q-163 -192 -317 -192q-72 0 -139 45q-23 15 -63 49v-29q0 -62 23 -146q39 -138 39 -190q0 -72 -30 -112q-30 -39 -69 -39q-40 0 -68 34q-34 41 -34 113z" />
<glyph unicode="&#xb6;" horiz-adv-x="1502" d="M62 1005q0 117 63 204q57 79 168 117.5t284 38.5h760v-205h-179v-1348h-225v1348h-214v-1348h-225v846q-18 -1 -27 -1q-158 0 -274 79q-62 43 -96.5 113.5t-34.5 155.5z" />
<glyph unicode="&#xb7;" horiz-adv-x="716" d="M168 479q0 74 55 123q58 50 139 50q75 0 129 -50q55 -51 55 -122q0 -73 -55 -122q-56 -50 -133 -50q-78 0 -135 50q-55 49 -55 121z" />
<glyph unicode="&#xb8;" horiz-adv-x="1126" d="M248 -373l56 107q163 -84 290 -84q37 0 66 16q38 21 38 61q0 41 -38 62q-31 18 -71 18q-33 0 -84 -8v201h91v-108q58 7 103 7q97 0 154 -66q42 -48 42 -111q0 -101 -91 -153q-71 -40 -173 -40q-146 0 -383 98z" />
<glyph unicode="&#xb9;" horiz-adv-x="850" d="M157 546v95h60q80 0 91 19q8 11 8 69v321h-159v93q107 6 156 31q40 21 64 66h164v-518q0 -55 16 -69q13 -11 89 -12h58v-95h-547z" />
<glyph unicode="&#xba;" horiz-adv-x="867" d="M34 962q0 149 108 229q111 83 297 83q174 0 286 -83q108 -79 108 -228q0 -148 -108 -228q-111 -83 -291 -83t-292 83q-108 80 -108 227zM283 963q0 -113 34 -155q32 -40 116 -40q85 0 117 40q34 42 34 156q0 113 -34 154q-32 40 -120 40q-81 0 -113 -40q-34 -41 -34 -155 z" />
<glyph unicode="&#xbb;" horiz-adv-x="1096" d="M101 137q124 205 149 254.5t25 92.5q0 55 -57 162l-99 185h189q233 -281 233 -351q0 -42 -88 -159q-19 -25 -145 -184h-207zM548 137l64 105q70 116 90.5 160.5t20.5 81.5q0 55 -58 162l-99 185h190q233 -280 233 -351q0 -42 -89 -159q-18 -25 -144 -184h-208z" />
<glyph unicode="&#xbc;" horiz-adv-x="2069" d="M157 546v95h60q80 0 91 19q8 11 8 69v321h-159v93q107 6 156 31q40 21 64 66h164v-518q0 -55 16 -69q13 -11 89 -12h58v-95h-547zM482 -36l931 1312h187l-920 -1312h-198zM1276 211v110l425 372h184v-382h140v-100h-140v-69q1 -31 16 -37q27 -11 86 -10h38v-95h-499v95 h39q94 1 105 20q6 9 6 50v46h-400zM1410 311h267v223z" />
<glyph unicode="&#xbd;" horiz-adv-x="2069" d="M157 546v95h60q80 0 91 19q8 11 8 69v321h-159v93q107 6 156 31q40 21 64 66h164v-518q0 -55 16 -69q13 -11 89 -12h58v-95h-547zM482 -36l931 1312h187l-920 -1312h-198zM1275 41q0 105 100 189q47 40 115 75q10 5 142 66q61 28 88 59t27 73q0 47 -46 76q-47 30 -125 30 q-70 0 -117 -24q-26 -14 -52 -55q29 6 47 6q35 0 63 -23q25 -22 25 -53q0 -45 -41 -73q-33 -23 -86 -23q-61 0 -99 33q-39 34 -39 93q0 88 88 151q102 73 261 73q150 0 251 -57q48 -28 76.5 -74.5t28.5 -99.5q0 -104 -101 -163q-57 -34 -121 -51q-35 -10 -111 -28 q-100 -25 -142 -48q-32 -17 -73 -57q91 38 168 38q48 0 183 -24q12 -2 27 -2q71 0 72 97h118q1 -30 1 -46q0 -111 -58.5 -165t-177.5 -54q-67 0 -174 37q-81 28 -123 28q-48 0 -78 -45h-114q-3 27 -3 41z" />
<glyph unicode="&#xbe;" horiz-adv-x="2069" d="M54 715q0 80 73 111q31 13 65 13q49 0 84 -25q37 -28 37 -69q0 -78 -110 -84q56 -30 103 -35q27 -3 57 -3q89 0 139 32q52 34 52 97q0 64 -66 92q-35 14 -142 18v96q84 5 123 20q64 23 64 82q0 66 -77 91q-45 15 -98 15q-80 0 -143 -39h9q96 -3 96 -75q0 -45 -42 -70 q-30 -18 -74 -18q-53 0 -86 25q-36 27 -36 80q0 91 98 145q84 46 225 46q147 0 228 -35q120 -51 120 -149q0 -121 -172 -154q93 -23 136 -53q70 -46 70 -122q0 -83 -66 -141q-91 -81 -334 -81q-154 0 -236 47q-97 57 -97 143zM481 -36l931 1312h188l-920 -1312h-199z M1275 211v110l426 372h184v-382h140v-100h-140v-69q1 -31 16 -37q27 -11 86 -10h38v-95h-499v95h39q94 1 105 20q6 9 6 50v46h-401zM1409 311h268v223z" />
<glyph unicode="&#xbf;" horiz-adv-x="1264" d="M101 -74q0 142 106 245q58 57 182 132q114 71 141 112q23 34 39 108h221q1 -26 1 -39q0 -59 -28 -115q-29 -58 -61 -91l-109 -112q-120 -123 -120 -234q0 -96 101 -150q70 -38 158 -38q129 0 210 78q35 33 44 87q-63 -19 -99 -19q-61 0 -102 30q-57 41 -57 120 q0 78 49 122q58 53 162 53q108 0 171 -85q53 -73 53 -169q0 -145 -106 -255q-151 -157 -420 -157q-240 0 -402 117q-134 98 -134 260zM491 822q0 74 55 123q57 50 138 50q75 0 129 -50q56 -51 56 -123q0 -71 -56 -121t-133 -50t-134 50q-55 49 -55 121z" />
<glyph unicode="&#xc0;" horiz-adv-x="1600" d="M-33 0v179h53q76 0 111 24q29 19 63 109l386 1053h446l369 -1061q26 -74 54 -97q29 -27 102 -28h75v-179h-828v179h64q74 0 109 11q26 9 26 33q0 19 -10 47l-58 168h-432l-55 -155q-13 -35 -13 -57q0 -30 30 -39q26 -8 91 -8h75v-179h-658zM471 1698q0 49 41 82 q25 20 57 20q49 0 113 -57l299 -263h-117l-299 112q-94 35 -94 106zM563 617h304l-150 431z" />
<glyph unicode="&#xc1;" horiz-adv-x="1600" d="M-33 0v179h53q76 0 111 24q29 19 63 109l386 1053h446l369 -1061q26 -74 54 -97q29 -27 102 -28h75v-179h-828v179h64q74 0 109 11q26 9 26 33q0 19 -10 47l-58 168h-432l-55 -155q-13 -35 -13 -57q0 -30 30 -39q26 -8 91 -8h75v-179h-658zM563 617h304l-150 431z M599 1480l298 263q65 57 114 57q37 0 65 -27q33 -31 33 -74q0 -72 -94 -107l-299 -112h-117z" />
<glyph unicode="&#xc2;" horiz-adv-x="1600" d="M-33 0v179h53q76 0 111 24q29 19 63 109l386 1053h446l369 -1061q26 -74 54 -97q29 -27 102 -28h75v-179h-828v179h64q74 0 109 11q26 9 26 33q0 19 -10 47l-58 168h-432l-55 -155q-13 -35 -13 -57q0 -30 30 -39q26 -8 91 -8h75v-179h-658zM466 1480l209 299h251 l209 -299h-101l-234 120l-233 -120h-101zM563 617h304l-150 431z" />
<glyph unicode="&#xc3;" horiz-adv-x="1600" d="M-33 0v179h53q76 0 111 24q29 19 63 109l386 1053h446l369 -1061q26 -74 54 -97q29 -27 102 -28h75v-179h-828v179h64q74 0 109 11q26 9 26 33q0 19 -10 47l-58 168h-432l-55 -155q-13 -35 -13 -57q0 -30 30 -39q26 -8 91 -8h75v-179h-658zM473 1480q24 110 51 157 q61 106 179 106q39 0 80 -11l123 -32q25 -7 47 -7q47 0 71 37q10 15 22 49h81q-20 -96 -42 -137q-65 -125 -186 -125q-33 0 -68 9l-118 33q-39 10 -67 10q-66 0 -91 -89h-82zM563 617h304l-150 431z" />
<glyph unicode="&#xc4;" horiz-adv-x="1600" d="M-33 0v179h53q76 0 111 24q29 19 63 109l386 1053h446l369 -1061q26 -74 54 -97q29 -27 102 -28h75v-179h-828v179h64q74 0 109 11q26 9 26 33q0 19 -10 47l-58 168h-432l-55 -155q-13 -35 -13 -57q0 -30 30 -39q26 -8 91 -8h75v-179h-658zM414 1639q0 66 47 113t112 47 q60 0 106 -47q47 -48 47 -111t-47 -109q-46 -45 -109 -45q-62 0 -109 45t-47 107zM563 617h304l-150 431zM884 1639q0 66 47 113t113 47q60 0 106 -47q46 -48 46 -111q0 -64 -46 -109t-109 -45t-110 45t-47 107z" />
<glyph unicode="&#xc5;" horiz-adv-x="1600" d="M-33 0v179h53q76 0 111 24q29 19 63 109l386 1053h446l369 -1061q26 -74 54 -97q29 -27 102 -28h75v-179h-828v179h64q74 0 109 11q26 9 26 33q0 19 -10 47l-58 168h-432l-55 -155q-13 -35 -13 -57q0 -30 30 -39q26 -8 91 -8h75v-179h-658zM563 617h304l-150 431z M566 1664q0 97 69 164q70 67 171 67q94 0 160 -67q69 -69 69 -164t-69 -165q-70 -72 -165 -72q-94 0 -166 72q-69 69 -69 165zM706 1660q0 -38 28 -66q28 -27 66 -27q39 0 67 27t28 66t-28 67t-68 28q-37 0 -65 -28q-28 -29 -28 -67z" />
<glyph unicode="&#xc6;" horiz-adv-x="2506" d="M-22 0v179h30q76 0 118 30q24 16 58 50t45 53l460 756q32 52 32 74q0 44 -129 44h-84v179h1805v-521h-197q-25 133 -45 184q-34 79 -95 115q-62 34 -154 39q-66 4 -168 4h-203v-389h40q134 1 176 44q36 37 41 172h196v-622h-196q-5 85 -13.5 123.5t-27.5 61.5 q-26 33 -77 38q-6 2 -99 2h-40v-437h210q174 1 250 25q115 36 165 171q20 53 40 189h197v-564h-1490v179h102q99 1 124 20q18 13 22 38q3 18 3 60v215h-429l-125 -208q-34 -57 -34 -80q0 -21 23 -34q19 -11 93 -11h75v-179h-699zM751 691h323v495h-31z" />
<glyph unicode="&#xc7;" horiz-adv-x="1644" d="M78 685q0 323 226 526q217 194 546 194q158 0 272 -43q59 -23 170 -88l45 108h208v-555h-222q-17 135 -53 196q-109 182 -346 182q-177 0 -280 -115q-124 -140 -124 -403q0 -247 109 -391q100 -133 298 -133q176 0 281 112q56 61 76 132q13 47 22 121h239 q-10 -247 -142 -391q-169 -180 -545 -177v-74q59 8 103 8q97 0 155 -66q43 -48 43 -109q0 -45 -25 -85.5t-66 -64.5q-71 -40 -174 -40q-145 0 -381 98l56 107q160 -84 284 -84q37 0 66 16q37 21 37 58q0 39 -37 60q-31 18 -70 18q-32 0 -82 -8v171q-218 21 -360 109 q-161 100 -245 255.5t-84 355.5z" />
<glyph unicode="&#xc8;" horiz-adv-x="1678" d="M45 0v179h90q100 1 125 20q18 13 22 38q3 19 3 60v772q0 60 -8 76q-13 28 -56 36q-31 5 -86 5h-90v179h1485v-521h-197q-25 133 -45 184q-34 79 -95 115q-62 34 -154 39q-67 4 -169 4h-204v-389h41q134 1 176 44q36 36 41 172h197v-622h-197q-5 86 -13.5 124.5 t-27.5 60.5q-25 31 -78 38q-31 4 -98 4h-41v-439h211q175 1 251 25q115 36 165 171q20 53 40 189h197v-564h-1485zM502 1698q0 49 41 82q25 20 57 20q49 0 113 -57l299 -263h-117l-299 112q-94 35 -94 106z" />
<glyph unicode="&#xc9;" horiz-adv-x="1678" d="M45 0v179h90q100 1 125 20q18 13 22 38q3 19 3 60v772q0 60 -8 76q-13 28 -56 36q-31 5 -86 5h-90v179h1485v-521h-197q-25 133 -45 184q-34 79 -95 115q-62 34 -154 39q-67 4 -169 4h-204v-389h41q134 1 176 44q36 36 41 172h197v-622h-197q-5 86 -13.5 124.5 t-27.5 60.5q-25 31 -78 38q-31 4 -98 4h-41v-439h211q175 1 251 25q115 36 165 171q20 53 40 189h197v-564h-1485zM660 1480l298 263q65 57 114 57q37 0 65 -27q33 -31 33 -74q0 -72 -94 -107l-299 -112h-117z" />
<glyph unicode="&#xca;" horiz-adv-x="1678" d="M45 0v179h90q100 1 125 20q18 13 22 38q3 19 3 60v772q0 60 -8 76q-13 28 -56 36q-31 5 -86 5h-90v179h1485v-521h-197q-25 133 -45 184q-34 79 -95 115q-62 34 -154 39q-67 4 -169 4h-204v-389h41q134 1 176 44q36 36 41 172h197v-622h-197q-5 86 -13.5 124.5 t-27.5 60.5q-25 31 -78 38q-31 4 -98 4h-41v-439h211q175 1 251 25q115 36 165 171q20 53 40 189h197v-564h-1485zM505 1480l209 299h251l209 -299h-101l-234 120l-233 -120h-101z" />
<glyph unicode="&#xcb;" horiz-adv-x="1678" d="M45 0v179h90q100 1 125 20q18 13 22 38q3 19 3 60v772q0 60 -8 76q-13 28 -56 36q-31 5 -86 5h-90v179h1485v-521h-197q-25 133 -45 184q-34 79 -95 115q-62 34 -154 39q-67 4 -169 4h-204v-389h41q134 1 176 44q36 36 41 172h197v-622h-197q-5 86 -13.5 124.5 t-27.5 60.5q-25 31 -78 38q-31 4 -98 4h-41v-439h211q175 1 251 25q115 36 165 171q20 53 40 189h197v-564h-1485zM448 1639q0 66 47 113t112 47q60 0 106 -47q47 -48 47 -111t-47 -109q-46 -45 -109 -45q-62 0 -109 45t-47 107zM918 1639q0 66 47 113t113 47q60 0 105 -47 q47 -48 47 -111t-47 -109q-45 -45 -108 -45t-110 45t-47 107z" />
<glyph unicode="&#xcc;" horiz-adv-x="985" d="M49 0v179h99q100 1 125 20q18 13 22 38q3 19 3 60v772q0 60 -8 76q-13 28 -56 36q-31 5 -86 5h-99v179h886v-179h-99q-100 -1 -125 -20q-17 -13 -22 -38q-3 -18 -3 -59v-772q0 -61 9 -77q12 -28 55 -36q31 -5 86 -5h99v-179h-886zM155 1698q0 49 41 82q25 20 57 20 q49 0 113 -57l299 -263h-117l-299 112q-94 35 -94 106z" />
<glyph unicode="&#xcd;" horiz-adv-x="985" d="M49 0v179h99q100 1 125 20q18 13 22 38q3 19 3 60v772q0 60 -8 76q-13 28 -56 36q-31 5 -86 5h-99v179h886v-179h-99q-100 -1 -125 -20q-17 -13 -22 -38q-3 -18 -3 -59v-772q0 -61 9 -77q12 -28 55 -36q31 -5 86 -5h99v-179h-886zM313 1480l298 263q65 57 114 57 q37 0 65 -27q33 -31 33 -74q0 -72 -94 -107l-299 -112h-117z" />
<glyph unicode="&#xce;" horiz-adv-x="985" d="M49 0v179h99q100 1 125 20q18 13 22 38q3 19 3 60v772q0 60 -8 76q-13 28 -56 36q-31 5 -86 5h-99v179h886v-179h-99q-100 -1 -125 -20q-17 -13 -22 -38q-3 -18 -3 -59v-772q0 -61 9 -77q12 -28 55 -36q31 -5 86 -5h99v-179h-886zM158 1480l209 299h251l209 -299h-101 l-234 120l-233 -120h-101z" />
<glyph unicode="&#xcf;" horiz-adv-x="985" d="M49 0v179h99q100 1 125 20q18 13 22 38q3 19 3 60v772q0 60 -8 76q-13 28 -56 36q-31 5 -86 5h-99v179h886v-179h-99q-100 -1 -125 -20q-17 -13 -22 -38q-3 -18 -3 -59v-772q0 -61 9 -77q12 -28 55 -36q31 -5 86 -5h99v-179h-886zM112 1639q0 66 47 113t112 47 q60 0 106 -47q47 -48 47 -111t-47 -109q-46 -45 -109 -45q-62 0 -109 45t-47 107zM559 1639q0 66 47 113t113 47q60 0 105 -47q47 -48 47 -111t-47 -109q-45 -45 -108 -45t-110 45t-47 107z" />
<glyph unicode="&#xd0;" horiz-adv-x="1801" d="M11 627v165h279v277q0 60 -9 76q-12 28 -55 36q-31 5 -86 5h-90v179h786q320 0 486 -64q406 -156 406 -618q0 -360 -248 -535q-127 -89 -273 -117q-164 -31 -371 -31h-786v179h90q100 1 125 20q17 13 22 38q3 19 3 60v330h-279zM671 179h164q258 0 357 128q93 119 93 377 q0 318 -144 426q-58 43 -134 60q-71 16 -184 16h-152v-394h306v-165h-306v-448z" />
<glyph unicode="&#xd1;" horiz-adv-x="1835" d="M45 0v179h85q96 1 121 20q17 13 21 38q3 18 3 60v772q0 61 -8 76q-12 28 -54 36q-30 5 -83 5h-85v179h719l586 -953v657q0 61 -8 76q-12 28 -54 36q-30 5 -83 5h-90v179h684v-179h-73q-97 -1 -122 -20q-17 -13 -21 -38q-3 -18 -3 -59v-1069h-447l-628 1015v-718 q0 -61 8 -77q12 -28 54 -36q30 -5 83 -5h90v-179h-695zM590 1480q24 110 51 157q61 106 179 106q39 0 80 -11l123 -32q25 -7 47 -7q47 0 71 37q10 15 22 49h81q-20 -96 -42 -137q-65 -125 -186 -125q-33 0 -68 9l-118 33q-39 10 -67 10q-66 0 -91 -89h-82z" />
<glyph unicode="&#xd2;" horiz-adv-x="1834" d="M75 680q0 344 230 535q118 99 268 144.5t357 45.5q378 0 600 -190q229 -196 229 -533t-229 -533q-221 -190 -613 -190q-391 0 -612 190q-230 197 -230 531zM518 681q0 -205 40 -309q87 -225 359 -225q209 0 308 133q48 65 69.5 158.5t21.5 238.5q0 211 -40 315 q-86 225 -366 225q-201 0 -301 -133q-48 -65 -69.5 -159.5t-21.5 -243.5zM580 1698q0 49 41 82q25 20 57 20q49 0 113 -57l299 -263h-117l-299 112q-94 35 -94 106z" />
<glyph unicode="&#xd3;" horiz-adv-x="1834" d="M75 680q0 344 230 535q118 99 268 144.5t357 45.5q378 0 600 -190q229 -196 229 -533t-229 -533q-221 -190 -613 -190q-391 0 -612 190q-230 197 -230 531zM518 681q0 -205 40 -309q87 -225 359 -225q209 0 308 133q48 65 69.5 158.5t21.5 238.5q0 211 -40 315 q-86 225 -366 225q-201 0 -301 -133q-48 -65 -69.5 -159.5t-21.5 -243.5zM738 1480l298 263q65 57 114 57q37 0 65 -27q33 -31 33 -74q0 -72 -94 -107l-299 -112h-117z" />
<glyph unicode="&#xd4;" horiz-adv-x="1834" d="M75 680q0 344 230 535q118 99 268 144.5t357 45.5q378 0 600 -190q229 -196 229 -533t-229 -533q-221 -190 -613 -190q-391 0 -612 190q-230 197 -230 531zM518 681q0 -205 40 -309q87 -225 359 -225q209 0 308 133q48 65 69.5 158.5t21.5 238.5q0 211 -40 315 q-86 225 -366 225q-201 0 -301 -133q-48 -65 -69.5 -159.5t-21.5 -243.5zM583 1480l209 299h251l209 -299h-101l-234 120l-233 -120h-101z" />
<glyph unicode="&#xd5;" horiz-adv-x="1834" d="M75 680q0 344 230 535q118 99 268 144.5t357 45.5q378 0 600 -190q229 -196 229 -533t-229 -533q-221 -190 -613 -190q-391 0 -612 190q-230 197 -230 531zM518 681q0 -205 40 -309q87 -225 359 -225q209 0 308 133q48 65 69.5 158.5t21.5 238.5q0 211 -40 315 q-86 225 -366 225q-201 0 -301 -133q-48 -65 -69.5 -159.5t-21.5 -243.5zM590 1480q24 110 51 157q61 106 179 106q39 0 80 -11l123 -32q25 -7 47 -7q47 0 71 37q10 15 22 49h81q-20 -96 -42 -137q-65 -125 -186 -125q-33 0 -68 9l-118 33q-39 10 -67 10q-66 0 -91 -89h-82z " />
<glyph unicode="&#xd6;" horiz-adv-x="1834" d="M78 680q0 344 230 535q118 99 268 144.5t357 45.5q378 0 600 -190q229 -196 229 -533t-229 -533q-221 -190 -613 -190q-391 0 -612 190q-230 197 -230 531zM521 681q0 -205 40 -309q87 -225 359 -225q209 0 308 133q48 65 69.5 158.5t21.5 238.5q0 211 -40 315 q-86 225 -366 225q-201 0 -301 -133q-48 -65 -69.5 -159.5t-21.5 -243.5zM545 1639q0 66 47 113t112 47q60 0 106 -47q47 -48 47 -111t-47 -109q-46 -45 -109 -45q-62 0 -109 45t-47 107zM1015 1639q0 66 47 113t113 47q60 0 106 -47q46 -48 46 -111q0 -64 -46 -109 t-109 -45t-110 45t-47 107z" />
<glyph unicode="&#xd7;" d="M202 358l320 291l-320 290l188 172l320 -291l320 291l188 -172l-320 -290l320 -291l-188 -171l-320 290l-320 -290z" />
<glyph unicode="&#xd8;" horiz-adv-x="1834" d="M75 682q0 337 230 533q221 190 609 190q328 0 533 -129l167 154l121 -111l-160 -146q184 -195 184 -491q0 -337 -229 -533q-222 -190 -610 -190q-325 0 -530 127l-165 -151l-120 111l156 143q-186 195 -186 493zM518 694q0 -143 20 -251l692 634q-105 140 -312 140 q-211 0 -309 -133q-47 -64 -69 -157.5t-22 -232.5zM606 284q104 -137 310 -137q211 0 309 133q92 124 92 385q0 135 -20 253z" />
<glyph unicode="&#xd9;" horiz-adv-x="1723" d="M45 1191v174h853v-174q-59 2 -86 2q-95 0 -128 -28q-26 -22 -30 -66q-3 -32 -3 -106v-548q0 -105 18 -154q50 -131 254 -131q180 0 255 69q46 41 59 95q8 32 8 105v552q0 109 -14 146q-19 51 -88 61q-26 3 -85 3h-42v174h671v-174q-103 -2 -144.5 -8.5t-56.5 -23.5 q-16 -8 -18 -71q-2 -43 -2 -107v-578q0 -88 -30.5 -167.5t-84.5 -131.5q-151 -146 -497 -146q-299 0 -456 136q-67 58 -96 128q-28 68 -28 164v600q0 128 -31 167q-31 41 -133 41q-16 0 -65 -3zM524 1698q0 49 41 82q25 20 57 20q49 0 113 -57l299 -263h-117l-299 112 q-94 35 -94 106z" />
<glyph unicode="&#xda;" horiz-adv-x="1723" d="M45 1191v174h853v-174q-59 2 -86 2q-95 0 -128 -28q-26 -22 -30 -66q-3 -32 -3 -106v-548q0 -105 18 -154q50 -131 254 -131q180 0 255 69q46 41 59 95q8 32 8 105v552q0 109 -14 146q-19 51 -88 61q-26 3 -85 3h-42v174h671v-174q-103 -2 -144.5 -8.5t-56.5 -23.5 q-16 -8 -18 -71q-2 -43 -2 -107v-578q0 -88 -30.5 -167.5t-84.5 -131.5q-151 -146 -497 -146q-299 0 -456 136q-67 58 -96 128q-28 68 -28 164v600q0 128 -31 167q-31 41 -133 41q-16 0 -65 -3zM682 1480l298 263q65 57 114 57q37 0 65 -27q33 -31 33 -74q0 -72 -94 -107 l-299 -112h-117z" />
<glyph unicode="&#xdb;" horiz-adv-x="1723" d="M45 1191v174h853v-174q-59 2 -86 2q-95 0 -128 -28q-26 -22 -30 -66q-3 -32 -3 -106v-548q0 -105 18 -154q50 -131 254 -131q180 0 255 69q46 41 59 95q8 32 8 105v552q0 109 -14 146q-19 51 -88 61q-26 3 -85 3h-42v174h671v-174q-103 -2 -144.5 -8.5t-56.5 -23.5 q-16 -8 -18 -71q-2 -43 -2 -107v-578q0 -88 -30.5 -167.5t-84.5 -131.5q-151 -146 -497 -146q-299 0 -456 136q-67 58 -96 128q-28 68 -28 164v600q0 128 -31 167q-31 41 -133 41q-16 0 -65 -3zM557 1480l209 299h251l209 -299h-101l-234 120l-233 -120h-101z" />
<glyph unicode="&#xdc;" horiz-adv-x="1723" d="M45 1191v174h853v-174q-59 2 -86 2q-95 0 -128 -28q-26 -22 -30 -66q-3 -32 -3 -106v-548q0 -105 18 -154q50 -131 254 -131q180 0 255 69q46 41 59 95q8 32 8 105v552q0 109 -14 146q-19 51 -88 61q-26 3 -85 3h-42v174h671v-174q-103 -2 -144.5 -8.5t-56.5 -23.5 q-16 -8 -18 -71q-2 -43 -2 -107v-578q0 -88 -30.5 -167.5t-84.5 -131.5q-151 -146 -497 -146q-299 0 -456 136q-67 58 -96 128q-28 68 -28 164v600q0 128 -31 167q-31 41 -133 41q-16 0 -65 -3zM545 1639q0 66 47 113t112 47q60 0 106 -47q47 -48 47 -111t-47 -109 q-46 -45 -109 -45q-62 0 -109 45t-47 107zM1015 1639q0 66 47 113t113 47q60 0 105 -47q47 -48 47 -111t-47 -109q-45 -45 -108 -45t-110 45t-47 107z" />
<glyph unicode="&#xdd;" horiz-adv-x="1745" d="M56 1191v174h860v-174h-68q-85 0 -85 -45q0 -28 47 -99l165 -246l190 279q30 43 30 67q0 26 -34 36q-30 8 -111 8v174h637v-174q-64 -3 -98.5 -11t-64.5 -28q-37 -26 -60 -57l-47 -65l-347 -467v-250q1 -89 26 -115q18 -19 54 -22q18 -2 71 -2h113v-174h-907v174h113 q77 0 95 7q40 12 50 55q6 24 6 77v250l-347 468q-47 64 -67.5 85.5t-48.5 36.5q-50 27 -172 38zM694 1480l298 263q65 57 114 57q37 0 65 -27q33 -31 33 -74q0 -72 -94 -107l-299 -112h-117z" />
<glyph unicode="&#xde;" horiz-adv-x="1633" d="M45 0v179h83q92 1 115 20q16 13 20 38q3 18 3 60v799q0 52 -23 70q-22 19 -115 20h-83v179h887v-179h-108q-92 -1 -115 -20q-23 -18 -23 -70v-15h286q246 0 358 -44q129 -50 190 -159q45 -81 45 -183q0 -188 -143 -289q-81 -57 -171 -73q-118 -21 -279 -21h-286v-15 q0 -62 8 -77q11 -28 50 -36q29 -5 80 -5h108v-179h-887zM686 491h139q142 0 207 21q133 43 133 185q0 108 -73 155q-49 31 -107 40q-72 10 -160 10h-139v-411z" />
<glyph unicode="&#xdf;" horiz-adv-x="1398" d="M45 0v171q97 1 117 30q12 19 12 127v592q0 194 43 272q117 213 496 213q237 0 378 -75q133 -72 133 -216q0 -124 -99 -199q-54 -41 -186 -74q118 -28 171 -55q204 -103 204 -353q0 -197 -109 -329q-108 -130 -295 -130q-74 0 -136.5 24.5t-95.5 66.5q-47 60 -47 166v127 h147v-128q0 -82 97 -82q71 0 82 62q6 32 6 234q0 109 -24 177q-28 75 -143 109q-47 13 -109 13q-12 0 -38 -1v166q137 3 190 51q57 51 57 129q0 91 -74 129q-52 26 -122 26q-91 0 -142 -38q-41 -31 -48 -83q-6 -41 -6 -124v-998h-459z" />
<glyph unicode="&#xe0;" horiz-adv-x="1376" d="M67 238q0 131 103 200q60 40 130 56q53 13 157 32q170 31 229 59q78 36 78 122q0 83 -80 125q-62 33 -148 33q-44 0 -88 -7q-36 -5 -89 -34q67 -7 101.5 -37t34.5 -81q0 -52 -52 -89q-54 -39 -130 -39q-69 0 -125 32q-71 41 -71 124q0 49 28 97t73 77q137 88 389 88 q233 0 365 -73q77 -43 97 -107q15 -47 15 -175v-370q0 -92 70 -92q46 0 62 25q13 20 13 67v84h122v-94q0 -113 -25 -162q-69 -134 -278 -134q-116 0 -186 44q-41 26 -80 103q-61 -56 -99.5 -80t-92.5 -41q-88 -27 -182 -27q-126 0 -216 52q-58 32 -91.5 92t-33.5 130z M259 1391q0 46 30 78q34 37 86 37q41 0 83 -28q30 -19 81 -73l293 -311h-119l-345 171q-109 55 -109 126zM414 277q0 -39 35 -70q42 -38 120 -38q95 0 149 52q38 38 38 111v143q-95 -41 -246 -95q-96 -34 -96 -103z" />
<glyph unicode="&#xe1;" horiz-adv-x="1376" d="M67 238q0 131 103 200q60 40 130 56q53 13 157 32q170 31 229 59q78 36 78 122q0 83 -80 125q-62 33 -148 33q-44 0 -88 -7q-36 -5 -89 -34q67 -7 101.5 -37t34.5 -81q0 -52 -52 -89q-54 -39 -130 -39q-69 0 -125 32q-71 41 -71 124q0 49 28 97t73 77q137 88 389 88 q233 0 365 -73q77 -43 97 -107q15 -47 15 -175v-370q0 -92 70 -92q46 0 62 25q13 20 13 67v84h122v-94q0 -113 -25 -162q-69 -134 -278 -134q-116 0 -186 44q-41 26 -80 103q-61 -56 -99.5 -80t-92.5 -41q-88 -27 -182 -27q-126 0 -216 52q-58 32 -91.5 92t-33.5 130z M414 277q0 -39 35 -70q42 -38 120 -38q95 0 149 52q38 38 38 111v143q-95 -41 -246 -95q-96 -34 -96 -103zM463 1094l293 311q58 62 93 81q36 20 71 20q52 0 85 -37q30 -32 30 -77q0 -73 -109 -127l-344 -171h-119z" />
<glyph unicode="&#xe2;" horiz-adv-x="1376" d="M67 238q0 131 103 200q60 40 130 56q53 13 157 32q170 31 229 59q78 36 78 122q0 83 -80 125q-62 33 -148 33q-44 0 -88 -7q-36 -5 -89 -34q67 -7 101.5 -37t34.5 -81q0 -52 -52 -89q-54 -39 -130 -39q-69 0 -125 32q-71 41 -71 124q0 49 28 97t73 77q137 88 389 88 q233 0 365 -73q77 -43 97 -107q15 -47 15 -175v-370q0 -92 70 -92q46 0 62 25q13 20 13 67v84h122v-94q0 -113 -25 -162q-69 -134 -278 -134q-116 0 -186 44q-41 26 -80 103q-61 -56 -99.5 -80t-92.5 -41q-88 -27 -182 -27q-126 0 -216 52q-58 32 -91.5 92t-33.5 130z M320 1093l241 390h195l241 -390h-106l-233 180l-232 -180h-106zM414 277q0 -39 35 -70q42 -38 120 -38q95 0 149 52q38 38 38 111v143q-95 -41 -246 -95q-96 -34 -96 -103z" />
<glyph unicode="&#xe3;" horiz-adv-x="1376" d="M67 238q0 131 103 200q60 40 130 56q53 13 157 32q170 31 229 59q78 36 78 122q0 83 -80 125q-62 33 -148 33q-44 0 -88 -7q-36 -5 -89 -34q67 -7 101.5 -37t34.5 -81q0 -52 -52 -89q-54 -39 -130 -39q-69 0 -125 32q-71 41 -71 124q0 49 28 97t73 77q137 88 389 88 q233 0 365 -73q77 -43 97 -107q15 -47 15 -175v-370q0 -92 70 -92q46 0 62 25q13 20 13 67v84h122v-94q0 -113 -25 -162q-69 -134 -278 -134q-116 0 -186 44q-41 26 -80 103q-61 -56 -99.5 -80t-92.5 -41q-88 -27 -182 -27q-126 0 -216 52q-58 32 -91.5 92t-33.5 130z M299 1125q28 126 61 177q65 103 181 103q41 0 85 -12l127 -33q26 -7 49 -7q49 0 74 40q10 16 24 57h87q-25 -107 -47 -151q-65 -129 -195 -129q-35 0 -70 10l-123 33q-40 11 -69 11q-70 0 -96 -99h-88zM414 277q0 -39 35 -70q42 -38 120 -38q95 0 149 52q38 38 38 111v143 q-95 -41 -246 -95q-96 -34 -96 -103z" />
<glyph unicode="&#xe4;" horiz-adv-x="1376" d="M67 238q0 131 103 200q60 40 130 56q53 13 157 32q170 31 229 59q78 36 78 122q0 83 -80 125q-62 33 -148 33q-44 0 -88 -7q-36 -5 -89 -34q67 -7 101.5 -37t34.5 -81q0 -52 -52 -89q-54 -39 -130 -39q-69 0 -125 32q-71 41 -71 124q0 49 28 97t73 77q137 88 389 88 q233 0 365 -73q77 -43 97 -107q15 -47 15 -175v-370q0 -92 70 -92q46 0 62 25q13 20 13 67v84h122v-94q0 -113 -25 -162q-69 -134 -278 -134q-116 0 -186 44q-41 26 -80 103q-61 -56 -99.5 -80t-92.5 -41q-88 -27 -182 -27q-126 0 -216 52q-58 32 -91.5 92t-33.5 130z M265 1301q0 68 48 116q49 48 117 48q64 0 110 -48q45 -48 45 -114q0 -67 -45 -112q-46 -46 -113 -46q-65 0 -114 46q-48 46 -48 110zM414 277q0 -39 35 -70q42 -38 120 -38q95 0 149 52q38 38 38 111v143q-95 -41 -246 -95q-96 -34 -96 -103zM742 1301q0 68 49 116 q48 48 117 48q63 0 109 -48q45 -48 45 -114q0 -67 -45 -112q-46 -46 -113 -46q-65 0 -113 46q-49 46 -49 110z" />
<glyph unicode="&#xe5;" horiz-adv-x="1376" d="M67 238q0 131 103 200q60 40 130 56q53 13 157 32q170 31 229 59q78 36 78 122q0 83 -80 125q-62 33 -148 33q-44 0 -88 -7q-36 -5 -89 -34q67 -7 101.5 -37t34.5 -81q0 -52 -52 -89q-54 -39 -130 -39q-69 0 -125 32q-71 41 -71 124q0 49 28 97t73 77q137 88 389 88 q233 0 365 -73q77 -43 97 -107q15 -47 15 -175v-370q0 -92 70 -92q46 0 62 25q13 20 13 67v84h122v-94q0 -113 -25 -162q-69 -134 -278 -134q-116 0 -186 44q-41 26 -80 103q-61 -56 -99.5 -80t-92.5 -41q-88 -27 -182 -27q-126 0 -216 52q-58 32 -91.5 92t-33.5 130z M358 1339q0 119 82 201t204 82q110 0 191 -82q82 -84 82 -198q0 -116 -82 -198q-82 -81 -197 -81t-198 81q-82 80 -82 195zM414 277q0 -39 35 -70q42 -38 120 -38q95 0 149 52q38 38 38 111v143q-95 -41 -246 -95q-96 -34 -96 -103zM514 1342q0 -52 36 -88q35 -36 87 -36 q51 0 88 36q36 35 36 86q0 53 -36 90q-37 37 -91 37q-49 0 -84 -37q-36 -38 -36 -88z" />
<glyph unicode="&#xe6;" horiz-adv-x="1857" d="M67 238q0 130 101 199q58 41 127 57q51 12 154 32q166 31 225 59q76 35 76 122q0 83 -79 125q-60 33 -144 33q-43 0 -86 -7q-36 -5 -88 -34q65 -7 99 -37t34 -81q0 -52 -51 -89q-53 -39 -127 -39q-68 0 -122 32q-73 44 -73 120q0 119 130 190q141 77 351 77 q115 0 213 -32q67 -21 132 -75q75 52 126 71q86 33 198 33q261 0 406 -155q129 -137 129 -350q0 -15 -1 -51h-727q3 -108 20 -155q48 -126 197 -126q122 0 180 64q28 31 46 104h270q-47 -121 -87 -175q-72 -95 -197 -143q-109 -42 -244 -42q-177 0 -302 76q-49 30 -123 99 q-96 -87 -174 -123q-115 -54 -247 -54q-129 0 -219 52q-57 33 -90 93t-33 130zM412 277q0 -39 33 -70q41 -38 116 -38q91 0 142 52q36 38 36 111v142q-90 -40 -235 -94q-92 -35 -92 -103zM1079 603h342q0 86 -15 122q-38 93 -151 93q-45 0 -85.5 -20t-59.5 -52 q-21 -35 -31 -143z" />
<glyph unicode="&#xe7;" horiz-adv-x="1118" d="M56 483q0 234 147 373q148 140 407 140q202 0 334 -87q135 -89 135 -244q0 -116 -86 -169q-62 -38 -144 -38q-78 0 -129 38q-58 43 -58 124q0 82 62 124q34 23 112 25q-32 24 -51 33q-46 24 -113 24q-259 0 -259 -331q0 -147 42 -237q49 -106 182 -106q109 0 158 65 q27 37 37 121h238q-4 -183 -159 -294q-117 -81 -323 -79v-73q57 7 102 7q97 0 153 -66q42 -48 42 -111q0 -47 -24.5 -88t-65.5 -65q-71 -40 -173 -40q-144 0 -380 98l56 107q161 -84 287 -84q36 0 65 16q38 21 38 61q0 41 -38 62q-31 18 -70 18q-33 0 -83 -8v173 q-156 22 -250 90q-94 69 -143 180q-48 110 -48 241z" />
<glyph unicode="&#xe8;" horiz-adv-x="1242" d="M67 479q0 225 141 364q150 148 422 148q338 0 480 -226q75 -117 75 -279v-48h-728q3 -108 21 -155q47 -126 196 -126q119 0 181 62q30 31 46 106h266q-105 -360 -534 -360q-234 0 -381 114q-185 145 -185 400zM199 1391q0 46 30 78q34 37 86 37q41 0 83 -28 q30 -19 81 -73l293 -311h-119l-345 171q-109 55 -109 126zM463 603h343q-2 105 -35 151q-45 63 -133 63q-42 0 -81 -18.5t-59 -47.5q-26 -39 -35 -148z" />
<glyph unicode="&#xe9;" horiz-adv-x="1242" d="M67 479q0 225 141 364q150 148 422 148q338 0 480 -226q75 -117 75 -279v-48h-728q3 -108 21 -155q47 -126 196 -126q119 0 181 62q30 31 46 106h266q-105 -360 -534 -360q-234 0 -381 114q-185 145 -185 400zM441 1094l293 311q58 62 93 81q36 20 71 20q52 0 85 -37 q30 -32 30 -77q0 -73 -109 -127l-344 -171h-119zM463 603h343q-2 105 -35 151q-45 63 -133 63q-42 0 -81 -18.5t-59 -47.5q-26 -39 -35 -148z" />
<glyph unicode="&#xea;" horiz-adv-x="1242" d="M67 479q0 225 141 364q150 148 422 148q338 0 480 -226q75 -117 75 -279v-48h-728q3 -108 21 -155q47 -126 196 -126q119 0 181 62q30 31 46 106h266q-105 -360 -534 -360q-234 0 -381 114q-185 145 -185 400zM282 1093l241 390h195l241 -390h-106l-233 180l-232 -180 h-106zM463 603h343q-2 105 -35 151q-45 63 -133 63q-42 0 -81 -18.5t-59 -47.5q-26 -39 -35 -148z" />
<glyph unicode="&#xeb;" horiz-adv-x="1242" d="M67 479q0 225 141 364q150 148 422 148q338 0 480 -226q75 -117 75 -279v-48h-728q3 -108 21 -155q47 -126 196 -126q119 0 181 62q30 31 46 106h266q-105 -360 -534 -360q-234 0 -381 114q-185 145 -185 400zM222 1301q0 68 48 116q49 48 117 48q64 0 110 -48 q45 -48 45 -114q0 -67 -45 -112q-46 -46 -113 -46q-65 0 -114 46q-48 46 -48 110zM463 603h343q-2 105 -35 151q-45 63 -133 63q-42 0 -81 -18.5t-59 -47.5q-26 -39 -35 -148zM699 1301q0 68 49 116q48 48 117 48q63 0 109 -48q45 -48 45 -114q0 -67 -45 -112 q-46 -46 -113 -46q-65 0 -113 46q-49 46 -49 110z" />
<glyph unicode="&#xec;" horiz-adv-x="805" d="M56 0v165h67q68 0 87 21q17 16 17 75v411q0 82 -13 100q-16 20 -88 20h-70v169h532v-700q0 -60 17 -75q17 -21 94 -21h64v-165h-707zM115 1397q0 45 35 75q29 24 73 24t78 -28q24 -19 58 -68l208 -303h-102l-253 171q-97 66 -97 129z" />
<glyph unicode="&#xed;" horiz-adv-x="805" d="M56 0v165h67q68 0 87 21q17 16 17 75v411q0 82 -13 100q-16 20 -88 20h-70v169h532v-700q0 -60 17 -75q17 -21 94 -21h64v-165h-707zM185 1097l209 303q38 56 67 75q30 21 69 21q50 0 80 -31q28 -28 28 -68q0 -63 -97 -129l-254 -171h-102z" />
<glyph unicode="&#xee;" horiz-adv-x="795" d="M45 0v165h67q68 0 87 21q17 16 17 75v411q0 81 -13 100q-16 20 -88 20h-70v169h532v-700q0 -60 17 -75q17 -21 94 -21h64v-165h-707zM65 1096l207 380h194l206 -380h-102l-202 184l-201 -184h-102z" />
<glyph unicode="&#xef;" horiz-adv-x="773" d="M-20 1301q0 68 48 116q49 48 117 48q64 0 110 -48q45 -48 45 -114q0 -67 -45 -112q-46 -46 -113 -46q-65 0 -114 46q-48 46 -48 110zM40 0v165h67q68 0 87 21q17 16 17 75v411q0 82 -13 100q-16 20 -88 20h-70v169h532v-700q0 -60 17 -75q17 -21 94 -21h64v-165h-707z M433 1301q0 68 48 116q49 48 117 48q64 0 110 -48q45 -48 45 -114q0 -67 -45 -112q-46 -46 -113 -46q-65 0 -114 46q-48 46 -48 110z" />
<glyph unicode="&#xf0;" horiz-adv-x="1354" d="M77 481q0 251 168 382q164 128 392 128q40 0 77 -9q-23 35 -94 133l-185 -68l-61 127l169 61q-58 78 -100 130h233l32 -27l31 -27l207 73l62 -125l-159 -57q174 -172 247 -255q104 -118 149 -214q56 -121 56 -256q0 -245 -170 -379q-170 -133 -443 -133q-271 0 -443 133 q-168 130 -168 383zM444 480q0 -193 54 -268q52 -73 191 -73t191 73q54 75 54 265q0 198 -54 271q-53 74 -196 74q-133 0 -186 -74q-54 -73 -54 -268z" />
<glyph unicode="&#xf1;" horiz-adv-x="1488" d="M45 0v165h67q76 0 97 21q19 17 19 75v439q0 59 -19 76q-21 20 -97 20h-67v165h523v-149q87 100 162 133q96 43 209 43q171 0 262 -83q51 -48 63 -119q11 -63 11 -154v-371q0 -58 20 -75q20 -21 97 -21h56v-165h-658v165h27q78 0 99 21q20 17 20 75v371q0 172 -170 172 q-111 0 -163 -77q-36 -54 -36 -141v-325q0 -58 20 -75q21 -21 99 -21h27v-165h-668zM400 1125q28 126 61 177q65 103 181 103q41 0 85 -12l127 -33q26 -7 49 -7q49 0 74 40q10 16 24 57h87q-25 -107 -47 -151q-65 -129 -195 -129q-35 0 -70 10l-123 33q-40 11 -69 11 q-70 0 -96 -99h-88z" />
<glyph unicode="&#xf2;" horiz-adv-x="1331" d="M53 479q0 247 165 380q170 137 456 137q270 0 438 -137q165 -135 165 -379q0 -242 -165 -377q-167 -138 -447 -138t-447 138q-165 135 -165 376zM236 1391q0 46 30 78q34 37 86 37q41 0 83 -28q30 -19 81 -73l293 -311h-119l-345 171q-109 55 -109 126zM420 480 q0 -193 54 -268q52 -73 191 -73t191 73q54 75 54 265q0 198 -54 271q-53 74 -196 74q-133 0 -186 -74q-54 -73 -54 -268z" />
<glyph unicode="&#xf3;" horiz-adv-x="1331" d="M53 479q0 247 165 380q170 137 456 137q270 0 438 -137q165 -135 165 -379q0 -242 -165 -377q-167 -138 -447 -138t-447 138q-165 135 -165 376zM420 480q0 -193 54 -268q52 -73 191 -73t191 73q54 75 54 265q0 198 -54 271q-53 74 -196 74q-133 0 -186 -74 q-54 -73 -54 -268zM486 1094l293 311q58 62 93 81q36 20 71 20q52 0 85 -37q30 -32 30 -77q0 -73 -109 -127l-344 -171h-119z" />
<glyph unicode="&#xf4;" horiz-adv-x="1331" d="M53 479q0 247 165 380q170 137 456 137q270 0 438 -137q165 -135 165 -379q0 -242 -165 -377q-167 -138 -447 -138t-447 138q-165 135 -165 376zM327 1093l241 390h195l241 -390h-106l-233 180l-232 -180h-106zM420 480q0 -193 54 -268q52 -73 191 -73t191 73 q54 75 54 265q0 198 -54 271q-53 74 -196 74q-133 0 -186 -74q-54 -73 -54 -268z" />
<glyph unicode="&#xf5;" horiz-adv-x="1331" d="M53 479q0 247 165 380q170 137 456 137q270 0 438 -137q165 -135 165 -379q0 -242 -165 -377q-167 -138 -447 -138t-447 138q-165 135 -165 376zM321 1125q28 126 61 177q65 103 181 103q41 0 85 -12l127 -33q26 -7 49 -7q49 0 74 40q10 16 24 57h87q-25 -107 -47 -151 q-65 -129 -195 -129q-35 0 -70 10l-123 33q-40 11 -69 11q-70 0 -96 -99h-88zM420 480q0 -193 54 -268q52 -73 191 -73t191 73q54 75 54 265q0 198 -54 271q-53 74 -196 74q-133 0 -186 -74q-54 -73 -54 -268z" />
<glyph unicode="&#xf6;" horiz-adv-x="1331" d="M56 479q0 247 165 380q170 137 456 137q270 0 438 -137q165 -135 165 -379q0 -242 -165 -377q-167 -138 -447 -138t-447 138q-165 135 -165 376zM285 1301q0 68 48 116q49 48 117 48q64 0 110 -48q45 -48 45 -114q0 -67 -45 -112q-46 -46 -113 -46q-65 0 -114 46 q-48 46 -48 110zM423 480q0 -193 54 -268q52 -73 191 -73t191 73q54 75 54 265q0 198 -54 271q-53 74 -196 74q-133 0 -186 -74q-54 -73 -54 -268zM762 1301q0 68 49 116q48 48 117 48q63 0 109 -48q45 -48 45 -114q0 -67 -45 -112q-46 -46 -113 -46q-65 0 -113 46 q-49 46 -49 110z" />
<glyph unicode="&#xf7;" horiz-adv-x="1124" d="M20 489v113h1077v-113h-1077zM432 131q0 54 42 92q35 33 87 33q54 0 91 -42q33 -36 33 -84q0 -57 -42 -94q-36 -33 -85 -33q-56 0 -93 42q-33 36 -33 86zM432 950q0 54 42 92q36 33 87 33q53 0 91 -42q33 -36 33 -84q0 -57 -42 -94q-36 -33 -85 -33q-56 0 -93 42 q-33 36 -33 86z" />
<glyph unicode="&#xf8;" horiz-adv-x="1331" d="M53 482q0 241 165 377q167 137 446 137q206 0 359 -78l124 117l112 -96l-116 -108q134 -137 134 -351q0 -242 -165 -377q-167 -138 -445 -138q-209 0 -364 80l-139 -129l-102 100l123 115q-132 137 -132 351zM420 488q0 -63 7 -129l423 398q-58 65 -188 65 q-136 0 -188 -74q-54 -74 -54 -260zM477 208q57 -69 191 -69q136 0 188 73q54 75 54 261q0 69 -7 133z" />
<glyph unicode="&#xf9;" horiz-adv-x="1488" d="M33 795v165l481 1v-632q0 -172 181 -172q210 0 210 233v309q0 59 -16 76q-17 20 -80 20h-21v165l456 1v-701q0 -58 21 -75q21 -20 101 -21h71v-165l-538 1v149q-90 -100 -166 -133q-98 -43 -215 -43q-174 0 -267 83q-53 48 -65 119q-11 61 -11 154v370q0 59 -16 76 q-17 20 -80 20h-46zM314 1391q0 46 30 78q34 37 86 37q41 0 83 -28q30 -19 81 -73l293 -311h-119l-345 171q-109 55 -109 126z" />
<glyph unicode="&#xfa;" horiz-adv-x="1488" d="M33 795v165l481 1v-632q0 -172 181 -172q210 0 210 233v309q0 59 -16 76q-17 20 -80 20h-21v165l456 1v-701q0 -58 21 -75q21 -20 101 -21h71v-165l-538 1v149q-90 -100 -166 -133q-98 -43 -215 -43q-174 0 -267 83q-53 48 -65 119q-11 61 -11 154v370q0 59 -16 76 q-17 20 -80 20h-46zM549 1094l293 311q58 62 93 81q36 20 71 20q52 0 85 -37q30 -32 30 -77q0 -73 -109 -127l-344 -171h-119z" />
<glyph unicode="&#xfb;" horiz-adv-x="1488" d="M33 795v165l481 1v-632q0 -172 181 -172q210 0 210 233v309q0 59 -16 76q-17 20 -80 20h-21v165l456 1v-701q0 -58 21 -75q21 -20 101 -21h71v-165l-538 1v149q-90 -100 -166 -133q-98 -43 -215 -43q-174 0 -267 83q-53 48 -65 119q-11 61 -11 154v370q0 59 -16 76 q-17 20 -80 20h-46zM405 1093l241 390h195l241 -390h-106l-233 180l-232 -180h-106z" />
<glyph unicode="&#xfc;" horiz-adv-x="1488" d="M33 795v165l481 1v-632q0 -172 181 -172q210 0 210 233v309q0 59 -16 76q-17 20 -80 20h-21v165l456 1v-701q0 -58 21 -75q21 -20 101 -21h71v-165l-538 1v149q-90 -100 -166 -133q-98 -43 -215 -43q-174 0 -267 83q-53 48 -65 119q-11 61 -11 154v370q0 59 -16 76 q-17 20 -80 20h-46zM348 1301q0 68 48 116q49 48 117 48q64 0 110 -48q45 -48 45 -114q0 -67 -45 -112q-46 -46 -113 -46q-65 0 -114 46q-48 46 -48 110zM825 1301q0 68 49 116q48 48 117 48q63 0 109 -48q45 -48 45 -114q0 -67 -45 -112q-46 -46 -113 -46q-65 0 -113 46 q-49 46 -49 110z" />
<glyph unicode="&#xfd;" horiz-adv-x="1331" d="M33 -179q0 99 72 150q58 41 132 41q58 0 105 -24q70 -37 70 -119q0 -77 -66 -117q-31 -19 -79 -19q-17 0 -49 2q58 -50 102 -50q83 0 153 71q53 55 101 176l-347 746q-30 63 -47 81q-33 32 -77 32h-62v170h678v-170h-52q-90 0 -90 -32q0 -20 26 -75l163 -343l144 331 q30 67 30 88q0 18 -23 27q-13 4 -57 4h-50v170h497v-170q-88 -6 -119 -25q-26 -17 -63 -96l-340 -752q-77 -171 -159 -254q-106 -107 -269 -107q-133 0 -226 66q-98 69 -98 198zM485 1094l293 311q58 62 93 81q36 20 71 20q52 0 85 -37q30 -32 30 -77q0 -73 -109 -127 l-344 -171h-119z" />
<glyph unicode="&#xfe;" horiz-adv-x="1387" d="M33 -273h56q77 1 97 21q20 17 20 75v1281q0 58 -20 76q-20 20 -97 20h-56v165h512v-520q69 75 127 105q85 45 201 45q226 0 338 -139q107 -133 107 -370q0 -242 -117 -379q-121 -142 -326 -142q-122 0 -221 56q-44 24 -109 87v-285q0 -58 19 -75q20 -20 96 -21h82v-165 h-709v165zM545 469q0 -128 23 -186q52 -131 182 -131q102 0 151.5 80t49.5 246q0 159 -43 246q-45 91 -161 91q-93 0 -146 -78q-31 -45 -43.5 -105.5t-12.5 -162.5z" />
<glyph unicode="&#xff;" horiz-adv-x="1331" d="M33 -179q0 99 72 150q58 41 132 41q58 0 105 -24q70 -37 70 -119q0 -77 -66 -117q-31 -19 -79 -19q-17 0 -49 2q58 -50 102 -50q83 0 153 71q53 55 101 176l-347 746q-30 63 -47 81q-33 32 -77 32h-62v170h678v-170h-52q-90 0 -90 -32q0 -20 26 -75l163 -343l144 331 q30 67 30 88q0 18 -23 27q-13 4 -57 4h-50v170h497v-170q-88 -6 -119 -25q-26 -17 -63 -96l-340 -752q-77 -171 -159 -254q-106 -107 -269 -107q-133 0 -226 66q-98 69 -98 198zM281 1301q0 68 48 116q49 48 117 48q64 0 110 -48q45 -48 45 -114q0 -67 -45 -112 q-46 -46 -113 -46q-65 0 -114 46q-48 46 -48 110zM758 1301q0 68 49 116q48 48 117 48q63 0 109 -48q45 -48 45 -114q0 -67 -45 -112q-46 -46 -113 -46q-65 0 -113 46q-49 46 -49 110z" />
<glyph unicode="&#x152;" horiz-adv-x="2673" d="M78 682q0 336 228 533q220 190 596 190l569 -40h1067v-521h-198q-25 133 -46 184q-25 60 -64.5 93t-105.5 49q-59 15 -251 16h-206v-389h41q136 1 178 44q36 37 42 172h198v-622h-198q-6 85 -14.5 124t-27.5 61q-26 31 -79 38q-31 4 -99 4h-41v-439h213q176 1 252 25 q117 36 167 171q20 53 41 189h198v-564h-1019q-112 -1 -390 -29q-119 -12 -227 -12q-377 0 -597 190q-227 196 -227 533zM521 682q0 -219 53 -336q90 -200 367 -200q86 0 160 19.5t113 53.5q75 63 75 289v348q0 226 -75 289q-46 40 -139 59q-65 14 -134 14q-179 0 -285 -89 q-135 -113 -135 -447z" />
<glyph unicode="&#x153;" horiz-adv-x="2058" d="M56 480q0 190 104 317q160 197 521 197q134 0 238 -38q76 -29 159 -108q66 53 118 81q116 62 262 62q251 0 398 -144q121 -119 137 -293q3 -27 3 -116h-727q2 -108 20 -155q48 -126 197 -126q121 0 180 64q28 31 46 104h268q-44 -122 -86 -176q-73 -94 -197 -143 q-109 -42 -244 -42q-146 0 -251 51q-54 27 -127 94q-69 -59 -128 -86q-128 -58 -295 -58q-261 0 -431 137q-165 132 -165 378zM423 480q0 -192 50 -268q48 -73 176 -73q129 0 177 73q50 76 50 265q0 197 -50 271q-49 74 -181 74q-124 0 -172 -74q-50 -74 -50 -268zM1274 603 h342q-5 108 -38 154q-45 60 -128 60q-45 0 -85.5 -20t-59.5 -52q-21 -34 -31 -142z" />
<glyph unicode="&#x178;" horiz-adv-x="1745" d="M56 1191v174h860v-174h-68q-85 0 -85 -45q0 -28 47 -99l165 -246l190 279q30 43 30 67q0 26 -34 36q-30 8 -111 8v174h637v-174q-64 -3 -98.5 -11t-64.5 -28q-37 -26 -60 -57l-47 -65l-347 -467v-250q1 -89 26 -115q18 -19 54 -22q18 -2 71 -2h113v-174h-907v174h113 q77 0 95 7q40 12 50 55q6 24 6 77v250l-347 468q-47 64 -67.5 85.5t-48.5 36.5q-50 27 -172 38zM481 1639q0 66 47 113t112 47q60 0 106 -47q47 -48 47 -111t-47 -109q-46 -45 -109 -45q-62 0 -109 45t-47 107zM951 1639q0 66 47 113t113 47q60 0 105 -47q47 -48 47 -111 t-47 -109q-45 -45 -108 -45t-110 45t-47 107z" />
<glyph unicode="&#x2c6;" horiz-adv-x="1059" d="M191 1093l241 390h195l241 -390h-106l-233 180l-232 -180h-106z" />
<glyph unicode="&#x2dc;" horiz-adv-x="1058" d="M185 1125q28 126 61 177q65 103 181 103q41 0 85 -12l127 -33q26 -7 49 -7q49 0 74 40q10 16 24 57h87q-25 -107 -47 -151q-65 -129 -195 -129q-35 0 -70 10l-123 33q-40 11 -69 11q-70 0 -96 -99h-88z" />
<glyph unicode="&#x2000;" horiz-adv-x="947" />
<glyph unicode="&#x2001;" horiz-adv-x="1895" />
<glyph unicode="&#x2002;" horiz-adv-x="947" />
<glyph unicode="&#x2003;" horiz-adv-x="1895" />
<glyph unicode="&#x2004;" horiz-adv-x="631" />
<glyph unicode="&#x2005;" horiz-adv-x="473" />
<glyph unicode="&#x2006;" horiz-adv-x="315" />
<glyph unicode="&#x2007;" horiz-adv-x="315" />
<glyph unicode="&#x2008;" horiz-adv-x="236" />
<glyph unicode="&#x2009;" horiz-adv-x="379" />
<glyph unicode="&#x200a;" horiz-adv-x="105" />
<glyph unicode="&#x2010;" horiz-adv-x="631" d="M0 327v306h631v-306h-631z" />
<glyph unicode="&#x2011;" horiz-adv-x="631" d="M0 327v306h631v-306h-631z" />
<glyph unicode="&#x2012;" horiz-adv-x="631" d="M0 327v306h631v-306h-631z" />
<glyph unicode="&#x2013;" horiz-adv-x="1239" d="M60 368v224h1119v-224h-1119z" />
<glyph unicode="&#x2014;" horiz-adv-x="1708" d="M0 368v224h1708v-224h-1708z" />
<glyph unicode="&#x2018;" horiz-adv-x="582" d="M89 1030q0 161 143 270q62 48 130 73q44 16 132 32v-115q-109 -21 -149 -56q-32 -28 -60 -96q36 4 62 4q81 0 127 -61q31 -42 31 -94q0 -62 -42 -110q-57 -65 -153 -65q-81 0 -144 46q-77 58 -77 172z" />
<glyph unicode="&#x2019;" horiz-adv-x="582" d="M88 1237q0 62 42 110q57 65 153 65q80 0 143 -46q77 -57 77 -171q0 -162 -143 -271q-62 -47 -130 -72q-44 -16 -132 -32v115q109 21 149 56q32 28 60 96q-35 -4 -62 -4q-80 0 -126 61q-31 41 -31 93z" />
<glyph unicode="&#x201a;" horiz-adv-x="582" d="M88 122q0 62 42 110q57 65 153 65q80 0 143 -46q77 -57 77 -171q0 -162 -143 -271q-62 -48 -130 -72q-44 -16 -132 -33v116q109 21 149 56q32 27 60 96q-34 -4 -61 -4q-81 0 -127 61q-31 41 -31 93z" />
<glyph unicode="&#x201c;" horiz-adv-x="1108" d="M89 1030q0 161 143 270q62 48 130 73q44 16 132 32v-115q-109 -21 -149 -56q-32 -28 -60 -96q36 4 62 4q81 0 127 -61q31 -42 31 -94q0 -62 -42 -110q-57 -65 -153 -65q-81 0 -144 46q-77 57 -77 172zM608 1030q0 161 143 270q62 48 130 73q44 16 132 32v-115 q-109 -21 -149 -56q-32 -28 -60 -96q35 4 62 4q81 0 127 -61q31 -42 31 -94q0 -62 -42 -110q-57 -65 -153 -65q-81 0 -144 47q-77 57 -77 171z" />
<glyph unicode="&#x201d;" horiz-adv-x="1108" d="M88 1237q0 62 42 110q57 65 153 65q80 0 143 -46q77 -57 77 -171q0 -162 -143 -271q-62 -47 -130 -72q-44 -16 -132 -32v115q109 21 149 56q32 28 60 96q-35 -4 -62 -4q-80 0 -126 61q-31 41 -31 93zM607 1237q0 62 42 110q57 65 153 65q81 0 143 -46q77 -58 77 -171 q0 -162 -143 -271q-62 -47 -130 -72q-44 -16 -132 -32v115q110 21 149 56q32 28 60 96q-35 -4 -62 -4q-80 0 -126 61q-31 41 -31 93z" />
<glyph unicode="&#x201e;" horiz-adv-x="1108" d="M88 128q0 62 42 110q57 65 153 65q80 0 143 -46q77 -57 77 -171q0 -163 -143 -271q-62 -48 -130 -73q-44 -16 -132 -32v115q109 21 149 56q32 28 60 96q-36 -4 -62 -4q-80 0 -126 61q-31 41 -31 94zM607 128q0 62 42 110q57 65 153 65q81 0 143 -46q77 -58 77 -171 q0 -162 -143 -271q-62 -48 -130 -73q-44 -16 -132 -32v115q110 21 149 56q32 28 60 96q-36 -4 -62 -4q-80 0 -126 61q-31 41 -31 94z" />
<glyph unicode="&#x2022;" horiz-adv-x="1502" d="M441 696q0 121 91 204q93 83 222 83q124 0 215 -83q91 -84 91 -203t-91 -203q-90 -83 -218 -83q-129 0 -219 83q-91 84 -91 202z" />
<glyph unicode="&#x2026;" horiz-adv-x="2148" d="M168 130q0 74 55 123q58 50 139 50q75 0 129 -50q55 -51 55 -122q0 -73 -55 -122q-56 -50 -133 -50q-78 0 -135 50q-55 49 -55 121zM884 130q0 74 55 123q58 50 139 50q75 0 129 -50q55 -51 55 -122q0 -73 -55 -122q-56 -50 -133 -50q-78 0 -135 50q-55 49 -55 121z M1600 130q0 74 55 123q58 50 139 50q75 0 129 -50q55 -51 55 -122q0 -73 -55 -122q-56 -50 -133 -50q-78 0 -135 50q-55 49 -55 121z" />
<glyph unicode="&#x202f;" horiz-adv-x="379" />
<glyph unicode="&#x2039;" horiz-adv-x="649" d="M101 480q0 70 233 351h190q-117 -219 -136.5 -262.5t-19.5 -84.5q0 -59 68 -172q46 -77 105 -175h-207q-136 172 -163 209q-70 95 -70 134z" />
<glyph unicode="&#x203a;" horiz-adv-x="649" d="M101 137q124 205 149 254.5t25 92.5q0 55 -57 162l-99 185h189q233 -281 233 -351q0 -42 -88 -159q-19 -25 -145 -184h-207z" />
<glyph unicode="&#x205f;" horiz-adv-x="473" />
<glyph unicode="&#x2122;" horiz-adv-x="2353" d="M29 1056v309h921v-309h-161q-4 71 -14 98q-35 96 -167 95v-464q0 -48 2 -60q4 -19 56 -23q31 -3 81 -3v-112h-516v112q75 0 104 8q16 4 18 30v47v465q-61 -2 -87 -16q-48 -26 -64 -79q-9 -27 -13 -98h-160zM1006 587v114h57q58 1 71 10q12 9 12 49v432q0 40 -12 49 q-13 10 -71 10h-57v114h502l158 -455l165 455h497v-114h-60q-60 0 -73 -10q-12 -8 -12 -49v-432q0 -40 13 -49q12 -9 72 -10h60v-114h-503v114h38q61 1 74 10q12 9 12 49v434l-230 -607h-199l-220 607v-434q0 -40 12 -49q13 -9 72 -10h36v-114h-414z" />
<glyph unicode="&#xe000;" horiz-adv-x="960" d="M0 0v960h960v-960h-960z" />
</font>
</defs>
</svg>
